<svg width="430" height="932" viewBox="0 0 430 932" fill="none" xmlns="http://www.w3.org/2000/svg">
<g clip-path="url(#clip0_14_138)">
<rect width="430" height="932" rx="35" fill="white"/>
<path d="M212.418 416.501C211.366 416.584 210.32 416.932 209.388 417.575C207.474 418.894 206.536 421.097 206.734 423.257C208.094 421.79 209.418 420.131 210.699 418.277C211.177 417.585 211.765 416.995 212.418 416.501Z" fill="#8397FA"/>
<path d="M216.209 435.753C217.868 437.179 219.565 438.404 221.298 439.423C226.052 442.234 231.045 443.444 235.672 443.444H235.739C242.624 443.409 248.514 441.013 253.168 438.255C255.329 448.982 258.58 463.539 256.893 476.109C256.882 476.292 256.875 476.464 256.866 476.641C255.361 477.88 253.796 479.277 252.217 480.854C248.194 484.884 244.087 490.086 240.962 496.621C237.835 503.141 235.747 511.011 235.756 519.933C235.753 527.184 237.117 535.092 240.169 543.546C241.594 547.498 245.323 549.957 249.294 549.957C250.387 549.957 251.498 549.772 252.585 549.38C257.625 547.562 260.237 542.004 258.421 536.963C256.048 530.381 255.163 524.771 255.159 519.933C255.17 513.987 256.487 509.156 258.468 504.985C259.908 501.956 261.749 499.279 263.72 496.972C264.626 502.194 266.227 508.043 268.983 514.06C274.296 525.75 284.363 537.949 301.111 545.9C305.941 548.212 311.736 546.168 314.047 541.336C316.36 536.503 314.317 530.71 309.485 528.399H309.484C296.864 522.301 290.444 514.155 286.609 505.952C282.827 497.77 282.009 489.401 282.022 484.223C282.022 482.908 282.071 481.813 282.13 480.98C283.223 479.187 284.09 476.935 284.641 474.103C286.166 460.998 285.87 451.961 283.323 441.504C281.08 438.937 278.75 437.872 276.86 437.238C274.728 436.547 272.633 436.401 271.253 436.401H271.238C269.119 436.401 267.592 436.719 267.322 436.78C267.283 436.792 267.245 436.803 267.205 436.81C266.591 436.964 265.961 437.04 265.33 437.04C262.885 437.04 260.649 435.889 259.21 434.042C258.582 433.236 258.104 432.3 257.83 431.267C257.301 429.263 257.581 427.172 258.622 425.378C259.664 423.586 261.34 422.307 263.345 421.774C263.82 421.654 264.651 421.47 265.743 421.3C267.155 421.079 269.015 420.881 271.231 420.878C271.946 420.879 272.654 420.903 273.356 420.943C269.111 417.615 264.069 416.714 260.096 417.706C258.82 418.024 257.684 418.625 256.694 419.441C256.324 419.714 255.979 420.028 255.668 420.391H255.67C255.482 420.61 252.949 423.43 249.208 426.047C245.394 428.749 240.45 431.06 235.74 431.023C233.139 431.01 230.525 430.427 227.594 428.716C226.457 428.048 225.268 427.191 224.042 426.108C223.876 426.442 223.695 426.771 223.477 427.086C221.206 430.376 218.776 433.262 216.208 435.749L216.209 435.753Z" fill="#8397FA"/>
<path d="M183.467 382.463C192.857 384.651 198.697 394.035 196.51 403.424C194.324 412.813 184.939 418.652 175.549 416.465C166.159 414.279 160.318 404.894 162.506 395.505C164.692 386.116 174.076 380.277 183.467 382.463Z" fill="#8397FA"/>
<path d="M128.891 545.901C145.641 537.948 155.708 525.749 161.019 514.057C163.775 508.04 165.375 502.192 166.282 496.969C168.335 499.376 170.239 502.177 171.718 505.376C173.595 509.46 174.834 514.171 174.842 519.932C174.841 524.767 173.952 530.381 171.583 536.963C169.765 542.004 172.378 547.563 177.42 549.379C178.506 549.77 179.617 549.957 180.709 549.957C184.683 549.957 188.411 547.496 189.835 543.542C192.882 535.089 194.247 527.185 194.244 519.931C194.254 511.008 192.165 503.139 189.04 496.619C184.678 487.519 178.479 481.034 173.137 476.636C173.128 476.461 173.121 476.288 173.111 476.107C171.705 465.627 173.731 453.774 175.695 443.904C173.973 443.229 172.253 442.444 170.538 441.537C166.071 439.159 163.236 436.836 162.472 436.181C160.895 434.811 159.953 432.923 159.809 430.855C159.784 430.507 159.791 430.162 159.812 429.82C159.916 428.127 160.563 426.522 161.694 425.222C163.166 423.527 165.303 422.552 167.554 422.552C169.413 422.552 171.212 423.222 172.619 424.436L172.84 424.616C173.048 424.779 173.373 425.036 173.806 425.346C173.82 425.355 173.83 425.365 173.844 425.374C174.678 425.97 176.018 426.862 177.676 427.752C176.839 422.893 174.129 418.757 169.907 417.704C168.703 417.404 167.401 417.28 166.053 417.342C165.22 417.289 164.222 417.249 163.084 417.249C157.505 417.278 148.462 418.108 140.173 423.76C136.057 426.582 132.246 430.689 129.6 436.183C126.944 441.675 125.447 448.457 125.451 456.653C125.451 460.208 125.728 464.039 126.316 468.179C126.757 471.277 129.414 473.512 132.456 473.512C132.746 473.512 133.041 473.492 133.339 473.449C136.733 472.965 139.094 469.823 138.611 466.428C138.094 462.809 137.867 459.559 137.867 456.653C137.869 449.94 139.077 445.116 140.781 441.589C142.931 437.206 145.853 434.578 149.188 432.799C144.42 447.457 143.434 457.529 145.363 474.099C145.913 476.929 146.78 479.178 147.87 480.972C147.927 481.806 147.978 482.901 147.978 484.219C147.991 489.399 147.172 497.767 143.391 505.95C139.556 514.152 133.137 522.297 120.517 528.395C115.684 530.708 113.64 536.499 115.952 541.333C118.265 546.166 124.055 548.209 128.89 545.897L128.891 545.901Z" fill="#8397FA"/>
<path d="M172.939 426.635C172.46 426.292 172.099 426.012 171.874 425.834C171.762 425.745 171.682 425.679 171.64 425.644C171.62 425.625 171.607 425.616 171.604 425.612H171.602C169.016 423.381 165.106 423.659 162.862 426.242C161.981 427.254 161.494 428.47 161.373 429.712C161.187 431.641 161.901 433.631 163.475 434.999C163.722 435.211 166.565 437.667 171.261 440.168C172.672 440.914 174.26 441.67 175.999 442.365C180.042 443.979 184.917 445.255 190.389 445.267H190.452C195.571 445.267 201.191 444.062 206.655 441.015C209.53 439.418 212.346 437.329 215.059 434.711C217.531 432.328 219.92 429.507 222.195 426.207C222.462 425.819 222.674 425.413 222.842 424.995C223.902 422.362 223.044 419.254 220.611 417.573C218.904 416.394 216.815 416.195 214.999 416.841C213.815 417.263 212.744 418.042 211.975 419.157C210.362 421.492 208.756 423.429 207.174 425.047C204.925 427.347 202.723 428.993 200.623 430.164C197.035 432.146 193.671 432.84 190.389 432.851C185.798 432.867 181.347 431.344 177.903 429.618C177.629 429.481 177.348 429.345 177.088 429.206C175.473 428.348 174.144 427.486 173.195 426.82C173.109 426.757 173.02 426.694 172.939 426.635Z" fill="#8397FA"/>
<path d="M267.494 395.501C269.681 404.89 263.841 414.274 254.451 416.46C245.06 418.648 235.676 412.808 233.49 403.42C231.302 394.03 237.143 384.646 246.533 382.459C255.923 380.272 265.308 386.112 267.494 395.501Z" fill="#8397FA"/>
<path d="M263.742 423.279C260.426 424.159 258.453 427.558 259.331 430.872C259.547 431.689 259.918 432.422 260.4 433.053C261.873 434.977 264.404 435.936 266.892 435.29L266.893 435.291C267.055 435.249 268.833 434.848 271.233 434.853C273.059 434.851 275.226 435.08 277.356 435.772C279.139 436.37 280.893 437.218 282.563 438.595C283.898 439.693 285.181 441.128 286.387 443.048C289.078 447.382 291.331 454.549 291.33 466.146C291.33 469.574 294.109 472.353 297.539 472.353C300.968 472.353 303.746 469.573 303.746 466.146C303.745 457.367 302.623 450.217 300.608 444.349C297.627 435.55 292.396 429.677 286.764 426.446C282.783 424.137 278.771 423.094 275.269 422.678C273.825 422.507 272.465 422.439 271.234 422.438C269.287 422.441 267.631 422.6 266.369 422.779C264.878 422.989 263.937 423.231 263.742 423.279L263.742 423.279Z" fill="#8397FA"/>
<path d="M217.49 486.642L219.86 489.063V493.149C219.86 493.704 219.407 494.158 218.852 494.158H191.009C190.454 494.158 190 493.704 190 493.149L190 454.613C190 454.058 190.454 453.604 191.009 453.604H198.726V455.975H192.724C192.573 455.975 192.421 456.126 192.421 456.277V491.333C192.421 491.484 192.573 491.636 192.724 491.636H217.187C217.338 491.636 217.49 491.484 217.49 491.333L217.49 486.642ZM217.49 456.328V468.787C218.246 468.585 219.053 468.484 219.86 468.534V454.613C219.86 454.058 219.407 453.604 218.852 453.604H211.185V455.975H217.187C217.389 456.025 217.49 456.177 217.49 456.328L217.49 456.328ZM210.176 453.352C210.176 452.243 209.268 451.385 208.209 451.385H207.351C207.25 448.207 202.66 448.207 202.56 451.385H201.702C200.592 451.385 199.735 452.293 199.735 453.352V456.026H210.176L210.176 453.352ZM204.023 465.912V469.14H205.939V465.912C205.939 465.609 206.191 465.357 206.494 465.357H209.722V463.49H206.444C206.141 463.49 205.889 463.238 205.889 462.935V459.707H203.972V462.935C203.972 463.238 203.72 463.49 203.417 463.49H200.189V465.407H203.417C203.77 465.407 204.023 465.609 204.023 465.912ZM198.373 473.578H196.255V475.697L198.373 475.697V473.578ZM198.373 485.532H196.255V487.651H198.373V485.532ZM193.43 457.034H216.481V469.14C210.983 471.208 209.42 478.723 213.707 482.809L216.481 485.583V490.627H193.43V457.034ZM210.529 487.147H201.652C201.349 487.147 201.097 487.399 201.097 487.701C201.097 488.004 201.349 488.256 201.652 488.256H210.529C211.235 488.206 211.235 487.147 210.529 487.147ZM201.097 481.699C201.097 482.002 201.349 482.254 201.652 482.254H210.529C211.235 482.254 211.235 481.195 210.529 481.195L201.652 481.195C201.349 481.144 201.097 481.396 201.097 481.699ZM201.652 480.085H207.099C207.805 480.085 207.805 479.026 207.099 479.026H201.652C200.946 479.026 200.946 480.135 201.652 480.085ZM201.097 485.533C201.097 485.835 201.349 486.088 201.652 486.088H207.099C207.402 486.088 207.654 485.835 207.654 485.533C207.654 485.23 207.402 484.978 207.099 484.978H201.652C201.349 485.028 201.097 485.28 201.097 485.533ZM210.529 475.193H201.652C201.349 475.193 201.097 475.445 201.097 475.747C201.097 476.05 201.349 476.302 201.652 476.302H210.529C211.235 476.252 211.235 475.193 210.529 475.193ZM201.652 474.133H207.099C207.805 474.133 207.805 473.074 207.099 473.074H201.652C200.946 473.074 200.946 474.133 201.652 474.133ZM199.18 465.811C199.18 466.164 199.483 466.467 199.836 466.467H202.913V469.543C202.913 469.897 203.215 470.199 203.569 470.199H206.292C206.645 470.199 206.948 469.897 206.948 469.543V466.467H210.025C210.378 466.467 210.681 466.164 210.681 465.811V463.087C210.681 462.734 210.378 462.431 210.025 462.431H206.948V459.355C206.948 459.001 206.645 458.699 206.292 458.699H203.569C203.215 458.699 202.913 459.001 202.913 459.355V462.431H199.836C199.483 462.431 199.18 462.734 199.18 463.087V465.811ZM195.196 475.848C195.196 476.353 195.599 476.807 196.154 476.807H198.474C198.979 476.807 199.433 476.403 199.433 475.848V473.528C199.433 473.023 198.979 472.569 198.474 472.569H196.154C195.599 472.569 195.196 472.973 195.196 473.528V475.848ZM195.196 481.8C195.196 482.355 195.599 482.758 196.154 482.758H198.474C198.979 482.758 199.433 482.355 199.433 481.8V479.48C199.433 478.975 198.979 478.521 198.474 478.521H196.154C195.599 478.521 195.196 478.925 195.196 479.48V481.8ZM195.196 487.802C195.196 488.307 195.599 488.761 196.154 488.761H198.474C198.979 488.761 199.433 488.357 199.433 487.802V485.432C199.433 484.927 198.979 484.473 198.474 484.473H196.154C195.599 484.473 195.196 484.877 195.196 485.432V487.802ZM198.373 479.581H196.255V481.699H198.373V479.581ZM237.817 482.103L226.115 493.805C222.836 490.526 217.54 485.28 214.413 482.103C211.538 479.227 211.538 474.587 214.413 471.712C217.237 468.837 221.979 468.837 224.803 471.712L226.115 473.023L227.426 471.712C234.589 465.104 244.425 474.94 237.818 482.103H237.817ZM234.134 479.379H231.411L230.402 477.765C230.201 477.462 229.696 477.462 229.494 477.765L227.578 480.741L225.661 477.765C225.56 477.613 225.409 477.512 225.207 477.512C225.005 477.512 224.854 477.613 224.753 477.765L222.836 480.741C222.735 480.589 222.13 479.48 221.929 479.429C221.878 479.278 219.154 479.379 219.003 479.379C218.297 479.379 218.297 480.438 219.003 480.438H221.374L222.382 482.053C222.483 482.204 222.635 482.305 222.836 482.305C223.038 482.305 223.19 482.204 223.29 482.053L225.207 479.077L227.124 482.053C227.225 482.204 227.376 482.305 227.578 482.305C227.779 482.305 227.931 482.204 228.032 482.053L229.948 479.077C230.049 479.228 230.655 480.338 230.856 480.388C230.755 480.539 234.084 480.438 234.135 480.438C234.841 480.438 234.841 479.429 234.134 479.379Z" fill="#98A8F8"/>
<path d="M141.609 -214L698.774 201.958L430.165 561.753C430.165 561.753 224.5 426 249 357C273.5 288 -127 145.795 -127 145.795L141.609 -214Z" fill="url(#paint0_linear_14_138)"/>
<path d="M381.29 1312.66L-430 897.63L-128.876 309C-128.876 309 289.5 485.5 161.5 613.5C33.5 741.5 682.414 724.03 682.414 724.03L381.29 1312.66Z" fill="url(#paint1_linear_14_138)"/>
</g>
<defs>
<linearGradient id="paint0_linear_14_138" x1="420.192" y1="-6.02106" x2="30.9182" y2="515.401" gradientUnits="userSpaceOnUse">
<stop stop-color="#98A8F8"/>
<stop offset="0.71319" stop-color="#D9D9D9" stop-opacity="0"/>
</linearGradient>
<linearGradient id="paint1_linear_14_138" x1="-24.3552" y1="1105.15" x2="412.04" y2="252.091" gradientUnits="userSpaceOnUse">
<stop stop-color="#98A8F8"/>
<stop offset="0.71319" stop-color="#D9D9D9" stop-opacity="0"/>
</linearGradient>
<clipPath id="clip0_14_138">
<rect width="430" height="932" rx="35" fill="white"/>
</clipPath>
</defs>
</svg>
