<svg width="324" height="230" viewBox="0 0 324 230" fill="none" xmlns="http://www.w3.org/2000/svg">
<g clip-path="url(#clip0_20_131)">
<path opacity="0.1" d="M107.717 229.871C123.495 229.871 136.286 227.812 136.286 225.272C136.286 222.732 123.495 220.674 107.717 220.674C91.938 220.674 79.147 222.732 79.147 225.272C79.147 227.812 91.938 229.871 107.717 229.871Z" fill="#98A8F8"/>
<path opacity="0.1" d="M263.017 230C282.706 230 298.667 227.941 298.667 225.401C298.667 222.862 282.706 220.803 263.017 220.803C243.328 220.803 227.366 222.862 227.366 225.401C227.366 227.941 243.328 230 263.017 230Z" fill="#98A8F8"/>
<path opacity="0.1" d="M4.05792 99.3766H33.815V140.023H6.23641C6.16311 140.441 6.09274 140.861 6.01651 141.281H33.815V174.062C33.7652 174.047 33.7212 174.029 33.6743 174.012C32.8885 173.7 32.1086 173.371 31.3286 173.019L30.8302 172.792C30.0483 172.422 29.2665 172.03 28.4846 171.617C28.2119 171.473 27.9392 171.323 27.6695 171.17C23.3289 168.734 19.3856 165.646 15.9766 162.014C15.8769 161.917 15.7831 161.815 15.6834 161.721C15.2084 161.203 14.7422 160.68 14.2907 160.146L13.7922 159.558C13.2586 158.903 12.7426 158.23 12.2412 157.548C12.1679 157.448 12.0975 157.348 12.0213 157.254C9.9822 154.421 8.28912 151.353 6.97821 148.116C6.93716 148.019 6.90198 147.913 6.86386 147.822C6.4612 146.784 6.10447 145.736 5.79368 144.678C5.6588 144.234 5.52979 143.796 5.41838 143.335C5.37733 143.2 5.34214 143.068 5.30989 142.935C3.6445 136.421 3.44806 129.654 3.44806 122.934C3.44806 122.149 3.44806 121.362 3.44806 120.583C3.44806 117.865 3.48031 115.129 3.52722 112.397C3.52722 111.688 3.55654 110.983 3.5712 110.272C3.61225 108.468 3.67089 106.664 3.74713 104.86C3.76472 104.357 3.78817 103.858 3.81456 103.358C3.81456 103.07 3.82922 102.782 3.85854 102.494C3.92891 101.448 3.98755 100.411 4.05792 99.3766Z" fill="#98A8F8"/>
<path opacity="0.1" d="M33.815 54.1194H17.4924C20.1458 49.9574 23.0448 45.9579 26.1741 42.1425C28.5989 39.1571 31.1586 36.2481 33.815 33.4448V54.1194Z" fill="#98A8F8"/>
<path opacity="0.1" d="M33.815 55.377V98.1189H4.15174C4.15174 97.9955 4.17226 97.8692 4.18106 97.7457C4.20745 97.4078 4.23384 97.0699 4.26316 96.7349C4.29541 96.3412 4.33059 95.9445 4.36871 95.5596C4.40683 95.1746 4.44788 94.7045 4.49186 94.2784C4.53584 93.8524 4.57688 93.4204 4.62673 92.9944C4.67657 92.5683 4.72055 92.1422 4.77333 91.7191C4.82611 91.296 4.87302 90.867 4.92873 90.4438C4.97271 90.0912 5.01962 89.7416 5.06653 89.3889C5.13397 88.8924 5.20434 88.3928 5.28057 87.8992C5.28057 87.8257 5.30109 87.7493 5.31282 87.6788C5.84797 84.065 6.57715 80.4828 7.49718 76.9478C8.46022 73.2395 9.69 69.606 11.1769 66.0757C12.7571 62.3827 14.6074 58.8116 16.7125 55.3917L33.815 55.377Z" fill="#98A8F8"/>
<path opacity="0.1" d="M40.9193 99.3736V140.023H104.477V99.3736H40.9193ZM40.9193 141.278V176.186C41.2828 176.263 41.6435 176.336 42.0012 176.398C42.4879 176.492 42.9717 176.577 43.4672 176.65C43.561 176.665 43.6578 176.68 43.7604 176.689C43.9539 176.721 44.1533 176.747 44.3468 176.774C44.8365 176.841 45.3232 176.897 45.8128 176.941C46.0444 176.965 46.279 176.985 46.5136 177.003L47.0794 177.047C47.3873 177.071 47.6922 177.088 47.9942 177.097C48.1819 177.097 48.3695 177.115 48.563 177.121C48.7096 177.121 48.8563 177.121 49.0087 177.121C49.1612 177.121 49.3782 177.121 49.5629 177.121C49.815 177.121 50.0672 177.121 50.3164 177.121H50.6536C50.9057 177.121 51.1579 177.121 51.4071 177.097H51.4247C51.5977 177.097 51.7736 177.097 51.9495 177.074C51.9984 177.077 52.0473 177.077 52.0961 177.074C52.2427 177.074 52.3893 177.074 52.5301 177.053H52.6327L53.6149 176.977C53.9374 176.947 54.2629 176.909 54.5913 176.874L55.2598 176.794C57.9795 176.413 60.6689 175.839 63.3082 175.078C69.2367 173.421 75.0363 171.103 80.9619 169.404C88.6232 167.215 97.088 166.14 104.491 168.817V141.278H40.9193ZM104.477 54.1194V0.00294383C97.5182 -0.0726093 90.5787 0.743032 83.8265 2.43006C67.7326 6.48211 53.2924 15.2709 40.9193 26.4955V54.1164H44.1093V55.3711H40.9193V98.1189H104.477V55.3741H57.2066V54.1194H104.477ZM186.113 35.8396C182.131 35.6986 178.173 34.4351 174.593 32.484C167.747 28.7522 162.279 22.99 156.168 18.127C143.473 7.99832 127.728 1.88646 111.575 0.370243V54.1194H202.306L202.532 53.8814L186.113 35.8396ZM194.378 34.3704L203.142 44.0084V31.8434C200.207 32.2078 197.636 33.0746 194.39 34.3587L194.378 34.3704ZM203.142 184.854V141.278H184.468C184.418 141.093 184.368 140.905 184.31 140.717C184.365 140.905 184.412 141.093 184.465 141.278H111.587V172.792C112.279 173.307 112.962 173.847 113.639 174.397C114.369 174.984 115.091 175.604 115.815 176.213L116.545 176.818C116.894 177.112 117.246 177.406 117.6 177.682C118.304 178.254 119.015 178.818 119.732 179.374C120.087 179.668 120.45 179.933 120.811 180.209C126.536 184.596 132.576 188.555 138.881 192.054C140.294 192.837 141.72 193.602 143.159 194.348C144.118 194.839 145.082 195.327 146.05 195.8C147.504 196.511 148.97 197.197 150.448 197.857C164.072 203.986 178.478 208.192 193.255 210.354C196.537 210.84 199.832 211.222 203.139 211.5V184.852H203.432L203.142 184.854ZM111.587 55.3741V98.1189H203.154V55.3741H111.587ZM111.587 99.3736V140.023H203.154V99.3736H111.587ZM210.261 31.7905V45.36L221.447 33.0599C217.741 32.4605 214.012 32.0324 210.261 31.7758V31.7905ZM210.261 99.3883V140.023H299.321V99.3736L210.261 99.3883ZM298.996 188.081L299.309 141.278H210.261V211.967C215.998 212.209 221.743 212.14 227.472 211.761H227.572C230.308 211.589 233.032 211.338 235.743 211.009H235.805C250.269 209.322 264.412 205.54 277.791 199.782M316.494 106.067C316.16 105.277 315.811 104.492 315.456 103.717C314.793 102.247 314.093 100.819 313.371 99.3913H306.423V140.023H323.991C323.982 128.517 321.077 116.763 316.503 106.053L316.494 106.067ZM306.423 141.293V181.549C311.372 176.794 315.553 171.355 318.564 165.138C322.185 157.651 323.842 149.544 323.977 141.287L306.423 141.293ZM306.423 87.5436V98.1219H312.721C310.815 94.4804 308.716 90.9443 306.431 87.5289L306.423 87.5436ZM246.023 39.7653C245.56 39.589 245.096 39.4098 244.63 39.2364C239.713 37.4167 234.689 35.9035 229.586 34.7054L212.469 53.5317L212.14 53.8814L212.36 54.1223H273.282C264.797 48.2692 255.65 43.4449 246.032 39.7506L246.023 39.7653ZM275.067 55.3888H211.51L210.261 56.5347V98.1189H221.209H221.227H299.333V77.9762C292.267 69.4125 284.112 61.8137 275.076 55.3741L275.067 55.3888Z" fill="#98A8F8"/>
<path opacity="0.1" d="M33.815 76.936V98.1189H4.15174C4.15174 97.9955 4.17226 97.8692 4.18106 97.7458C4.20745 97.4078 4.23384 97.0699 4.26316 96.7349C4.29541 96.3412 4.33059 95.9445 4.36871 95.5596C4.40683 95.1747 4.44788 94.7045 4.49186 94.2785C4.53584 93.8524 4.57688 93.4204 4.62673 92.9944C4.67657 92.5683 4.72055 92.1422 4.77333 91.7191C4.82611 91.296 4.87302 90.867 4.92873 90.4438C4.97271 90.0912 5.01962 89.7416 5.06653 89.389C5.13397 88.8924 5.20434 88.3928 5.28057 87.8992C5.28057 87.8257 5.30109 87.7493 5.31282 87.6788C5.84797 84.0651 6.57715 80.4829 7.49718 76.9478L33.815 76.936Z" fill="#98A8F8"/>
<path opacity="0.1" d="M4.05792 99.3766H33.815V140.023H6.23641C6.16311 140.441 6.09274 140.861 6.01651 141.281H33.815V174.062C33.7652 174.047 33.7212 174.029 33.6743 174.012C32.8885 173.7 32.1086 173.371 31.3286 173.019L30.8302 172.792C30.0483 172.422 29.2665 172.03 28.4846 171.617C28.2119 171.473 27.9392 171.323 27.6695 171.17C23.3289 168.734 19.3856 165.646 15.9766 162.014C15.8769 161.917 15.7831 161.815 15.6834 161.721C15.2084 161.203 14.7422 160.68 14.2907 160.146L13.7922 159.558C13.2586 158.903 12.7426 158.23 12.2412 157.548C12.1679 157.448 12.0975 157.348 12.0213 157.254C9.9822 154.421 8.28912 151.353 6.97821 148.116C6.93716 148.019 6.90198 147.913 6.86386 147.822C6.4612 146.784 6.10447 145.736 5.79368 144.678C5.6588 144.234 5.52979 143.796 5.41838 143.335C5.37733 143.2 5.34214 143.068 5.30989 142.935C3.6445 136.421 3.44806 129.654 3.44806 122.934C3.44806 122.149 3.44806 121.362 3.44806 120.583C3.44806 117.865 3.48031 115.129 3.52722 112.397C3.52722 111.688 3.55654 110.983 3.5712 110.272C3.61225 108.468 3.67089 106.664 3.74713 104.86C3.76472 104.357 3.78817 103.858 3.81456 103.358C3.81456 103.07 3.82922 102.782 3.85854 102.494C3.92891 101.448 3.98755 100.411 4.05792 99.3766Z" fill="#98A8F8"/>
<path opacity="0.1" d="M63.2935 61.4948V98.1189H40.9193V61.4948H44.1093V49.0947H57.2037V61.4948H63.2935Z" fill="#98A8F8"/>
<path opacity="0.1" d="M63.2935 99.3736H40.9222V140.02H63.2935V99.3736Z" fill="#98A8F8"/>
<path opacity="0.1" d="M40.9193 141.281H63.2935V175.073C60.6543 175.833 57.9648 176.405 55.2451 176.786L54.5766 176.868C54.2482 176.906 53.9228 176.938 53.6003 176.971C53.2777 177.003 52.9435 177.027 52.618 177.047H52.5154C52.3747 177.047 52.2222 177.065 52.0844 177.068H51.9349C51.759 177.068 51.583 177.085 51.4071 177.091C51.1579 177.106 50.9087 177.109 50.6536 177.112C50.5451 177.112 50.4425 177.112 50.334 177.112C50.0818 177.112 49.8326 177.112 49.5805 177.112H49.0263C48.8768 177.112 48.7331 177.112 48.5777 177.112L48.0118 177.091C47.7186 177.091 47.402 177.059 47.097 177.038L46.5341 176.997L45.8333 176.933C45.3408 176.889 44.8511 176.833 44.3673 176.765L43.7809 176.683L43.4877 176.642C42.9981 176.565 42.5143 176.483 42.0217 176.389C41.6611 176.327 41.3034 176.251 40.9398 176.177L40.9193 141.281Z" fill="#98A8F8"/>
<path opacity="0.1" d="M203.154 57.1694H184.706V98.116H203.154V57.1694Z" fill="#98A8F8"/>
<path opacity="0.1" d="M203.157 99.3736V140.023H111.587V122.49H160.361V132.833H184.706V99.3736H203.157Z" fill="#98A8F8"/>
<path opacity="0.1" d="M203.447 184.863H203.154V211.529C199.85 211.249 196.557 210.868 193.273 210.386C178.489 208.217 164.076 204.002 150.448 197.863C146.513 196.088 142.658 194.151 138.884 192.051C132.579 188.55 126.539 184.591 120.811 180.206C119.372 179.101 117.952 177.971 116.551 176.815C115.58 176.013 114.616 175.19 113.639 174.391C112.962 173.841 112.279 173.301 111.587 172.784V141.281H184.462C184.412 141.093 184.363 140.905 184.31 140.72C184.365 140.905 184.418 141.093 184.468 141.281H203.154V184.846C203.254 184.849 203.35 184.857 203.447 184.863Z" fill="#98A8F8"/>
<path opacity="0.1" d="M251.268 54.1194H239.247V50.3759H244.636V39.2246C245.103 39.3951 245.568 39.5704 246.032 39.7506V50.3759H251.268V54.1194Z" fill="#98A8F8"/>
<path opacity="0.1" d="M280.231 98.1189H221.215C221.215 98.1189 221.215 98.1189 221.236 98.1336L221.209 98.1189H210.261V57.1724H213.363V87.4379H227.539V69.5136H239.25V55.377H251.271V69.5254H262.982V87.4496H280.231V98.1189Z" fill="#98A8F8"/>
<path opacity="0.1" d="M210.261 99.3736V140.023H280.231V99.3736H210.261ZM299.224 187.872L299.321 155.697H280.231V141.299H210.261V211.967C215.998 212.209 221.743 212.14 227.472 211.761H227.572C230.308 211.589 233.032 211.338 235.743 211.009H235.805C250.269 209.322 264.412 205.54 277.791 199.782" fill="#98A8F8"/>
<path opacity="0.1" d="M307.666 141.281H323.988C323.845 149.535 322.191 157.642 318.573 165.129C315.562 171.35 311.378 176.789 306.434 181.54V155.682H307.666V141.281Z" fill="#98A8F8"/>
<path opacity="0.1" d="M323.997 140.023H307.666V106.053H316.503C321.077 116.763 323.982 128.517 323.997 140.023Z" fill="#98A8F8"/>
<path opacity="0.1" d="M203.157 68.5528H193.273V81.3906H203.157V68.5528Z" fill="#98A8F8"/>
<path opacity="0.1" d="M203.157 95.1629H193.273V98.1189H203.157V95.1629Z" fill="#98A8F8"/>
<path opacity="0.1" d="M203.157 99.3736H193.273V107.998H203.157V99.3736Z" fill="#98A8F8"/>
<path opacity="0.1" d="M203.157 121.773H193.273V134.611H203.157V121.773Z" fill="#98A8F8"/>
<path opacity="0.1" d="M203.157 148.383H193.273V161.221H203.157V148.383Z" fill="#98A8F8"/>
<path opacity="0.1" d="M203.154 184.846C203.254 184.846 203.35 184.846 203.447 184.863H203.154V187.846H193.273V174.993H203.154V184.846Z" fill="#98A8F8"/>
<path opacity="0.1" d="M203.154 201.597V211.515C199.85 211.234 196.557 210.853 193.273 210.372V201.597H203.154Z" fill="#98A8F8"/>
<path opacity="0.1" d="M153.946 139.08H111.587V140.023H153.946V139.08Z" fill="#98A8F8"/>
<path opacity="0.1" d="M153.946 141.278H111.587V144.892H153.946V141.278Z" fill="#98A8F8"/>
<path opacity="0.1" d="M153.946 156.74H111.587V162.552H153.946V156.74Z" fill="#98A8F8"/>
<path opacity="0.1" d="M153.943 174.4V180.212H120.811C119.372 179.111 117.951 177.981 116.548 176.821C115.577 176.019 114.616 175.196 113.636 174.4H153.943Z" fill="#98A8F8"/>
<path opacity="0.1" d="M153.943 192.057V197.863H150.445C146.514 196.086 142.66 194.148 138.884 192.048L153.943 192.057Z" fill="#98A8F8"/>
<path opacity="0.1" d="M235.814 103.314H227.475V111.671H235.814V103.314Z" fill="#98A8F8"/>
<path opacity="0.1" d="M55.2657 64.3773H46.927V72.7341H55.2657V64.3773Z" fill="#98A8F8"/>
<path opacity="0.1" d="M55.2657 83.7884H46.927V92.1452H55.2657V83.7884Z" fill="#98A8F8"/>
<path opacity="0.1" d="M55.2657 103.199H46.927V111.556H55.2657V103.199Z" fill="#98A8F8"/>
<path opacity="0.1" d="M55.2657 122.608H46.927V130.964H55.2657V122.608Z" fill="#98A8F8"/>
<path opacity="0.1" d="M55.2657 142.019H46.927V150.375H55.2657V142.019Z" fill="#98A8F8"/>
<path opacity="0.1" d="M55.2657 161.43H46.927V169.786H55.2657V161.43Z" fill="#98A8F8"/>
<path opacity="0.1" d="M267.647 103.314H259.308V111.671H267.647V103.314Z" fill="#98A8F8"/>
<path opacity="0.1" d="M235.814 123.927H227.475V132.284H235.814V123.927Z" fill="#98A8F8"/>
<path opacity="0.1" d="M267.647 123.927H259.308V132.284H267.647V123.927Z" fill="#98A8F8"/>
<path opacity="0.1" d="M235.814 144.537H227.475V152.894H235.814V144.537Z" fill="#98A8F8"/>
<path opacity="0.1" d="M267.647 144.537H259.308V152.894H267.647V144.537Z" fill="#98A8F8"/>
<path opacity="0.1" d="M235.814 165.15H227.475V173.506H235.814V165.15Z" fill="#98A8F8"/>
<path opacity="0.1" d="M267.647 165.15H259.308V173.506H267.647V165.15Z" fill="#98A8F8"/>
<path opacity="0.1" d="M235.814 185.762H227.475V194.119H235.814V185.762Z" fill="#98A8F8"/>
<path opacity="0.1" d="M267.647 185.762H259.308V194.119H267.647V185.762Z" fill="#98A8F8"/>
<path opacity="0.1" d="M227.475 211.761V206.372H235.811V210.994L227.475 211.761Z" fill="#98A8F8"/>
<path opacity="0.1" d="M5.27763 87.6729V92.4537H33.815V87.6729H5.27763ZM8.1217 92.154H5.79367V87.9668H8.13929L8.1217 92.154ZM10.9628 92.154H8.61721V87.9668H10.9628V92.154ZM13.7981 92.154H11.4525V87.9668H13.7981V92.154ZM16.6392 92.154H14.2965V87.9668H16.6421L16.6392 92.154ZM19.4774 92.154H17.1318V87.9668H19.4774V92.154ZM22.3185 92.154H19.9729V87.9668H22.3185V92.154ZM25.1597 92.154H22.8141V87.9668H25.1597V92.154ZM27.9979 92.154H25.6522V87.9668H27.9979V92.154ZM30.8361 92.154H28.4904V87.9668H30.8361V92.154ZM33.6743 92.154H31.3286V87.9668H33.6743V92.154Z" fill="#98A8F8"/>
<path opacity="0.1" d="M5.27763 101.583V106.364H33.815V101.583H5.27763ZM8.1217 106.061H5.79367V101.886H8.13929L8.1217 106.061ZM10.9628 106.061H8.61721V101.886H10.9628V106.061ZM13.7981 106.061H11.4525V101.886H13.7981V106.061ZM16.6392 106.061H14.2965V101.886H16.6421L16.6392 106.061ZM19.4774 106.061H17.1318V101.886H19.4774V106.061ZM22.3185 106.061H19.9729V101.886H22.3185V106.061ZM25.1597 106.061H22.8141V101.886H25.1597V106.061ZM27.9979 106.061H25.6522V101.886H27.9979V106.061ZM30.8361 106.061H28.4904V101.886H30.8361V106.061ZM33.6743 106.061H31.3286V101.886H33.6743V106.061Z" fill="#98A8F8"/>
<path opacity="0.1" d="M5.27763 115.5V120.289H33.815V115.5H5.27763ZM8.1217 119.978H5.79367V115.799H8.13929L8.1217 119.978ZM10.9628 119.978H8.61721V115.799H10.9628V119.978ZM13.7981 119.978H11.4525V115.799H13.7981V119.978ZM16.6392 119.978H14.2965V115.799H16.6421L16.6392 119.978ZM19.4774 119.978H17.1318V115.799H19.4774V119.978ZM22.3185 119.978H19.9729V115.799H22.3185V119.978ZM25.1597 119.978H22.8141V115.799H25.1597V119.978ZM27.9979 119.978H25.6522V115.799H27.9979V119.978ZM30.8361 119.978H28.4904V115.799H30.8361V119.978ZM33.6743 119.978H31.3286V115.799H33.6743V119.978Z" fill="#98A8F8"/>
<path opacity="0.1" d="M5.27763 129.416V134.191H33.815V129.416H5.27763ZM8.1217 133.894H5.79367V129.713H8.13929L8.1217 133.894ZM10.9628 133.894H8.61721V129.713H10.9628V133.894ZM13.7981 133.894H11.4525V129.713H13.7981V133.894ZM16.6392 133.894H14.2965V129.713H16.6421L16.6392 133.894ZM19.4774 133.894H17.1318V129.713H19.4774V133.894ZM22.3185 133.894H19.9729V129.713H22.3185V133.894ZM25.1597 133.894H22.8141V129.713H25.1597V133.894ZM27.9979 133.894H25.6522V129.713H27.9979V133.894ZM30.8361 133.894H28.4904V129.713H30.8361V133.894ZM33.6743 133.894H31.3286V129.713H33.6743V133.894Z" fill="#98A8F8"/>
<path opacity="0.1" d="M5.40078 143.329C5.51513 143.779 5.64414 144.228 5.77901 144.672V143.629H8.12462V147.807H6.86972C6.90784 147.904 6.94595 148.01 6.98407 148.101H33.815V143.329H5.40078ZM10.9716 147.807H8.626V143.629H10.9716V147.807ZM13.8069 147.807H11.4613V143.629H13.8069V147.807ZM16.648 147.807H14.2965V143.629H16.6421L16.648 147.807ZM19.4862 147.807H17.1406V143.629H19.4862V147.807ZM22.3273 147.807H19.9817V143.629H22.3273V147.807ZM25.1685 147.807H22.8228V143.629H25.1685V147.807ZM28.0067 147.807H25.661V143.629H28.0067V147.807ZM30.8449 147.807H28.4992V143.629H30.8449V147.807ZM33.683 147.807H31.3374V143.629H33.683V147.807Z" fill="#98A8F8"/>
<path opacity="0.1" d="M12.0271 157.245C12.1004 157.339 12.1708 157.445 12.247 157.539H13.7981V159.546C13.9652 159.746 14.1294 159.946 14.2995 160.134V157.527H16.6451V161.721H15.6951C15.7889 161.817 15.8798 161.92 15.9883 162.014H33.8238V157.245H12.0271ZM19.4774 161.721H17.1318V157.545H19.4774V161.721ZM22.3185 161.721H19.9729V157.545H22.3185V161.721ZM25.1597 161.721H22.814V157.545H25.1597V161.721ZM27.9979 161.721H25.6522V157.545H27.9979V161.721ZM30.8361 161.721H28.4904V157.545H30.8361V161.721ZM33.6743 161.721H31.3286V157.545H33.6743V161.721Z" fill="#98A8F8"/>
<path opacity="0.1" d="M27.6812 171.159C27.948 171.311 28.2207 171.452 28.4963 171.605V171.458H30.8419V172.781L31.3404 173.013V171.458H33.686V174C33.731 174.022 33.7781 174.04 33.8267 174.053V171.159H27.6812Z" fill="#98A8F8"/>
<path opacity="0.1" d="M184.31 140.717C184.365 140.905 184.412 141.093 184.465 141.278C184.418 141.093 184.368 140.905 184.31 140.717ZM44.121 54.1106V55.3653H57.2184V54.1106H44.121ZM184.31 140.717C184.365 140.905 184.412 141.093 184.465 141.278C184.418 141.093 184.368 140.905 184.31 140.717ZM184.31 140.717C184.365 140.905 184.412 141.093 184.465 141.278C184.418 141.093 184.368 140.905 184.31 140.717Z" fill="#98A8F8"/>
<path d="M135.342 111.562C135.342 111.562 134.187 111.4 134.187 109.714C134.187 108.027 133.36 104.877 133.36 104.877C133.36 104.863 132.645 99.3913 131.657 98.5215C130.668 97.6517 129.399 92.5448 129.399 92.5448C129.399 92.5448 129.182 89.7739 128.739 89.1774C128.296 88.5809 127.698 87.1205 126.816 85.0372C125.933 82.9539 122.254 81.5111 122.254 81.5111C122.254 81.5111 115.601 77.6442 113.715 76.3836C113.544 76.28 113.384 76.1589 113.238 76.0222C112.909 75.5903 111.478 75.5814 111.478 75.5814C111.329 74.6353 111.185 73.5481 111.138 72.5637C111.138 72.4579 111.138 72.3521 111.124 72.2464C113.226 71.001 114.809 69.0375 115.583 66.7163C115.618 66.6046 115.648 66.4871 115.68 66.3754C115.806 66.3339 115.922 66.2664 116.02 66.1773C116.119 66.0883 116.198 65.9796 116.252 65.8583C116.422 65.4792 116.425 65.0355 116.636 64.6829C116.882 64.2657 117.351 64.0424 117.721 63.7279C118.653 62.9346 118.893 61.5976 118.849 60.3811C118.82 59.3967 118.662 58.4036 118.723 57.4251L118.741 57.1783C118.759 57.0313 118.779 56.8844 118.805 56.7434C118.949 56.0147 119.263 55.3271 119.439 54.6042C119.615 53.8814 119.632 53.0674 119.222 52.4445C118.621 51.5307 117.369 51.3485 116.269 51.2545C115.023 51.1487 113.909 51.2868 113.111 50.2495C112.738 49.7074 112.318 49.1991 111.857 48.7304C111.692 48.5776 110.097 47.602 110.097 47.5374C108.541 46.8148 106.776 46.6792 105.128 47.1554C104.301 47.3963 103.521 47.7901 102.682 47.987C100.873 48.416 98.7915 47.9517 97.2551 48.9889C96.399 49.5766 95.8859 50.511 95.405 51.4219C95.0141 52.1722 94.6173 52.9215 94.2146 53.6698C93.5666 54.901 92.9069 56.1528 92.6343 57.5162C92.5769 57.8129 92.5416 58.1134 92.5287 58.4153V58.43C92.5287 58.5387 92.5287 58.6475 92.5287 58.7562V58.8943C92.5287 58.9971 92.5287 59.097 92.5463 59.1881C92.5639 59.2792 92.5609 59.3086 92.5697 59.3703C92.5785 59.432 92.5932 59.5701 92.6108 59.6641C92.6284 59.7582 92.6636 59.9227 92.6988 60.052C92.7134 60.1078 92.7339 60.1607 92.7515 60.2136C92.7808 60.3135 92.816 60.4105 92.8542 60.5075C92.8747 60.5574 92.8952 60.6103 92.9187 60.6603C92.9626 60.7631 93.0154 60.863 93.0682 60.9541C93.0916 60.9952 93.1092 61.0334 93.1327 61.0716C93.2145 61.2083 93.3046 61.3398 93.4024 61.4654C94.0299 62.2499 94.9535 62.7495 95.6366 63.4841C95.6366 63.5134 95.6366 63.5428 95.6366 63.5693C95.6366 63.6515 95.6366 63.7309 95.6366 63.8132C95.6729 65.4515 96.108 67.0561 96.9041 68.4874C97.7003 69.9188 98.8333 71.1335 100.205 72.026C100.205 72.1376 100.219 72.2522 100.225 72.3639C100.282 73.2361 100.272 74.1115 100.193 74.982C100.074 74.8411 99.9242 74.7288 99.7557 74.6536C99.5872 74.5783 99.404 74.5419 99.2196 74.5471C99.0936 74.541 98.9674 74.5518 98.8443 74.5794L98.8179 74.5589V74.5853C98.1728 74.744 97.3783 75.4169 96.6189 77.3298C96.6189 77.3298 94.3084 79.9391 92.5492 79.8304C90.79 79.7216 86.3363 82.5454 86.3363 82.5454C86.3363 82.5454 81.991 85.3722 81.0586 88.2518C80.5375 89.8847 79.9127 91.4825 79.188 93.0355L73.8165 104.128L72.8255 112.928C72.8255 112.928 73.3738 116.842 73.2653 117.439C73.1568 118.035 75.5201 123.416 75.5201 123.416C75.5201 123.416 83.328 137.164 86.5181 137.87L86.7468 137.708C86.8832 137.779 87.028 137.834 87.1778 137.87L87.8345 137.405C87.874 137.923 87.8573 138.443 87.7847 138.957C87.3449 140.314 87.9489 149.174 88.7171 150.91C89.4853 152.647 89.2126 175.416 89.2126 175.416L89.1041 177.426C89.1041 177.426 89.1041 177.491 89.1305 177.603L89.1041 178.079L89.1833 178.12C89.2655 178.757 89.2387 179.404 89.1041 180.033C88.8285 180.914 88.7171 183.406 88.7171 183.406C88.7171 183.406 86.521 197.475 87.5619 200.302C88.6027 203.128 89.4882 206.225 89.4882 206.225C89.4882 206.225 90.5877 209.752 89.541 210.354C88.4942 210.956 85.5182 211.967 86.131 213.436C86.6881 214.794 88.8021 218.432 89.1158 218.963L89.0894 219.243L88.6584 223.923C88.7282 224.541 88.8955 225.145 89.1539 225.71C89.626 226.73 90.5437 227.787 92.2883 227.673C92.5815 227.652 92.9216 227.617 93.25 227.573C96.4429 227.144 100.375 225.716 100.375 225.716C100.171 225.586 99.9835 225.431 99.8177 225.255C99.6608 225.102 99.5364 224.919 99.4522 224.717C99.368 224.515 99.3258 224.298 99.3281 224.079C99.375 223.227 97.7829 219.166 97.3871 218.167C97.3255 218.023 97.2932 217.941 97.2932 217.941C97.2932 217.941 100.923 214.139 100.319 210.768C100.319 210.768 96.3022 208.418 97.6246 207.128C98.9469 205.838 101.31 202.132 101.31 202.132C101.31 202.132 101.419 188.278 101.31 186.209C101.197 184.773 101.265 183.329 101.512 181.91C101.556 181.696 101.609 181.487 101.665 181.281C103.494 181.555 105.34 181.695 107.189 181.702C107.863 181.702 108.549 181.702 109.241 181.66C109.241 181.856 109.25 182.068 109.268 182.295C109.42 185.727 109.704 191.745 109.936 193.981C110.264 197.187 112.079 205.826 112.079 205.826C112.079 205.826 108.617 208.053 112.683 213.542C112.683 213.542 112.683 215.531 112.414 215.819C112.126 216.761 111.894 217.718 111.719 218.687C111.549 219.722 111.478 220.768 111.754 221.311C112.414 222.61 116.372 222.504 116.372 222.504L116.469 222.487C117.216 222.409 117.971 222.481 118.69 222.699C119.41 222.916 120.079 223.274 120.659 223.753C122.163 224.964 127.871 224.432 130.962 224.047C132.173 223.894 132.982 223.753 132.982 223.753C133.021 223.616 133.035 223.472 133.023 223.33C132.991 222.569 132.395 220.9 128.361 219.41C128.361 219.41 124.567 216.854 124.62 214.626H124.54H124.101C124.42 214.609 124.626 214.626 124.626 214.626C124.626 214.626 123.139 209.19 123.746 208.75C124.353 208.309 122.535 202.285 122.535 202.285C122.535 202.285 121.494 192.177 121.438 191.469C121.441 190.861 121.533 190.257 121.711 189.676L121.438 184.135C121.438 184.135 121.386 182.292 121.438 181.693C121.43 181.172 121.387 180.653 121.312 180.138C121.286 179.933 121.26 179.718 121.23 179.507C122.652 179.145 123.576 178.81 123.576 178.81L123.412 159.52C124.62 157.169 124.842 152.012 124.837 148.354C124.837 146.003 124.731 144.264 124.731 144.264L126.382 141.563C126.382 141.563 126.763 138.331 126.159 137.623C125.892 137.302 126.012 136.97 126.232 136.697C126.346 136.606 126.467 136.524 126.593 136.45C126.593 136.45 126.575 136.424 126.555 136.386C126.67 136.289 126.793 136.202 126.921 136.124C126.921 136.124 126.335 135.213 126.86 134.828C127.352 135.163 127.792 135.416 128.126 135.622C128.103 135.836 128.079 135.96 128.079 135.96L128.22 135.666C128.543 135.848 128.739 135.96 128.739 135.96C128.739 135.96 131.325 130.797 131.269 130.036C131.214 129.275 133.029 126.069 133.029 126.069C133.029 126.069 133.249 124.385 134.24 123.68C135.231 122.975 135.008 117.865 135.008 117.865C135.008 117.865 135.283 115.203 135.943 114.116C136.603 113.028 135.342 111.562 135.342 111.562ZM85.8613 109.297L85.9111 110.528C85.6179 110.055 85.4068 109.714 85.4068 109.714L85.8613 109.297Z" fill="url(#paint0_linear_20_131)"/>
<path d="M128.88 133.729L128.247 136.433C128.247 136.433 123.174 133.838 122.259 130.541C121.345 127.244 123.79 125.993 123.79 125.993L128.516 127.999L128.88 133.729Z" fill="white"/>
<path opacity="0.1" d="M128.88 133.729L128.247 136.433C128.247 136.433 123.174 133.838 122.259 130.541C121.345 127.244 123.79 125.993 123.79 125.993L128.516 127.999L128.88 133.729Z" fill="black"/>
<path d="M100.413 225.733C100.413 225.733 95.7217 227.461 92.4965 227.679C90.7842 227.793 89.884 226.741 89.4208 225.728C89.1677 225.164 89.0045 224.564 88.937 223.95L89.3563 219.292L89.5791 216.812L96.4312 215.029L97.4017 218.003L97.4926 218.229C97.8826 219.222 99.4453 223.262 99.3984 224.106C99.3965 224.322 99.4381 224.536 99.5207 224.735C99.6034 224.935 99.7253 225.115 99.8793 225.266C100.037 225.444 100.216 225.601 100.413 225.733Z" fill="white"/>
<path d="M132.457 223.365C132.469 223.507 132.455 223.649 132.416 223.785C132.416 223.785 122.383 225.463 120.33 223.785C119.751 223.295 119.077 222.932 118.35 222.718C117.623 222.505 116.859 222.446 116.108 222.545C116.108 222.545 112.226 222.651 111.578 221.37C111.308 220.832 111.379 219.789 111.546 218.761C111.716 217.797 111.943 216.844 112.226 215.907L112.381 215.784L113.305 215.041L124.118 214.72H124.2C124.148 216.936 127.871 219.478 127.871 219.478C131.827 220.947 132.41 222.607 132.457 223.365Z" fill="white"/>
<path opacity="0.1" d="M132.457 223.365C132.467 223.507 132.452 223.649 132.413 223.785C132.413 223.785 122.383 225.463 120.33 223.785C119.752 223.296 119.078 222.932 118.351 222.719C117.625 222.505 116.862 222.446 116.111 222.545C116.111 222.545 112.226 222.651 111.581 221.37C111.311 220.829 111.379 219.789 111.546 218.761C113.041 218.91 115.401 219.284 116.328 220.174C117.729 221.529 120.104 222.88 121.562 222.986C122.702 223.06 129.525 223.277 132.457 223.365Z" fill="black"/>
<path opacity="0.1" d="M100.413 225.733C100.413 225.733 95.7217 227.461 92.4965 227.679C90.7842 227.793 89.884 226.741 89.4237 225.725C90.617 226.127 92.2736 226.55 93.1444 226.162C94.1765 225.704 97.8357 225.407 99.8881 225.281C100.044 225.452 100.22 225.604 100.413 225.733Z" fill="black"/>
<path d="M107.374 86.4976C103.503 84.9902 98.5247 80.0096 99.7679 77.6824C100.044 77.0951 100.208 76.4613 100.252 75.8136C100.332 74.9343 100.343 74.0501 100.287 73.169C100.2 71.726 100.026 70.2895 99.7679 68.8672C99.7679 68.8672 111.851 69.1405 111.147 70.9241C110.942 71.4471 110.91 72.3551 110.965 73.3717C111.021 74.3884 111.168 75.5373 111.32 76.51C111.531 77.844 111.742 78.8607 111.742 78.8607C111.742 78.8607 111.003 79.8979 110.569 79.9538C110.135 80.0096 112.927 88.6455 107.374 86.4976Z" fill="#CF6F80"/>
<path opacity="0.1" d="M97.4838 218.229L97.3929 218.329C93.7807 213.95 89.412 219.407 89.412 219.407L89.3475 219.292L89.5703 216.812L96.4224 215.029L97.3929 218.003L97.4838 218.229Z" fill="black"/>
<path opacity="0.1" d="M124.203 215.029C124.203 215.029 121.565 214.973 120.157 216.219C118.75 217.465 111.947 216.489 112.241 216.219C112.328 216.085 112.38 215.932 112.393 215.772L113.317 215.029L124.13 214.709C124.171 214.905 124.203 215.029 124.203 215.029Z" fill="black"/>
<path d="M101.979 180.647C101.782 181.134 101.633 181.638 101.533 182.154C101.288 183.566 101.22 185.003 101.331 186.432C101.439 188.489 101.331 202.273 101.331 202.273C101.331 202.273 99.0114 205.949 97.7184 207.245C96.4254 208.541 100.357 210.868 100.357 210.868C100.944 214.218 97.39 218.003 97.39 218.003C93.7777 213.624 89.409 219.084 89.409 219.084C89.409 219.084 87.0341 214.97 86.4418 213.501C85.8496 212.032 88.7611 211.015 89.7843 210.419C90.8076 209.822 89.7345 206.305 89.7345 206.305C89.7345 206.305 88.8695 203.222 87.8433 200.41C86.8171 197.598 88.9751 183.6 88.9751 183.6C88.9751 183.6 89.0865 181.114 89.3533 180.247C89.4879 179.622 89.5147 178.978 89.4325 178.343C89.4149 178.128 89.3944 177.949 89.3797 177.829C89.3651 177.708 89.3533 177.652 89.3533 177.652L89.3944 177.582L90.8604 174.843C90.8604 174.843 102.682 178.922 101.979 180.647Z" fill="#98A8F8"/>
<path d="M124.203 214.706C124.203 214.706 121.564 214.65 120.157 215.881C118.75 217.112 111.947 216.151 112.241 215.881C112.534 215.611 112.51 213.61 112.51 213.61C108.52 208.15 111.924 205.935 111.924 205.935C111.924 205.935 110.141 197.34 109.819 194.152C109.593 191.924 109.315 185.939 109.165 182.521C109.1 181.052 109.062 180.041 109.062 180.041L112.323 179.383L112.742 179.298L120.606 177.717C120.606 177.717 120.823 179.186 120.969 180.388C121.042 180.901 121.084 181.418 121.092 181.937C121.04 182.524 121.092 184.364 121.092 184.364L121.359 189.879C121.185 190.458 121.095 191.058 121.092 191.663C121.145 192.365 122.168 202.42 122.168 202.42C122.168 202.42 123.948 208.42 123.341 208.852C122.734 209.284 124.203 214.706 124.203 214.706Z" fill="#98A8F8"/>
<path opacity="0.1" d="M111.147 70.9241C110.942 71.4471 110.91 72.3551 110.965 73.3717C109.347 74.3485 107.486 74.8478 105.597 74.8125C103.708 74.7772 101.868 74.2085 100.287 73.1719C100.2 71.7279 100.027 70.2904 99.7679 68.8672C99.7679 68.8672 111.851 69.1346 111.147 70.9241Z" fill="black"/>
<path d="M115.818 64.4302C115.82 65.4891 115.654 66.5415 115.325 67.5478C114.591 69.8027 113.084 71.7246 111.072 72.9741C109.061 74.2235 106.673 74.72 104.331 74.3757C101.989 74.0315 99.8444 72.8687 98.2754 71.0928C96.7064 69.317 95.8143 67.0424 95.7569 64.6711C95.7569 64.5889 95.7569 64.5125 95.7569 64.4302C95.7341 63.0955 95.9767 61.7695 96.4707 60.5298C96.9646 59.29 97.6999 58.1612 98.6337 57.2093C99.5675 56.2573 100.681 55.5012 101.91 54.9851C103.138 54.4689 104.457 54.2031 105.789 54.2031C107.121 54.2031 108.44 54.4689 109.668 54.9851C110.896 55.5012 112.01 56.2573 112.944 57.2093C113.878 58.1612 114.613 59.29 115.107 60.5298C115.601 61.7695 115.843 63.0955 115.821 64.4302H115.818Z" fill="#CF6F80"/>
<path opacity="0.1" d="M107.374 86.4975C103.503 84.9901 98.5247 80.0096 99.7679 77.6824C100.044 77.0951 100.208 76.4613 100.252 75.8135L105.55 80.177L108.828 82.8716L111.32 76.5129C111.531 77.8469 111.742 78.8636 111.742 78.8636C111.742 78.8636 111.003 79.9008 110.569 79.9567C110.135 80.0125 112.927 88.6455 107.374 86.4975Z" fill="black"/>
<path d="M121.075 105.782L116.65 180.271L110.88 180.65L95.9386 137.458L98.3898 86.1802L98.9058 75.3463L105.55 80.8147L108.831 83.5092L111.396 76.9654L116.167 81.132L121.075 105.782Z" fill="#98A8F8"/>
<path opacity="0.1" d="M101.979 180.647C101.782 181.134 101.633 181.638 101.533 182.154C97.3342 181.504 93.2564 180.228 89.4354 178.367L89.3563 178.325L89.3826 177.852L89.3973 177.605L90.8633 174.867C90.8633 174.867 102.682 178.922 101.979 180.647Z" fill="black"/>
<path opacity="0.1" d="M112.39 182.166C111.317 182.349 110.234 182.472 109.147 182.536C109.083 181.067 109.045 180.056 109.045 180.056L112.305 179.398L112.39 182.166Z" fill="black"/>
<path opacity="0.1" d="M120.952 180.403C118.867 180.946 115.648 181.558 112.766 181.176L112.724 179.313L120.588 177.732C120.588 177.732 120.805 179.186 120.952 180.403Z" fill="black"/>
<path opacity="0.1" d="M112.713 181.516C100.691 183.573 89.6817 177.676 89.6817 177.676L89.7873 175.678C89.7873 175.678 90.0599 153.026 89.3035 151.289C88.547 149.553 87.9577 140.746 88.3858 139.395C88.8138 138.043 86.823 117.774 86.823 117.774L86.5005 109.546L74.6962 104.754L79.9738 93.729C80.6866 92.1832 81.2997 90.5932 81.8092 88.9688C82.727 86.1068 86.9872 83.2947 86.9872 83.2947C86.9872 83.2947 91.3559 80.4856 93.0829 80.5914C94.8098 80.6972 97.0733 78.1055 97.0733 78.1055C98.7446 73.836 100.258 75.7695 100.258 75.7695C100.258 75.9722 100.258 75.7695 100.175 76.4012C99.589 81.088 109.658 95.8975 109.801 96.159L110.76 119.566L111.731 149.188L112.713 181.516Z" fill="black"/>
<path d="M112.39 181.516C100.369 183.573 89.3563 177.676 89.3563 177.676L89.4647 175.678C89.4647 175.678 89.7374 153.026 88.978 151.289C88.2186 149.553 87.6322 140.746 88.0632 139.395C88.4942 138.043 86.5005 117.774 86.5005 117.774L86.175 109.546L74.3648 104.736L79.6425 93.7113C80.3538 92.1649 80.9668 90.575 81.4779 88.9511C82.3927 86.0891 86.6559 83.2771 86.6559 83.2771C86.6559 83.2771 91.0246 80.468 92.7486 80.5738C94.4726 80.6795 96.7391 78.0879 96.7391 78.0879C98.4133 73.8184 100.258 75.7518 100.258 75.7518C100.258 75.9546 100.082 76.0457 100.175 76.3836C101.465 80.9293 109.335 95.8799 109.479 96.1414L110.449 119.549L111.42 149.171L112.39 181.516Z" fill="white"/>
<path opacity="0.1" d="M109.15 96.8084C107.857 96.2677 101.008 88.431 101.008 88.431V86.6474C100.759 86.0597 99.2782 86.4182 98.0761 86.8296L98.5921 75.9957L99.1785 76.4835C100.463 81.0263 109.001 96.5469 109.15 96.8084Z" fill="black"/>
<path d="M109.476 96.159C108.18 95.6183 101.331 87.7816 101.331 87.7816V85.998C101.081 85.4104 99.6007 85.7688 98.3986 86.1802L98.9176 75.3463L99.504 75.8341C100.791 80.3769 109.332 95.9004 109.476 96.159Z" fill="white"/>
<path opacity="0.1" d="M89.6817 135.243C89.843 135.243 98.0409 134.379 98.0409 134.379C98.0409 134.379 103.005 144.161 102.679 146.541C102.354 148.921 101.765 151.028 99.7679 150.655C97.7712 150.281 89.022 150.948 89.022 150.948L89.6817 135.243Z" fill="black"/>
<path d="M89.3563 134.593C89.5175 134.593 97.7155 133.729 97.7155 133.729C97.7155 133.729 102.676 143.514 102.354 145.891C102.031 148.269 101.436 150.378 99.4424 150.005C97.4486 149.632 88.6966 150.299 88.6966 150.299L89.3563 134.593Z" fill="white"/>
<path d="M95.534 130.001C95.534 130.001 103.058 134.053 103.219 135.29C103.38 136.527 99.3896 134.749 98.5276 134.534C97.9602 134.397 97.3827 134.307 96.8007 134.264L91.051 134.42L95.534 130.001Z" fill="#CF6F80"/>
<path opacity="0.1" d="M107.051 97.3138C107.488 97.3138 107.843 96.9586 107.843 96.5204C107.843 96.0823 107.488 95.7271 107.051 95.7271C106.614 95.7271 106.259 96.0823 106.259 96.5204C106.259 96.9586 106.614 97.3138 107.051 97.3138Z" fill="black"/>
<path d="M107.051 96.9906C107.488 96.9906 107.843 96.6354 107.843 96.1972C107.843 95.759 107.488 95.4038 107.051 95.4038C106.614 95.4038 106.259 95.759 106.259 96.1972C106.259 96.6354 106.614 96.9906 107.051 96.9906Z" fill="#3F3D56"/>
<path opacity="0.1" d="M108.508 131.658C108.945 131.658 109.3 131.303 109.3 130.864C109.3 130.426 108.945 130.071 108.508 130.071C108.071 130.071 107.717 130.426 107.717 130.864C107.717 131.303 108.071 131.658 108.508 131.658Z" fill="black"/>
<path d="M108.508 131.332C108.945 131.332 109.3 130.976 109.3 130.538C109.3 130.1 108.945 129.745 108.508 129.745C108.071 129.745 107.717 130.1 107.717 130.538C107.717 130.976 108.071 131.332 108.508 131.332Z" fill="#3F3D56"/>
<path opacity="0.1" d="M107.84 114.486C108.277 114.486 108.631 114.131 108.631 113.692C108.631 113.254 108.277 112.899 107.84 112.899C107.402 112.899 107.048 113.254 107.048 113.692C107.048 114.131 107.402 114.486 107.84 114.486Z" fill="black"/>
<path d="M107.84 114.163C108.277 114.163 108.631 113.807 108.631 113.369C108.631 112.931 108.277 112.576 107.84 112.576C107.402 112.576 107.048 112.931 107.048 113.369C107.048 113.807 107.402 114.163 107.84 114.163Z" fill="#3F3D56"/>
<path d="M126.089 134.1C126.089 134.1 126.628 134.911 126.089 135.29C125.549 135.669 126.141 136.585 126.141 136.585C126.141 136.585 124.796 137.376 125.388 138.087C125.98 138.798 125.605 142.01 125.605 142.01L123.986 144.695C123.986 144.695 124.083 146.426 124.089 148.765C124.089 152.415 123.875 157.545 122.69 159.884L122.855 179.075C122.855 179.075 117.187 181.149 112.443 180.517L111.739 149.723C111.739 149.723 112.766 132.26 113.144 128.91C113.365 127.171 113.455 125.418 113.413 123.665C113.413 123.665 113.252 118.423 112.71 115.99C112.71 115.99 112.123 105.45 112.065 102.532C112.038 101.137 112.112 97.064 112.194 93.1912C112.285 88.957 112.387 84.9637 112.387 84.9637L111.317 76.4776C111.317 76.4776 112.387 76.3689 112.71 76.8009C112.854 76.9361 113.011 77.0572 113.179 77.1623C115.026 78.4141 121.553 82.2633 121.553 82.2633C121.553 82.2633 125.165 83.7032 126.03 85.7659C126.895 87.8287 127.496 89.292 127.915 89.8797C128.335 90.4674 128.563 93.2294 128.563 93.2294C128.563 93.2294 129.806 98.3129 130.777 99.1738C131.747 100.035 132.457 105.512 132.457 105.512L123.881 112.27C123.881 112.27 123.127 123.513 122.966 123.947C122.805 124.382 126.089 134.1 126.089 134.1Z" fill="white"/>
<path d="M126.414 134.1C126.414 134.1 126.951 134.911 126.414 135.29C125.878 135.669 126.464 136.585 126.464 136.585C126.464 136.585 125.127 137.385 125.713 138.096C126.3 138.807 125.93 142.019 125.93 142.019L124.312 144.704C124.312 144.704 124.409 146.435 124.417 148.774C124.417 152.423 124.203 157.554 123.019 159.893L123.18 179.083C123.18 179.083 117.504 181.158 112.766 180.526L112.065 149.732C112.065 149.732 113.091 132.269 113.469 128.919C113.691 127.18 113.78 125.427 113.736 123.674C113.736 123.674 113.575 118.432 113.035 115.999C113.035 115.999 112.449 105.459 112.387 102.541C112.361 101.145 112.437 97.0729 112.516 93.2C112.607 88.9658 112.71 84.9725 112.71 84.9725L111.297 76.3719C111.297 76.3719 112.71 76.3719 113.035 76.8097C113.178 76.9465 113.336 77.0677 113.504 77.1711C115.352 78.4229 121.881 82.2722 121.881 82.2722C121.881 82.2722 125.49 83.712 126.355 85.7747C127.22 87.8375 127.821 89.3008 128.244 89.8885C128.666 90.4762 128.889 93.2382 128.889 93.2382C128.889 93.2382 130.132 98.3217 131.102 99.1826C132.073 100.044 132.774 105.509 132.774 105.509L124.197 112.267C124.197 112.267 123.444 123.51 123.28 123.944C123.116 124.379 126.414 134.1 126.414 134.1Z" fill="white"/>
<path opacity="0.1" d="M116.143 87.4672L116.917 89.7298L112.842 93.8435C112.933 89.6122 113.035 85.616 113.035 85.616L111.622 77.0154C111.622 77.0154 113.035 77.0153 113.361 77.4532C113.503 77.5896 113.661 77.7099 113.83 77.8117L117.295 87.8316L116.143 87.4672Z" fill="black"/>
<path d="M115.818 86.8178L116.595 89.0804L112.519 93.1942C112.61 88.9599 112.713 84.9667 112.713 84.9667L111.297 76.366C111.297 76.366 112.713 76.366 113.035 76.8038C113.179 76.9398 113.336 77.0609 113.504 77.1652L116.973 87.1822L115.818 86.8178Z" fill="white"/>
<path opacity="0.1" d="M115.818 64.4302C115.82 65.4891 115.654 66.5415 115.325 67.5478C115.27 67.5565 115.213 67.5539 115.159 67.5403C115.104 67.5267 115.053 67.5023 115.008 67.4685C114.932 64.8239 113.633 62.341 112.035 60.2283C111.587 59.5904 111.043 59.0255 110.423 58.5534C109.796 58.0815 109.016 57.8605 108.236 57.9334C107.356 58.0539 106.579 58.6533 105.691 58.7297C104.518 58.8267 103.468 58.0127 102.304 57.9716C101.831 57.9761 101.364 58.0817 100.935 58.2813C100.506 58.481 100.124 58.7701 99.8148 59.1293C99.2033 59.8543 98.7489 60.6989 98.4807 61.6093C98.0197 62.9899 97.7686 64.4322 97.736 65.8876C97.7213 66.7104 97.6421 67.7418 96.8798 68.0415C96.9372 67.4364 96.8686 66.826 96.6783 66.2488C96.488 65.6717 96.1803 65.1405 95.7745 64.6888L95.7569 64.6711C95.7569 64.5889 95.7569 64.5125 95.7569 64.4302C95.7341 63.0955 95.9767 61.7695 96.4707 60.5298C96.9646 59.29 97.6999 58.1612 98.6337 57.2093C99.5675 56.2573 100.681 55.5012 101.91 54.9851C103.138 54.4689 104.457 54.2031 105.789 54.2031C107.121 54.2031 108.44 54.4689 109.668 54.9851C110.896 55.5012 112.01 56.2573 112.944 57.2093C113.878 58.1612 114.613 59.29 115.107 60.5298C115.601 61.7695 115.843 63.0955 115.821 64.4302H115.818Z" fill="black"/>
<path d="M109.942 48.4659C108.418 47.7476 106.685 47.6118 105.069 48.0839C104.257 48.3249 103.492 48.7157 102.668 48.9125C100.908 49.3386 98.856 48.8773 97.346 49.9086C96.5075 50.4963 96.0031 51.4249 95.534 52.327L94.3612 54.566C93.722 55.7913 93.077 57.0372 92.8102 58.3859C92.5434 59.7346 92.7046 61.245 93.5578 62.3293C94.1794 63.1197 95.0972 63.6163 95.7715 64.3597C96.1755 64.8119 96.482 65.3428 96.6717 65.9192C96.8614 66.4956 96.9303 67.1051 96.874 67.7095C97.6392 67.4156 97.7125 66.3813 97.7301 65.5585C97.7628 64.1031 98.0138 62.6608 98.4748 61.2802C98.7424 60.3695 99.1968 59.5248 99.8089 58.8002C100.118 58.4413 100.5 58.1524 100.929 57.9528C101.358 57.7532 101.825 57.6474 102.298 57.6425C103.471 57.6836 104.524 58.4946 105.685 58.3977C106.564 58.3242 107.344 57.7218 108.23 57.6043C109.01 57.5303 109.791 57.7514 110.417 58.2243C111.037 58.6957 111.58 59.2607 112.027 59.8992C113.628 62.0119 114.926 64.489 115.003 67.1394C115.334 67.3833 115.812 67.0659 115.976 66.6898C116.14 66.3137 116.146 65.873 116.354 65.5145C116.595 65.1002 117.055 64.8798 117.416 64.5683C118.33 63.7779 118.559 62.4468 118.524 61.2391C118.489 60.0314 118.254 58.8061 118.483 57.619C118.621 56.8903 118.932 56.2086 119.102 55.4887C119.272 54.7688 119.292 53.9607 118.891 53.3407C118.304 52.4298 117.07 52.2506 115.994 52.1653C114.771 52.0596 113.677 52.1947 112.897 51.1633C112.531 50.6251 112.119 50.1198 111.666 49.653C111.511 49.5002 109.942 48.5305 109.942 48.4659Z" fill="#512E4E"/>
<path opacity="0.1" d="M78.0738 110.431L75.0099 104.754L74.0394 113.513C74.0394 113.513 74.5789 117.404 74.4704 118C74.3619 118.597 76.6811 123.944 76.6811 123.944C76.6811 123.944 84.3425 137.62 87.471 138.325L98.0409 130.756L95.2379 127.188C95.2379 127.188 94.2674 126.809 94.024 127.188C94.024 127.188 88.8197 118.215 88.2802 117.565C87.7407 116.916 87.8463 115.62 87.8463 115.62C87.8463 115.62 87.037 114.756 87.3068 113.945C87.5765 113.134 85.744 110.322 85.744 110.322L87.4153 108.756L78.0738 110.431Z" fill="black"/>
<path d="M75.1711 104.107L74.3619 104.754L73.3914 113.513C73.3914 113.513 73.9309 117.404 73.8224 118C73.7139 118.597 76.0361 123.944 76.0361 123.944C76.0361 123.944 83.6945 137.62 86.823 138.325L97.3959 130.756L94.5899 127.188C94.5899 127.188 93.6194 126.809 93.3761 127.188C93.3761 127.188 88.1717 118.215 87.6322 117.565C87.0927 116.916 87.2012 115.62 87.2012 115.62C87.2012 115.62 86.392 114.756 86.6617 113.945C86.9315 113.134 85.096 110.322 85.096 110.322L86.7673 108.756L75.1711 104.107Z" fill="white"/>
<path opacity="0.1" d="M125.388 138.422C125.974 139.136 125.605 142.342 125.605 142.342L123.986 145.027C123.986 145.027 124.083 146.761 124.089 149.097L121.368 149.949C121.122 150.026 120.861 150.043 120.608 149.999C120.354 149.954 120.114 149.849 119.909 149.693C119.704 149.537 119.539 149.334 119.428 149.101C119.317 148.868 119.264 148.612 119.272 148.354L119.741 133.189L126.089 135.622C125.549 135.998 126.141 136.92 126.141 136.92C126.141 136.92 124.796 137.708 125.388 138.422Z" fill="black"/>
<path d="M125.713 138.096C126.3 138.81 125.93 142.019 125.93 142.019L124.312 144.704C124.312 144.704 124.409 146.435 124.417 148.774L121.647 149.641C121.406 149.716 121.151 149.732 120.902 149.688C120.654 149.644 120.42 149.542 120.219 149.389C120.018 149.236 119.857 149.037 119.748 148.809C119.639 148.581 119.587 148.33 119.594 148.078L120.066 132.865L126.417 135.298C125.875 135.675 126.467 136.594 126.467 136.594C126.467 136.594 125.127 137.385 125.713 138.096Z" fill="white"/>
<path d="M127.816 130.867C127.816 130.867 127.385 133.626 126.306 133.788C125.227 133.95 124.743 138.252 123.667 138.099C122.591 137.946 123.303 134.1 123.341 133.353C123.379 132.607 122.168 129.516 123.074 128.813C123.98 128.111 126.848 128.813 126.848 128.813L127.816 130.867Z" fill="#CF6F80"/>
<path opacity="0.1" d="M130.111 109.62L132.146 105.506C132.146 105.506 132.955 108.641 132.955 110.316C132.955 111.991 134.087 112.156 134.087 112.156C134.087 112.156 135.327 113.625 134.674 114.694C134.02 115.764 133.756 118.426 133.756 118.426C133.756 118.426 133.97 123.507 132.999 124.209C132.029 124.911 131.827 126.589 131.827 126.589C131.827 126.589 130.044 129.777 130.1 130.535C130.155 131.293 127.619 136.427 127.619 136.427C127.619 136.427 128.859 130.048 121.632 127.291C121.632 127.291 121.576 125.126 122.116 124.532C122.655 123.939 123.497 123.668 122.969 120.668C122.441 117.668 122.816 114.083 122.816 113.363C122.816 112.643 124.435 108.154 124.435 108.154L130.111 109.62Z" fill="black"/>
<path d="M130.991 104.918L132.768 105.506C132.768 105.506 133.58 108.641 133.58 110.316C133.58 111.991 134.712 112.156 134.712 112.156C134.712 112.156 135.952 113.625 135.298 114.694C134.644 115.764 134.383 118.426 134.383 118.426C134.383 118.426 134.597 123.507 133.627 124.209C132.656 124.911 132.439 126.589 132.439 126.589C132.439 126.589 130.66 129.777 130.715 130.535C130.771 131.293 128.232 136.427 128.232 136.427C128.232 136.427 129.475 130.048 122.245 127.291C122.245 127.291 122.192 125.126 122.731 124.532C123.271 123.939 124.112 123.668 123.585 120.668C123.057 117.668 123.432 114.083 123.432 113.363C123.432 112.643 125.051 108.154 125.051 108.154L130.991 104.918Z" fill="white"/>
<path opacity="0.1" d="M91.7459 211.544C91.7459 211.544 94.5782 209.76 96.4371 211.056C98.296 212.352 91.7459 211.544 91.7459 211.544Z" fill="black"/>
<path opacity="0.1" d="M113.754 206.029C113.754 206.029 116.26 205.705 118.366 207.977C120.471 210.248 113.754 206.029 113.754 206.029Z" fill="black"/>
<g opacity="0.1">
<path d="M117.422 63.9248C117.061 64.2363 116.598 64.4596 116.357 64.8739C116.152 65.2295 116.146 65.6673 115.982 66.0493C115.818 66.4313 115.34 66.7427 115.009 66.5018C114.932 63.8572 113.63 61.3743 112.033 59.2586C111.586 58.6202 111.043 58.0551 110.423 57.5837C109.795 57.1109 109.014 56.8898 108.233 56.9637C107.353 57.0842 106.579 57.6837 105.691 57.7571C104.518 57.857 103.465 57.0431 102.301 57.0019C101.828 57.0067 101.362 57.1127 100.933 57.3128C100.504 57.513 100.123 57.8028 99.8148 58.1626C99.2027 58.8861 98.7483 59.7298 98.4807 60.6397C98.02 62.0203 97.7689 63.4625 97.736 64.918C97.7184 65.7378 97.6421 66.7604 96.8857 67.0659C96.9033 67.283 96.9033 67.5012 96.8857 67.7183C97.648 67.4244 97.7242 66.3901 97.7418 65.5674C97.7745 64.1119 98.0256 62.6696 98.4866 61.2891C98.7542 60.3783 99.2086 59.5337 99.8206 58.8091C100.129 58.4502 100.511 58.1613 100.939 57.9617C101.368 57.762 101.834 57.6562 102.307 57.6513C103.48 57.6925 104.535 58.5035 105.696 58.4065C106.576 58.333 107.356 57.7307 108.238 57.6131C109.02 57.5392 109.801 57.7603 110.429 58.2331C111.049 58.7045 111.592 59.2695 112.038 59.908C113.636 62.0207 114.938 64.4978 115.014 67.1482C115.346 67.3921 115.824 67.0748 115.988 66.6986C116.152 66.3225 116.158 65.8818 116.363 65.5233C116.604 65.109 117.067 64.8886 117.427 64.5771C118.342 63.7867 118.571 62.4556 118.536 61.2479C118.536 61.2097 118.536 61.1715 118.536 61.1363C118.48 62.1823 118.201 63.249 117.422 63.9248Z" fill="black"/>
<path d="M95.7774 63.7162C95.103 62.9728 94.1824 62.4762 93.5637 61.6887C93.0428 60.9916 92.7453 60.1524 92.7105 59.2821C92.6182 60.3696 92.9212 61.4539 93.5637 62.3351C94.1824 63.1256 95.103 63.6221 95.7774 64.3656C96.4249 65.0927 96.8136 66.0145 96.8828 66.9866C96.9276 66.395 96.8529 65.8004 96.6629 65.2384C96.473 64.6764 96.1718 64.1587 95.7774 63.7162Z" fill="black"/>
<path d="M119.107 54.8452C118.934 55.5651 118.627 56.2497 118.486 56.9755C118.403 57.4605 118.372 57.9531 118.395 58.4447C118.405 58.1647 118.435 57.8858 118.486 57.6102C118.627 56.8815 118.934 56.1998 119.107 55.4799C119.208 55.0828 119.241 54.6714 119.204 54.2634C119.186 54.4594 119.154 54.6538 119.107 54.8452Z" fill="black"/>
</g>
<path opacity="0.1" d="M38.9167 223.491C54.6953 223.491 67.4863 221.433 67.4863 218.893C67.4863 216.353 54.6953 214.294 38.9167 214.294C23.1381 214.294 10.3471 216.353 10.3471 218.893C10.3471 221.433 23.1381 223.491 38.9167 223.491Z" fill="#98A8F8"/>
<path d="M39.8374 130.8H37.999V172.281H39.8374V130.8Z" fill="#535461"/>
<path d="M51.3895 172.155L51.2752 174.024L51.111 176.668L51.0435 177.767L50.8823 180.412L50.8119 181.511L50.6477 184.155L48.7947 214.147C48.7141 215.438 48.146 216.649 47.2058 217.534C46.2657 218.42 45.0242 218.913 43.734 218.913H34.0994C32.8095 218.913 31.5684 218.42 30.6287 217.534C29.689 216.649 29.1215 215.438 29.0417 214.147L27.1974 184.135L27.0332 181.49L26.9658 180.391L26.8016 177.747L26.7342 176.648L26.57 174.003L26.4527 172.134C26.4323 171.774 26.4855 171.414 26.609 171.076C26.7324 170.738 26.9236 170.428 27.1707 170.167C27.4178 169.905 27.7156 169.697 28.0459 169.554C28.3762 169.412 28.732 169.339 29.0915 169.34H48.7976C49.1557 169.343 49.5094 169.419 49.8369 169.565C50.1643 169.71 50.4586 169.921 50.7014 170.185C50.9443 170.449 51.1307 170.76 51.249 171.099C51.3674 171.437 51.4152 171.797 51.3895 172.155Z" fill="#3F3D56"/>
<path d="M51.2752 174.024L51.111 176.659H26.7224L26.5582 174.024H51.2752Z" fill="#9D9CB5"/>
<path d="M51.0435 177.758L50.8823 180.397H26.9541L26.7899 177.758H51.0435Z" fill="#9D9CB5"/>
<path d="M50.8119 181.499L50.6507 184.135H27.1857L27.0215 181.499H50.8119Z" fill="#9D9CB5"/>
<path d="M23.7523 146.347C34.4571 154.11 38.9255 166.251 38.9255 166.251C38.9255 166.251 26.0246 165.808 15.3169 158.045C4.60914 150.281 0.149536 138.143 0.149536 138.143C0.149536 138.143 13.0446 138.584 23.7523 146.347Z" fill="#98A8F8"/>
<path d="M0.140739 138.143C0.140739 138.143 13.5342 145.592 17.8296 151.759C22.125 157.927 38.9255 166.251 38.9255 166.251" stroke="#535461" stroke-width="2" stroke-miterlimit="10"/>
<path d="M30.6631 130.709C36.489 134.931 38.9255 141.54 38.9255 141.54C38.9255 141.54 31.9033 141.299 26.0745 137.076C20.2456 132.854 17.815 126.242 17.815 126.242C17.815 126.242 24.8342 126.483 30.6631 130.709Z" fill="#98A8F8"/>
<path d="M17.815 126.242C17.815 126.242 25.104 130.297 27.4408 133.653C29.7776 137.009 38.9255 141.54 38.9255 141.54" stroke="#535461" stroke-width="2" stroke-miterlimit="10"/>
<path d="M47.3844 141.205C40.6906 148.577 39.2744 158.212 39.2744 158.212C39.2744 158.212 48.7126 155.891 55.4005 148.515C62.0885 141.14 63.5105 131.508 63.5105 131.508C63.5105 131.508 54.0782 133.832 47.3844 141.205Z" fill="#98A8F8"/>
<path d="M63.5164 131.511C63.5164 131.511 54.7965 139.068 52.5799 144.275C50.3633 149.482 39.2744 158.212 39.2744 158.212" stroke="#535461" stroke-width="2" stroke-miterlimit="10"/>
<path d="M293.105 138.61C293.105 138.61 288.265 114.474 290.118 111.471C290.118 111.471 290.185 108.68 290.074 105.121C290.074 104.986 290.074 104.851 290.074 104.713C290.4 104.931 290.739 105.127 291.091 105.3C292.798 106.179 294.758 106.433 296.632 106.017L295.166 104.381C294.815 103.99 294.448 103.567 294.372 103.05C294.296 102.532 294.507 102.071 294.689 101.61C296.081 98.0836 296.155 93.6496 293.472 90.958C291.205 88.6955 290.654 85.7747 288.194 83.709C286.397 82.1957 285.409 79.9773 284.476 77.8322C283.688 76.0192 282.893 74.1916 282.442 72.2698C282.09 70.7683 281.949 69.2139 281.465 67.7477C280.981 66.2814 280.075 64.8563 278.659 64.201C278.155 63.9689 277.595 63.8366 277.135 63.5281C276.531 63.1197 276.167 62.4556 275.73 61.8738C273.511 58.9354 266.078 60.6661 262.559 61.8591C261.603 62.1595 260.717 62.6514 259.956 63.3048L259.988 63.2519C260.015 63.2078 260.047 63.1638 260.076 63.1197C259.691 63.4318 259.358 63.8038 259.091 64.2216C258.578 65.0355 258.364 65.9846 257.936 66.8661C257.42 67.9093 254.549 70.8212 255.784 71.9936C255.87 72.0724 255.969 72.1359 256.077 72.1817C256.54 72.375 257.05 72.4261 257.543 72.3286L257.49 72.455C257.068 73.4894 256.852 74.5963 256.854 75.7136C256.854 80.5414 260.827 84.4554 265.732 84.4554C266.654 84.4563 267.571 84.3145 268.45 84.0352C268.47 84.1468 268.488 84.2585 268.509 84.3702C268.509 84.4142 268.523 84.4583 268.529 84.5024L268.374 84.7198C268.366 84.7064 268.357 84.6936 268.347 84.6816L263.744 91.1285C263.04 91.6251 258.988 94.5635 258.76 96.7673C258.519 99.1797 258.279 102.003 258.279 102.003L258.247 102.609C258.045 102.777 257.81 102.9 257.557 102.968C257.304 103.037 257.039 103.05 256.78 103.005C255.344 102.77 255.344 108.295 255.344 108.295C255.344 108.295 254.388 109.176 253.731 108.412C253.074 107.648 251.339 110.237 251.339 110.237L240.461 110.707L240.212 110.722L239.625 108.903C239.562 108.711 239.426 108.552 239.247 108.46C239.067 108.368 238.859 108.351 238.666 108.412C238.621 108.427 238.577 108.446 238.535 108.468L238.493 108.491L238.417 108.544L238.379 108.58C238.358 108.599 238.339 108.619 238.32 108.641L238.285 108.682L238.268 108.7C238.2 108.794 238.155 108.902 238.137 109.017C238.119 109.131 238.127 109.248 238.162 109.358L238.666 110.919C236.567 111.342 234.421 112.535 236.171 115.82L227.299 114.177L230.169 116.593L244.988 119.657C244.791 120.01 244.92 120.521 245.533 121.241C248.172 124.347 252.981 125.19 254.916 125.408C255.427 126.553 256.065 127.638 256.819 128.64L256.651 131.734C256.651 131.734 251.752 155.318 250.855 156.514C251.308 155.999 251.722 155.452 252.095 154.877C250.673 159.722 248.685 166.354 248.163 167.348C247.325 168.934 246.548 175.355 247.504 175.766C247.797 175.892 248.635 175.831 249.832 175.74V176.271L249.779 196.426C249.779 196.426 250.019 208.788 249.36 209.966C248.7 211.144 248.524 213.616 248.524 213.616C248.524 213.616 245.885 218.49 243.795 220.45C243.78 220.465 243.765 220.479 243.748 220.491L243.683 220.033C243.683 220.033 241.17 223.212 235.611 223.033C235.611 223.033 232.266 225.213 237.227 225.331C242.188 225.448 248.524 225.155 248.524 225.155C248.524 225.155 252.948 218.396 256.654 219.278V224.399H257.789V219.196C258.315 218.848 258.766 218.398 259.113 217.871C259.46 217.344 259.697 216.752 259.809 216.131C259.906 215.49 259.835 214.836 259.603 214.231C259.37 213.627 258.985 213.094 258.484 212.684C258.259 212.48 258.079 212.232 257.954 211.955C257.829 211.678 257.763 211.378 257.76 211.074L257.719 211.109C257.719 211.006 257.692 210.9 257.681 210.792C257.355 208.147 256.948 202.691 258.387 198.653C260.36 193.117 260.959 185.407 259.522 180.817C259.058 179.35 258.678 177.858 258.381 176.348C258.346 176.157 258.314 175.975 258.285 175.804C259.267 175.937 260.239 176.134 261.196 176.392C264.524 177.312 271.804 177.482 278.02 177.432C278.035 177.603 278.052 177.782 278.073 177.961C278.184 179.207 278.415 180.439 278.765 181.64C279.545 183.991 279.902 194.354 279.902 194.354C279.902 194.354 280.908 202.876 280.36 206.343C280.067 208.271 279.773 210.207 279.606 212.152V212.19C279.606 212.19 277.958 216.892 276.753 219.445C276.724 219.51 276.692 219.575 276.663 219.636C276.341 219.666 276.025 219.736 275.721 219.845C275.721 219.845 274.106 223.077 272.496 223.612C270.886 224.147 271.42 225.907 275.065 225.26C278.709 224.614 284.212 224.085 284.212 224.085L284.45 220.788L285.57 219.384L285.277 222.672L286.47 222.437L286.312 218.437L288.144 216.14C288.144 216.14 290.358 214.165 287.068 210.28V210.366C287.033 210.31 287.001 210.251 286.963 210.195V210.178C286.417 209.331 285.983 207.753 286.778 204.953C288.215 199.893 289.05 195.3 289.05 195.3C289.05 195.3 292.258 182.997 288.402 177.176H288.572C288.177 176.357 287.898 175.487 287.743 174.591C287.723 174.485 287.705 174.376 287.69 174.265C290.543 174.1 293.343 173.583 295.627 172.466C295.618 172.454 294.243 143.259 293.105 138.61ZM256.886 118.247V118.306L256.3 118.335L256.886 118.247ZM254.875 118.526C254.778 118.547 254.688 118.591 254.611 118.652C254.359 119.01 254.2 119.425 254.15 119.86L253.236 119.654C253.236 119.654 252.594 119.516 251.67 119.361L251.233 118.92C252.435 118.82 253.684 118.673 254.875 118.526Z" fill="url(#paint1_linear_20_131)"/>
<path d="M285.142 218.479L284.793 222.642L285.963 222.407L285.787 217.891L285.142 218.479Z" fill="#1D2366"/>
<path d="M258.452 198.709C257.041 202.735 257.44 208.168 257.757 210.806C257.874 211.782 257.983 212.376 257.983 212.376C257.983 212.376 255.875 217.189 255.699 217.371C255.523 217.553 249.494 221.241 249.494 221.241L245.281 223.706C245.281 223.706 241.006 221.828 243.056 221.182C243.474 221.013 243.852 220.756 244.161 220.427C246.213 218.473 248.791 213.616 248.791 213.616C248.791 213.616 248.967 211.15 249.612 209.978C250.257 208.805 250.022 196.485 250.022 196.485L250.072 176.401V173.783L258.091 173.841C258.142 174.73 258.257 175.614 258.437 176.486C258.725 177.991 259.098 179.478 259.554 180.941C260.967 185.521 260.381 193.194 258.452 198.709Z" fill="#FFB0B1"/>
<path opacity="0.1" d="M257.983 212.375C257.983 212.375 255.875 217.189 255.699 217.371C255.523 217.553 249.494 221.241 249.494 221.241L245.281 223.706C245.281 223.706 241.006 221.828 243.056 221.182C243.474 221.013 243.852 220.756 244.161 220.427L244.343 221.711L245.747 221.652L257.769 210.812C257.874 211.782 257.983 212.375 257.983 212.375Z" fill="black"/>
<path d="M257.836 211.086L245.747 221.999L244.343 222.058L244.05 220.001C244.05 220.001 241.593 223.168 236.133 222.992C236.133 222.992 232.855 225.163 237.714 225.281C242.572 225.398 248.776 225.105 248.776 225.105C248.776 225.105 253.11 218.346 256.737 219.228V224.332H257.851V219.181C258.369 218.831 258.811 218.38 259.15 217.855C259.49 217.33 259.72 216.742 259.827 216.125C259.923 215.49 259.855 214.84 259.629 214.239C259.402 213.638 259.025 213.106 258.534 212.693C258.314 212.487 258.139 212.238 258.019 211.961C257.899 211.685 257.837 211.387 257.836 211.086Z" fill="#1D2366"/>
<path d="M286.256 204.985C285.476 207.777 285.901 209.349 286.435 210.192V210.21C287.119 211.251 287.595 212.416 287.836 213.639L287.883 213.903L282.383 221.94L279.398 223.115C279.398 223.115 274.598 221.473 275.475 221.003C275.695 220.888 276.038 220.277 276.431 219.434C277.604 216.892 279.222 212.202 279.222 212.202V212.164C279.392 210.228 279.662 208.297 279.961 206.375C280.498 202.917 279.512 194.428 279.512 194.428C279.512 194.428 279.161 184.105 278.398 181.757C278.054 180.564 277.825 179.34 277.715 178.102C277.557 176.633 277.522 175.422 277.522 175.422C277.522 175.422 280.682 171.015 286.476 175.775C286.939 176.154 287.347 176.598 287.687 177.091C291.689 182.798 288.467 195.368 288.467 195.368C288.467 195.368 287.661 199.94 286.256 204.985Z" fill="#FFB0B1"/>
<path opacity="0.1" d="M287.892 213.903L282.392 221.94L279.407 223.115C279.407 223.115 274.607 221.473 275.484 221.003C275.704 220.888 276.047 220.277 276.44 219.434C278.472 219.416 279.524 221.355 279.524 221.355L282.098 220.944C282.098 220.944 285.494 214.256 286.256 213.848C287.018 213.439 286.373 210.795 286.373 210.795V210.122C286.394 210.145 286.411 210.172 286.435 210.195V210.213C287.119 211.254 287.595 212.419 287.836 213.642L287.892 213.903Z" fill="black"/>
<path d="M279.7 221.529C279.7 221.529 278.234 218.831 275.425 219.827C275.425 219.827 273.845 223.06 272.264 223.583C270.684 224.106 271.212 225.869 274.783 225.225C278.354 224.582 283.737 224.05 283.737 224.05L283.972 220.762L287.602 216.128C287.602 216.128 289.766 214.162 286.546 210.292V210.965C286.546 210.965 287.191 213.61 286.429 214.018C285.667 214.426 282.283 221.117 282.283 221.117L279.7 221.529Z" fill="#1D2366"/>
<path opacity="0.1" d="M258.1 173.836C258.15 174.724 258.266 175.608 258.446 176.48C255.144 175.995 252.08 176.236 250.072 176.395V173.777L258.1 173.836Z" fill="black"/>
<path opacity="0.1" d="M288.012 177.823C288.012 177.823 283.321 178.052 277.727 178.099C277.569 176.63 277.533 175.419 277.533 175.419C277.533 175.419 280.694 171.012 286.488 175.772C286.951 176.152 287.359 176.595 287.699 177.088C287.79 177.339 287.894 177.584 288.012 177.823Z" fill="black"/>
<path d="M288.012 177.294C288.012 177.294 267.465 178.29 261.202 176.53C254.939 174.77 248.732 176.295 247.797 175.887C246.861 175.478 247.621 169.081 248.442 167.497C249.263 165.914 253.766 149.896 253.766 149.896L258.1 127.253L262.665 125.993L262.988 125.901L270.942 123.704L276.771 122.09C276.771 122.09 288.361 167.439 287.367 170.783C287.006 172.063 286.948 173.41 287.197 174.717C287.349 175.61 287.623 176.477 288.012 177.294Z" fill="#1D2366"/>
<path d="M242.994 111.768C242.994 111.768 238.889 116.175 241.997 118.632C245.105 121.088 247.149 118.867 247.149 118.867L242.994 111.768Z" fill="#C7DAF5"/>
<path opacity="0.1" d="M242.994 111.768C242.994 111.768 238.889 116.175 241.997 118.632C245.105 121.088 247.149 118.867 247.149 118.867L242.994 111.768Z" fill="black"/>
<path d="M276.158 82.7893C276.158 82.7893 275.677 83.2477 274.953 83.9235C273.921 84.8903 272.394 86.3036 271.039 87.4878C269.162 89.1245 267.614 90.3263 268.168 89.3008C268.723 88.2753 268.617 86.4887 268.341 84.8168C268.321 84.7051 268.303 84.5935 268.283 84.4848C268.055 83.2568 267.752 82.044 267.377 80.8529C267.377 80.8529 270.409 76.9272 272.086 75.3787C272.71 74.791 273.147 74.5501 273.173 74.9585C273.203 75.508 273.613 76.7215 274.123 78.0085C274.138 78.0497 274.153 78.0879 274.17 78.129C274.51 79.0105 274.895 79.9156 275.232 80.6972C275.748 81.896 276.158 82.7893 276.158 82.7893Z" fill="#FFB0B1"/>
<path opacity="0.1" d="M274.17 78.129C273.885 79.6647 273.194 81.0956 272.169 82.272C271.143 83.4485 269.822 84.3273 268.341 84.8168C268.108 83.4754 267.786 82.1512 267.377 80.8529C267.377 80.8529 273.085 73.4628 273.173 74.9585C273.194 75.5256 273.64 76.7832 274.17 78.129Z" fill="black"/>
<path opacity="0.1" d="M267.773 86.7914L268.511 85.7483C268.511 85.7483 269.001 88.7396 270.801 87.4202C272.602 86.1009 272.69 97.3491 272.69 97.3491L270.757 126.301L256.795 125.464L257.191 111.474L258.771 104.422L262.68 94.1697L265.005 90.7817L267.773 86.7914Z" fill="black"/>
<path d="M272.69 97.5283L270.93 123.706L270.746 126.48L262.961 126.013L262.668 125.995L256.804 125.643L257.2 111.65L258.78 104.598L262.689 94.346L265.014 90.958L267.781 86.953L268.52 85.9128C268.52 85.9128 269.01 88.9041 270.81 87.5848L270.848 87.5583C272.608 86.4417 272.69 97.5283 272.69 97.5283Z" fill="#1D2366"/>
<path d="M258.977 102.147C258.977 102.147 258.276 103.617 256.868 103.379C255.461 103.141 255.464 108.668 255.464 108.668C255.464 108.668 254.529 109.549 253.884 108.785C253.239 108.021 251.538 110.604 251.538 110.604L240.883 111.074C240.883 111.074 245.624 113.246 244.695 119.816C244.695 119.816 260.792 118.817 261.319 117.292C261.847 115.767 258.977 102.147 258.977 102.147Z" fill="white"/>
<path opacity="0.03" d="M258.977 102.147C258.977 102.147 258.276 103.617 256.868 103.379C255.461 103.141 255.464 108.668 255.464 108.668C255.464 108.668 254.529 109.549 253.884 108.785C253.239 108.021 251.538 110.604 251.538 110.604L240.883 111.074C240.883 111.074 245.624 113.246 244.695 119.816C244.695 119.816 260.792 118.817 261.319 117.292C261.847 115.767 258.977 102.147 258.977 102.147Z" fill="black"/>
<path d="M228.011 114.527L230.82 116.931L253.942 121.799L251.075 118.867L228.011 114.527Z" fill="white"/>
<path d="M267.817 87.717C267.433 88.3047 266.333 91.3136 265.415 93.9405C264.65 96.1296 264.011 98.0543 264.011 98.0543C264.011 98.0543 262.518 107.792 261.756 109.552C260.994 111.312 261.407 118.176 261.407 118.176L258.566 135.128C258.566 135.128 257.279 143.87 255.291 149.091C253.33 154.231 251.145 156.64 251.078 156.716C251.957 155.523 256.751 132.034 256.751 132.034L258.334 102.409C258.334 102.409 258.566 99.594 258.801 97.1874C259.035 94.7809 263.785 91.4958 263.785 91.4958L268.365 84.9696C268.825 85.5867 268.517 86.6621 267.817 87.717Z" fill="white"/>
<path d="M255.874 125.79C255.874 125.79 249.131 125.496 245.865 121.564C242.598 117.633 253.415 119.995 253.415 119.995L256.226 120.642L255.874 125.79Z" fill="#FFB0B1"/>
<path opacity="0.1" d="M287.367 170.785C287.006 172.066 286.948 173.413 287.197 174.72C279.841 175.243 271.971 173.251 271.971 173.251C270.505 174.602 266.644 176.595 266.644 176.595L264.539 150.443C263.193 146.917 262.665 128.443 262.665 128.443C262.665 128.443 262.785 127.476 262.958 126.028C262.958 125.993 262.958 125.954 262.973 125.919C263.498 121.873 264.539 114.277 265.049 113.252C265.752 111.841 262.885 108.089 262.885 108.089L264.19 96.9377L264.348 95.5919C267.098 94.3607 269.206 90.4291 269.206 90.4291L270.825 87.5877C272.584 86.4564 272.675 97.543 272.675 97.543L270.916 123.721L276.745 122.108C276.745 122.108 288.361 167.442 287.367 170.785Z" fill="black"/>
<path d="M294.917 172.593C286.898 176.583 272.323 172.886 272.323 172.886C270.857 174.238 266.996 176.23 266.996 176.23L264.888 150.079C263.545 146.552 263.017 128.079 263.017 128.079C263.017 128.079 264.712 114.295 265.415 112.887C265.621 112.476 265.521 111.865 265.277 111.207C264.081 108.074 263.641 104.702 263.993 101.366L264.556 96.5733L264.712 95.2305C267.465 93.9963 269.573 90.0648 269.573 90.0648L271.039 87.4907L273.736 82.7482L275.015 80.5032L275.232 80.7001L276.888 82.2046C276.888 82.2046 277.592 82.7922 278.647 83.6738C280.943 85.6131 284.91 89.0275 286.957 91.1167C288.757 92.9562 289.326 100.111 289.49 105.497C289.599 109.044 289.534 111.824 289.534 111.824C287.719 114.818 292.466 138.857 292.466 138.857C293.571 143.502 294.917 172.593 294.917 172.593Z" fill="white"/>
<path opacity="0.03" d="M279.524 90.006C279.524 90.006 274.021 100.505 274.66 104.495C275.299 108.486 277.117 113.002 276.24 114.057C275.939 114.456 275.55 114.781 275.103 115.005C274.656 115.228 274.163 115.345 273.663 115.347C272.783 115.405 270.438 117.048 270.438 117.224C270.438 117.401 268.271 117.401 266.333 118.223C264.395 119.046 261.533 119.513 261.533 119.513C261.533 119.513 255.962 119.337 255.444 119.866C254.925 120.395 254.391 123.56 255.502 126.084C256.613 128.608 257.848 130.491 258.78 130.835C259.713 131.179 265.629 129.192 270.429 128.722C275.229 128.252 280.439 124.441 280.439 124.441C280.439 124.441 286.177 122.384 287.183 118.926C288.188 115.467 285.954 96.4587 285.954 96.4587C285.954 96.4587 284.265 87.5994 279.524 90.006Z" fill="black"/>
<path opacity="0.03" d="M278.82 89.1245C278.82 89.1245 273.317 99.6263 273.962 103.614C274.607 107.601 276.419 112.12 275.54 113.178C275.239 113.578 274.851 113.903 274.404 114.127C273.957 114.351 273.465 114.468 272.965 114.468C272.086 114.527 269.74 116.169 269.74 116.346C269.74 116.522 267.573 116.522 265.635 117.342C263.697 118.162 260.835 118.632 260.835 118.632C260.835 118.632 255.265 118.456 254.749 118.984C254.233 119.513 253.693 122.681 254.807 125.202C255.921 127.723 257.153 129.61 258.085 129.953C259.018 130.297 264.934 128.311 269.734 127.844C274.534 127.377 279.744 123.56 279.744 123.56C279.744 123.56 285.479 121.503 286.473 118.047C287.467 114.592 285.245 95.5772 285.245 95.5772C285.245 95.5772 283.562 86.7209 278.82 89.1245Z" fill="black"/>
<path d="M279.351 89.4771C279.351 89.4771 273.848 99.9789 274.493 103.966C275.138 107.954 276.95 112.473 276.073 113.528C275.773 113.929 275.384 114.254 274.937 114.479C274.489 114.703 273.996 114.82 273.496 114.821C272.616 114.88 270.271 116.522 270.271 116.695C270.271 116.869 268.107 116.872 266.166 117.695C264.225 118.517 261.366 118.984 261.366 118.984C261.366 118.984 255.795 118.808 255.276 119.337C254.757 119.866 254.224 123.034 255.335 125.555C256.446 128.076 257.681 129.962 258.613 130.306C259.545 130.65 265.462 128.664 270.262 128.193C275.062 127.723 280.272 123.912 280.272 123.912C280.272 123.912 286.01 121.855 287.015 118.397C288.021 114.938 285.802 95.9298 285.802 95.9298C285.802 95.9298 284.089 87.0852 279.351 89.4771Z" fill="white"/>
<path opacity="0.1" d="M279.231 117.645C279.231 117.645 274.833 116.763 276.363 118.232C277.894 119.701 277.885 120.988 279.759 120.93C281.632 120.871 279.231 117.645 279.231 117.645Z" fill="black"/>
<path opacity="0.1" d="M286.664 149.256C286.664 149.256 284.676 150.605 288.479 153.713C292.281 156.822 286.664 149.256 286.664 149.256Z" fill="black"/>
<path opacity="0.1" d="M282.87 160.342C282.87 160.519 282.166 166.807 284.799 168.379C287.432 169.951 282.87 160.342 282.87 160.342Z" fill="black"/>
<path d="M241.065 111.06C238.942 111.133 234.356 111.782 236.734 116.228C238.837 120.163 242.37 117.533 244.358 115.538C243.873 113.678 242.694 112.075 241.065 111.06Z" fill="#FFB0B1"/>
<path opacity="0.1" d="M278.648 83.853C276.396 85.3957 274.507 86.6974 274.138 86.9677C273.129 87.717 271.206 92.1158 269.966 94.3607C268.978 96.1678 265.767 96.6321 264.556 96.7467L264.712 95.4038C267.465 94.1697 269.573 90.2381 269.573 90.2381L275.015 80.6766L276.888 82.3838C276.888 82.3838 277.592 82.9715 278.648 83.853Z" fill="black"/>
<path d="M278.648 83.6767C276.396 85.2194 274.507 86.5211 274.138 86.7944C273.129 87.5407 271.206 91.9395 269.966 94.1844C268.978 95.9915 265.767 96.4558 264.556 96.5704L264.712 95.2275C267.465 93.9934 269.573 90.0618 269.573 90.0618L275.015 80.5003L276.888 82.2016C276.888 82.2016 277.592 82.7834 278.648 83.6767Z" fill="#DCE7FF"/>
<path d="M274.314 76.1897C274.315 77.9536 273.781 79.6762 272.783 81.1291C271.605 82.847 269.851 84.0846 267.84 84.6172C265.828 85.1499 263.693 84.9424 261.822 84.0323C259.95 83.1223 258.466 81.57 257.638 79.6571C256.811 77.7443 256.696 75.5976 257.312 73.6066C257.929 71.6156 259.238 69.9122 261.001 68.8054C262.764 67.6986 264.864 67.2619 266.921 67.5744C268.978 67.8869 270.855 68.9279 272.211 70.5086C273.568 72.0893 274.314 74.1049 274.314 76.1897Z" fill="#FFB0B1"/>
<path opacity="0.1" d="M289.49 105.5C288.299 104.766 287.33 103.722 286.684 102.479C286.195 101.51 285.869 100.39 285.033 99.7027C284.28 99.0856 283.274 98.9358 282.336 98.6596C279.252 97.7457 276.665 94.9249 276.569 91.7044C276.522 90.1882 276.994 88.6749 276.78 87.1734C276.658 86.3236 276.321 85.5193 275.801 84.8373C275.542 84.5112 275.259 84.2057 274.953 83.9235C274.543 83.5356 274.112 83.1595 273.736 82.7481C273.5 82.4934 273.293 82.2125 273.121 81.9107C272.981 81.6638 272.868 81.4028 272.783 81.132C272.197 79.3337 272.731 77.2005 272.086 75.3816L272.05 75.2817C271.807 74.6352 271.312 73.9888 270.623 73.9388C269.934 73.8889 269.344 74.4619 268.687 74.7175C267.312 75.2523 265.829 74.3414 264.682 73.4129C263.536 72.4843 262.243 71.4236 260.786 71.6293C259.821 71.7674 259.059 72.4256 258.17 72.7664C257.97 72.8442 257.763 72.9042 257.552 72.9457C258.303 71.0666 259.685 69.5086 261.458 68.5393C263.232 67.57 265.287 67.25 267.27 67.6342C269.254 68.0184 271.042 69.0828 272.327 70.6446C273.612 72.2064 274.315 74.1681 274.314 76.1926C274.315 76.8039 274.251 77.4136 274.123 78.0114C274.138 78.0526 274.153 78.0908 274.17 78.1319C274.51 79.0134 274.895 79.9185 275.232 80.7001L276.888 82.2045C276.888 82.2045 277.592 82.7922 278.648 83.6737C280.943 85.6131 284.91 89.0275 286.957 91.1167C288.757 92.962 289.32 100.114 289.49 105.5Z" fill="black"/>
<path d="M258.068 67.398C258.487 66.5429 258.695 65.585 259.196 64.774C259.932 63.5986 261.217 62.8464 262.536 62.391C265.981 61.2009 273.261 59.4731 275.437 62.391C275.865 62.9786 276.22 63.631 276.812 64.0365C277.264 64.345 277.809 64.4772 278.304 64.7094C279.691 65.3617 280.577 66.7839 281.049 68.2354C281.521 69.687 281.662 71.2443 282.008 72.74C282.45 74.6588 283.227 76.4776 284.001 78.2847C284.913 80.418 285.881 82.6306 287.64 84.138C290.041 86.1949 290.572 89.1069 292.8 91.3635C295.439 94.0434 295.354 98.4656 293.994 101.977C293.815 102.438 293.613 102.92 293.683 103.411C293.753 103.902 294.117 104.348 294.46 104.739L295.902 106.37C292.49 107.196 288.628 105.409 287.039 102.274C286.549 101.304 286.224 100.188 285.385 99.497C284.635 98.88 283.626 98.733 282.691 98.4568C279.606 97.5401 277.02 94.7163 276.923 91.4958C276.877 89.9825 277.349 88.4692 277.135 86.9706C277.015 86.1151 276.677 85.3052 276.152 84.6199C275.346 83.565 274.129 82.8569 273.472 81.6815C272.361 79.7157 273.206 77.1623 272.405 75.0525C272.159 74.4061 271.666 73.7596 270.977 73.7097C270.288 73.6597 269.699 74.2327 269.039 74.4883C267.667 75.0231 266.183 74.1152 265.037 73.1837C263.891 72.2522 262.598 71.1944 261.137 71.403C260.173 71.5382 259.413 72.1964 258.525 72.5402C257.868 72.7929 256.537 73.0191 255.962 72.4638C254.749 71.3442 257.56 68.4441 258.068 67.398Z" fill="#591D4B"/>
<path opacity="0.1" d="M287.854 101.304C287.361 100.334 287.039 99.2179 286.2 98.5303C285.45 97.9132 284.441 97.7634 283.503 97.4872C280.421 96.5733 277.835 93.7495 277.736 90.529C277.689 89.0158 278.161 87.4996 277.95 86.001C277.827 85.151 277.489 84.3467 276.967 83.6649C276.158 82.6101 274.941 81.9019 274.288 80.7265C273.176 78.7637 274.021 76.2102 273.217 74.0975C272.974 73.454 272.479 72.8076 271.792 72.7547C271.106 72.7018 270.511 73.2807 269.854 73.5363C268.482 74.0711 266.996 73.1602 265.852 72.2317C264.709 71.3031 263.41 70.2424 261.953 70.448C260.988 70.5862 260.226 71.2443 259.34 71.5852C258.683 71.8379 257.349 72.0671 256.775 71.5117C255.567 70.3364 258.378 67.4421 258.883 66.4019C259.302 65.5439 259.51 64.5889 260.014 63.7779C260.041 63.7338 260.07 63.6897 260.1 63.6457C259.722 63.9588 259.397 64.3297 259.135 64.7446C258.634 65.5556 258.425 66.5077 258.006 67.3686C257.499 68.4088 254.687 71.3119 255.898 72.4785C256.484 73.0368 257.804 72.8076 258.461 72.5549C259.34 72.2111 260.108 71.5529 261.073 71.4177C262.539 71.2091 263.829 72.2698 264.973 73.1984C266.116 74.1269 267.611 75.0378 268.978 74.503C269.634 74.2474 270.209 73.6715 270.913 73.7244C271.616 73.7772 272.086 74.4208 272.341 75.0672C273.141 77.177 272.297 79.7304 273.408 81.6962C274.065 82.851 275.282 83.5739 276.088 84.6346C276.613 85.3199 276.951 86.1298 277.07 86.9853C277.284 88.4839 276.812 89.9972 276.859 91.5105C276.956 94.7427 279.542 97.5547 282.626 98.4715C283.556 98.7477 284.57 98.8947 285.321 99.5117C286.162 100.202 286.494 101.319 286.974 102.289C288.564 105.424 292.425 107.21 295.838 106.385L295.158 105.615C292.199 105.659 289.206 103.972 287.854 101.304Z" fill="black"/>
<path opacity="0.1" d="M267.641 87.8933C267.257 88.481 266.157 91.4899 265.239 94.1168C264.38 93.7818 263.6 91.6456 263.6 91.6456L268.18 85.1165C268.649 85.763 268.341 86.8355 267.641 87.8933Z" fill="black"/>
<path d="M267.817 87.717C267.433 88.3047 266.333 91.3136 265.415 93.9405C264.556 93.6085 263.776 91.4693 263.776 91.4693L268.356 84.9431C268.825 85.5867 268.517 86.6621 267.817 87.717Z" fill="#DCE7FF"/>
<path d="M241.188 117.736L238.649 109.711C238.619 109.617 238.608 109.518 238.616 109.42C238.624 109.321 238.651 109.226 238.697 109.138C238.742 109.05 238.804 108.972 238.879 108.909C238.955 108.845 239.042 108.797 239.136 108.768C239.325 108.709 239.529 108.727 239.705 108.818C239.881 108.909 240.013 109.067 240.074 109.255L242.613 117.271L242.361 118.949L241.188 117.736Z" fill="#BE8B87"/>
<path opacity="0.1" d="M238.889 109.006C239.079 108.946 239.284 108.963 239.46 109.055C239.637 109.146 239.77 109.304 239.83 109.493L242.37 117.509L242.179 118.767L242.364 118.961L242.616 117.283L240.062 109.267C240.001 109.078 239.869 108.921 239.693 108.83C239.517 108.738 239.313 108.72 239.124 108.779C238.965 108.831 238.828 108.935 238.734 109.073C238.784 109.046 238.836 109.024 238.889 109.006Z" fill="white"/>
<path d="M241.188 117.736L242.613 117.283L242.405 118.658L242.361 118.961L241.944 118.526L241.188 117.736Z" fill="#EFC8C4"/>
<path d="M241.944 118.526C241.969 118.495 242 118.469 242.035 118.45C242.056 118.437 242.08 118.43 242.104 118.43C242.129 118.43 242.153 118.437 242.173 118.45C242.193 118.474 242.21 118.501 242.223 118.529C242.242 118.561 242.269 118.589 242.3 118.61C242.332 118.631 242.367 118.644 242.405 118.649L242.361 118.943L241.944 118.526Z" fill="#727A9C"/>
<path d="M238.634 112.561C238.634 112.561 243.727 112.532 242.528 114.703C241.329 116.875 239.455 117.136 239.455 117.136L238.634 112.561Z" fill="#FFB0B1"/>
<path d="M206.96 15.1092H206.74C197.991 15.1092 190.253 19.7489 185.802 26.5954C181.351 19.7489 173.614 15.1092 164.865 15.1092H164.645C158.079 15.1719 151.803 17.829 147.181 22.503C142.558 27.1771 139.964 33.4903 139.96 40.0709C139.96 48.2426 143.531 59.8375 150.495 69.3785C163.762 87.5583 185.802 103.464 185.802 103.464C185.802 103.464 207.842 87.5612 221.107 69.3785C228.073 59.8375 231.641 48.2426 231.641 40.0709C231.638 33.4908 229.043 27.178 224.422 22.5041C219.8 17.8301 213.525 15.1727 206.96 15.1092ZM203.814 70.7771C202.817 70.7733 201.845 70.4677 201.025 69.9003C200.205 69.3329 199.576 68.5303 199.219 67.5978H193.988C193.644 67.5956 193.309 67.4858 193.03 67.2835C192.75 67.0812 192.541 66.7966 192.431 66.4694L190.825 61.6181L185.741 79.4219C185.642 79.7646 185.434 80.0659 185.15 80.2805C184.865 80.4951 184.519 80.6114 184.163 80.6119H184.061C183.689 80.5939 183.335 80.4487 183.057 80.2006C182.78 79.9524 182.596 79.6164 182.536 79.2485L177.296 47.6667L173.467 66.3549C173.379 66.7099 173.175 67.0252 172.888 67.2505C172.6 67.4757 172.246 67.598 171.881 67.5978H164.513C164.292 67.6072 164.071 67.5716 163.865 67.4934C163.658 67.4151 163.469 67.2958 163.309 67.1425C163.15 66.9892 163.023 66.8051 162.936 66.6013C162.849 66.3975 162.804 66.1782 162.804 65.9567C162.804 65.7351 162.849 65.5159 162.936 65.3121C163.023 65.1083 163.15 64.9242 163.309 64.7709C163.469 64.6176 163.658 64.4982 163.865 64.42C164.071 64.3417 164.292 64.3062 164.513 64.3156H170.591L176.015 39.1894C176.104 38.8179 176.319 38.4889 176.623 38.2588C176.928 38.0286 177.302 37.9114 177.683 37.9274C178.064 37.9434 178.428 38.0914 178.712 38.3463C178.996 38.6011 179.182 38.9469 179.24 39.3245L184.591 71.5411L189.148 55.6121C189.242 55.2766 189.443 54.9809 189.719 54.769C189.996 54.5572 190.333 54.4406 190.681 54.4367H190.713C191.058 54.4368 191.394 54.546 191.673 54.7486C191.952 54.9512 192.16 55.2369 192.267 55.5651L195.173 64.3244H199.155C199.438 63.4625 199.953 62.6957 200.643 62.1087C201.334 61.5216 202.173 61.1372 203.067 60.9978C203.962 60.8584 204.878 60.9695 205.714 61.3188C206.549 61.668 207.273 62.2419 207.803 62.977C208.334 63.7122 208.652 64.58 208.722 65.4847C208.791 66.3895 208.61 67.2959 208.199 68.1041C207.787 68.9122 207.16 69.5906 206.388 70.0644C205.616 70.5382 204.728 70.7889 203.822 70.7889L203.814 70.7771Z" fill="#98A8F8"/>
</g>
<defs>
<linearGradient id="paint0_linear_20_131" x1="104.477" y1="227.688" x2="104.477" y2="46.8762" gradientUnits="userSpaceOnUse">
<stop stop-color="#808080" stop-opacity="0.25"/>
<stop offset="0.54" stop-color="#808080" stop-opacity="0.12"/>
<stop offset="1" stop-color="#808080" stop-opacity="0.1"/>
</linearGradient>
<linearGradient id="paint1_linear_20_131" x1="261.955" y1="225.401" x2="261.955" y2="60.2636" gradientUnits="userSpaceOnUse">
<stop stop-color="#808080" stop-opacity="0.25"/>
<stop offset="0.54" stop-color="#808080" stop-opacity="0.12"/>
<stop offset="1" stop-color="#808080" stop-opacity="0.1"/>
</linearGradient>
<clipPath id="clip0_20_131">
<rect width="324" height="230" fill="white"/>
</clipPath>
</defs>
</svg>
