<svg width="800" height="200" viewBox="0 0 800 200" fill="none" xmlns="http://www.w3.org/2000/svg">
<mask id="mask0_198_45" style="mask-type:luminance" maskUnits="userSpaceOnUse" x="0" y="0" width="800" height="200">
<path d="M775 0H25C11.1929 0 0 11.1929 0 25V175C0 188.807 11.1929 200 25 200H775C788.807 200 800 188.807 800 175V25C800 11.1929 788.807 0 775 0Z" fill="white"/>
</mask>
<g mask="url(#mask0_198_45)">
<path d="M775 0H25C11.1929 0 0 11.1929 0 25V175C0 188.807 11.1929 200 25 200H775C788.807 200 800 188.807 800 175V25C800 11.1929 788.807 0 775 0Z" fill="#589BFF"/>
<path d="M-0.000152588 130.893C46.2976 134.401 93.1571 147.434 136.718 136.759C183.498 125.296 227.587 101.962 243.007 71.3429C258.159 41.2551 228.912 10.5204 215.628 -19.9303C204.131 -46.2832 193.373 -71.8846 170.461 -94.9532C144.394 -121.199 120.033 -152.364 74.1604 -162.365C28.0021 -172.427 -24.6874 -162.257 -67.0163 -146.723C-105.065 -132.76 -120.473 -104.242 -146.264 -81.4746C-169.532 -60.935 -202.388 -44.2946 -211.122 -19.5135C-220.184 6.20004 -211.672 33.1618 -195.171 57.299C-178.515 81.664 -153.168 104.029 -117.458 117.494C-82.4502 130.695 -40.3068 127.838 -0.000152588 130.893Z" fill="#223255"/>
<path d="M800 376.579C861.603 383.444 923.554 395.032 983.449 383.506C1053.84 369.96 1128.6 348.294 1163.31 306.663C1198.41 264.574 1195.77 209.637 1164.55 166.305C1135.53 126.025 1058.24 113.943 1004.42 86.1293C962.12 64.2676 928.545 38.3408 882.07 20.3186C821.551 -3.14959 763.015 -39.8571 692.793 -34.7146C621.642 -29.5039 563.546 7.93898 524.449 46.5083C487.765 82.6968 493.662 128.048 484.432 170.833C475.255 213.373 435.372 260.201 470.465 296.746C505.977 333.726 590.07 331.391 653.329 346.716C702.31 358.582 748.425 370.831 800 376.579Z" fill="#C1EFF2"/>
</g>
</svg>
