<svg width="411" height="135" viewBox="0 0 411 135" fill="none" xmlns="http://www.w3.org/2000/svg">
<g filter="url(#filter0_d_29_233)">
<g clip-path="url(#clip0_29_233)">
<mask id="mask0_29_233" style="mask-type:luminance" maskUnits="userSpaceOnUse" x="2" y="0" width="401" height="125">
<path d="M403 0H2V125H403V0Z" fill="white"/>
</mask>
<g mask="url(#mask0_29_233)">
<path d="M403 0H2V125H403V0Z" fill="#6A8BFF"/>
<path d="M2 10.7143C18.04 19.4643 50.12 52.5 82.2 54.4643C114.28 56.4286 130.32 23.2143 162.4 20.5357C194.48 17.8571 210.52 43.6161 242.6 41.0714C274.68 38.5268 290.72 4.0625 322.8 7.8125C354.88 11.5625 386.96 49.4196 403 59.8214V125H2V10.7143Z" fill="#98A8F8"/>
<path d="M2 121.652C28.7333 113.527 82.2 81.9196 135.667 81.0268C189.133 80.1339 215.867 119.821 269.333 117.187C322.8 114.554 376.267 77.7232 403 67.8571V125H2V121.652Z" fill="#BCCEF8"/>
</g>
</g>
</g>
<defs>
<filter id="filter0_d_29_233" x="0" y="0" width="411" height="135" filterUnits="userSpaceOnUse" color-interpolation-filters="sRGB">
<feFlood flood-opacity="0" result="BackgroundImageFix"/>
<feColorMatrix in="SourceAlpha" type="matrix" values="0 0 0 0 0 0 0 0 0 0 0 0 0 0 0 0 0 0 127 0" result="hardAlpha"/>
<feOffset dx="3" dy="5"/>
<feGaussianBlur stdDeviation="2.5"/>
<feComposite in2="hardAlpha" operator="out"/>
<feColorMatrix type="matrix" values="0 0 0 0 0 0 0 0 0 0 0 0 0 0 0 0 0 0 0.25 0"/>
<feBlend mode="normal" in2="BackgroundImageFix" result="effect1_dropShadow_29_233"/>
<feBlend mode="normal" in="SourceGraphic" in2="effect1_dropShadow_29_233" result="shape"/>
</filter>
<clipPath id="clip0_29_233">
<rect x="2" width="401" height="125" rx="25" fill="white"/>
</clipPath>
</defs>
</svg>
