<svg width="500" height="500" viewBox="0 0 500 500" fill="none" xmlns="http://www.w3.org/2000/svg">
<g clip-path="url(#clip0_197_234)">
<path d="M500 275.287C500 275.773 499.715 276.167 499.364 276.167H0V274.408H499.364C499.715 274.408 500 274.801 500 275.287Z" fill="#E6E6E6"/>
<path d="M164.193 61.7011C174.616 61.7011 183.065 50.0235 183.065 35.6185C183.065 21.2135 174.616 9.53589 164.193 9.53589C153.771 9.53589 145.322 21.2135 145.322 35.6185C145.322 50.0235 153.771 61.7011 164.193 61.7011Z" fill="#FFB6B6"/>
<path d="M174.194 67.2046L149.354 77.0136L145.805 88.0488L137.821 140.772V224.149C137.821 224.149 128.063 253.576 133.385 279.325C139.075 306.848 159.112 274.363 174.194 278.07C189.275 281.777 213.228 285.456 213.228 285.456L199.033 195.948L195.485 86.8227L174.194 67.2046Z" fill="#E6E6E6"/>
<path d="M169.506 44.16L165.669 41.5086C165.669 41.5086 164.71 29.5771 162.792 26.9257C160.873 24.2743 160.873 22.9486 160.873 22.9486L163.751 17.6457C163.751 17.6457 149.363 28.2514 146.485 21.6229C143.608 14.9943 147.445 12.3429 147.445 12.3429L142.649 7.04005C142.649 7.04005 148.404 12.3429 149.363 8.36576C150.322 4.38862 156.077 1.69022 156.077 1.69022C156.077 1.69022 168.645 5.62038 167.637 1.69022C166.628 -2.23994 170.465 1.7372 171.424 3.06291C172.383 4.38862 181.016 17.6457 181.975 16.32C182.934 14.9943 187.73 18.9714 186.771 20.2972C185.812 21.6229 185.812 22.9486 186.771 24.2743C187.73 25.6 193.486 40.1829 188.69 45.4857C183.894 50.7885 177.179 57.4171 178.139 62.7199C179.098 68.0228 178.139 45.4857 169.506 44.16Z" fill="#2F2E41"/>
<path d="M76.4787 109.829C71.6351 104.058 69.8633 95.926 72.5211 91.6662C75.1789 87.4064 81.2588 88.6322 86.1036 94.406C88.0618 96.6757 89.5982 99.5606 90.5844 102.819L110.884 127.629L102.257 140.547L83.1614 114.717C80.6833 113.849 78.3918 112.173 76.4787 109.829Z" fill="#FFB6B6"/>
<path d="M146.018 88.4706L159.389 86.7905L171.116 164.086C173.35 178.815 166.365 193.194 155.656 195.911L146.018 198.356L84.5928 123.607L93.567 102.93L138.865 142.203L146.018 88.4706Z" fill="#E6E6E6"/>
<path d="M116.166 432.214C116.166 432.214 105.561 459.436 106.319 458.389C107.076 457.342 119.954 463.624 119.954 463.624L127.529 436.402L116.166 432.214Z" fill="#FFB6B6"/>
<path d="M100.513 241.665C100.513 241.665 95.0842 271.658 95.6318 270.386C96.1795 269.113 109.78 270.819 109.78 270.819L112.272 241.857L100.513 241.665Z" fill="#FFB6B6"/>
<path d="M194.949 236.622C170.982 241.275 149.335 237.218 131.696 218.103C131.696 218.103 118.818 277.782 142.301 284.064C165.785 290.346 191.919 279.549 194.949 269.079C197.98 258.609 194.949 236.622 194.949 236.622Z" fill="#2F2E41"/>
<path d="M150.255 255.468L124.12 340.602L112 439.02L127.908 444.255L156.363 353.689L194.95 266.985L150.255 255.468Z" fill="#2F2E41"/>
<path d="M146.846 231.19C146.846 231.19 140.786 166.277 129.423 162.089C123.884 160.047 118.704 160.245 114.85 160.984C110.966 161.728 107.869 165.83 107.19 171.168L96.8643 252.327H111.466L116.166 230.34L128.666 260.506L146.846 231.19Z" fill="#2F2E41"/>
<path d="M109.727 262.6L95.2895 260.506L93.0617 272.023C93.0617 272.023 69.5783 301.339 81.6987 303.433C93.8192 305.527 105.182 294.01 105.182 294.01L121.855 280.791C121.855 280.791 115.409 257.038 110.864 257.038C106.318 257.038 109.727 262.6 109.727 262.6Z" fill="#2F2E41"/>
<path d="M117.303 458.913L102.865 456.819L100.637 468.336C100.637 468.336 77.1535 497.652 89.2739 499.746C101.394 501.84 112.757 490.323 112.757 490.323L129.43 477.103C129.43 477.103 128.287 452.303 123.742 452.303C119.196 452.303 117.303 458.913 117.303 458.913Z" fill="#2F2E41"/>
<path d="M190.406 300.414C188.665 308.665 184.174 314.113 180.374 312.581C176.575 311.049 174.907 303.118 176.649 294.864C177.312 291.553 178.539 288.51 180.228 285.99L187.923 251.155L199.674 256.495L190.84 290.269C191.284 293.65 191.135 297.128 190.406 300.414Z" fill="#FFB6B6"/>
<path d="M198.539 86.9745L192.412 84.5862C186.635 100.474 184.15 118.261 185.234 135.979L188.258 185.419L178.28 272.317L197.837 279.31L213.248 170.256L198.539 86.9745Z" fill="#E6E6E6"/>
<path d="M79.2583 222.839C78.9899 221.704 76.9564 222.204 76.7611 221.189C76.5665 220.177 78.5179 219.329 80.0145 216.479C80.2844 215.965 81.9852 212.726 81.3329 211.364C80.0965 208.782 71.494 215.213 69.4291 211.604C68.9759 210.812 68.7894 209.452 67.4394 206.922C66.9023 205.915 66.5578 205.429 66.1461 205.444C65.5619 205.464 65.3529 206.474 64.4348 208.304C63.0579 211.048 62.561 210.703 61.654 212.951C60.9806 214.62 60.9009 215.687 60.4153 215.749C59.7282 215.838 59.4442 213.761 58.6046 213.68C57.7479 213.598 56.8905 215.651 56.4655 217.255C55.668 220.265 56.1618 222.566 56.2713 224.859C56.3903 227.351 56.1109 230.999 54.152 235.681L35.6746 276.369C39.6428 268.074 50.907 245.455 55.4453 237.159C56.7554 234.764 58.1633 232.359 60.3303 231.906C62.4166 231.471 64.9551 232.897 68.4983 232.814C68.9121 232.805 70.0637 232.757 70.3438 231.914C70.5754 231.216 70.0004 230.61 70.2096 229.954C70.4902 229.075 71.7525 229.452 73.4729 228.868C74.6859 228.456 75.5101 227.776 76.2188 227.191C76.4325 227.014 79.6154 224.349 79.2583 222.839Z" fill="#F2F2F2"/>
<path d="M30.8626 232.338C30.3822 232.193 29.9729 233.717 29.5561 233.556C29.1408 233.396 29.4027 231.828 28.8225 229.99C28.7178 229.659 28.0584 227.571 27.3864 227.62C26.1127 227.714 25.9144 235.405 24.037 235.765C23.625 235.843 23.0884 235.578 21.8003 235.763C21.2878 235.837 21.0158 235.931 20.9021 236.214C20.7408 236.616 21.0392 237.049 21.424 238.2C22.0011 239.926 21.7354 240.163 22.272 241.427C22.6704 242.366 23.0261 242.728 22.9083 243.075C22.7416 243.567 21.9218 243.16 21.651 243.706C21.3745 244.264 21.8563 245.438 22.3033 246.189C23.1421 247.598 24.1017 247.927 24.9475 248.515C25.8668 249.153 27.0815 250.395 28.1789 253.075L37.2964 277.349C35.4959 272.264 30.7138 258.096 29.077 252.624C28.6045 251.044 28.1567 249.395 28.6213 247.795C29.0686 246.254 30.3076 244.943 31.3004 242.516C31.4164 242.232 31.7319 241.437 31.5131 241.004C31.3323 240.646 30.951 240.861 30.7786 240.53C30.5473 240.086 31.0455 239.338 31.3344 238.003C31.5382 237.061 31.5343 236.305 31.531 235.656C31.53 235.46 31.5021 232.532 30.8626 232.338Z" fill="#F2F2F2"/>
<path d="M39.9587 238.261L40.2453 234.604L40.4211 234.374C41.2343 233.312 41.7431 232.187 41.9339 231.028C41.9643 230.844 41.9878 230.658 42.0119 230.468C42.107 229.716 42.2252 228.782 42.7482 227.811C43.041 227.27 43.8153 226.047 44.6139 226.474C44.8295 226.586 44.9749 226.779 45.076 226.984C45.1014 226.948 45.1274 226.913 45.1552 226.874C45.5001 226.411 45.7415 226.241 45.9739 226.078C46.1526 225.952 46.337 225.823 46.6492 225.478C46.7861 225.326 46.8957 225.19 46.9881 225.076C47.2684 224.73 47.6268 224.325 48.1178 224.485C48.6382 224.682 48.8167 225.368 48.9351 225.822C49.1465 226.633 49.2116 227.19 49.2547 227.559C49.2702 227.694 49.2882 227.846 49.3018 227.896C49.4157 228.293 50.8457 228.395 51.3838 228.438C52.5932 228.529 53.6398 228.607 53.8914 229.752C54.072 230.571 53.6957 231.464 52.7405 232.477C52.443 232.792 52.1455 233.01 51.8864 233.172C52.0458 233.381 52.1728 233.664 52.1806 234.05C52.1981 234.963 51.5204 235.664 50.1664 236.136C49.8299 236.255 49.3773 236.412 48.7851 236.372C48.5062 236.353 48.2619 236.294 48.0536 236.239C48.0225 236.403 47.9656 236.573 47.8629 236.735C47.5616 237.212 47.0749 237.333 46.4143 237.065C45.685 236.784 45.1087 236.402 44.6003 236.066C44.1561 235.774 43.7732 235.523 43.4519 235.455C42.8542 235.34 42.2969 235.85 41.63 236.528L39.9587 238.261Z" fill="#F2F2F2"/>
<path d="M44.7285 217.431L42.0963 217.976L41.891 217.799C40.9412 216.981 40.0246 216.587 39.1655 216.625C39.0289 216.631 38.8926 216.647 38.7538 216.663C38.2034 216.727 37.5192 216.806 36.7071 216.353C36.2542 216.099 35.2022 215.374 35.2985 214.198C35.322 213.881 35.4203 213.638 35.5379 213.45C35.5066 213.426 35.4752 213.4 35.4413 213.372C35.0295 213.029 34.8495 212.749 34.6761 212.48C34.5428 212.273 34.4054 212.059 34.0848 211.729C33.9442 211.585 33.821 211.473 33.7175 211.378C33.4044 211.091 33.0301 210.715 33.0178 210.018C33.0234 209.272 33.4584 208.859 33.7463 208.586C34.2597 208.098 34.6332 207.869 34.8809 207.718C34.9714 207.663 35.0732 207.6 35.1044 207.57C35.3532 207.317 35.0623 205.379 34.9559 204.649C34.7126 203.009 34.502 201.59 35.2393 200.963C35.7665 200.514 36.4871 200.79 37.4384 201.81C37.7344 202.128 37.9621 202.471 38.1416 202.776C38.2469 202.51 38.413 202.268 38.681 202.16C39.3157 201.905 39.9781 202.633 40.6521 204.324C40.8205 204.743 41.0453 205.309 41.1677 206.11C41.2251 206.488 41.2458 206.83 41.26 207.122C41.3827 207.122 41.5165 207.155 41.6558 207.251C42.0659 207.533 42.2742 208.153 42.2537 209.104C42.2421 210.151 42.1209 211.018 42.0149 211.783C41.9229 212.451 41.845 213.026 41.8787 213.473C41.9494 214.301 42.4477 214.917 43.0919 215.637L44.7285 217.431Z" fill="#F2F2F2"/>
<path d="M45.083 206.507L45.3696 202.85L45.5454 202.62C46.3586 201.558 46.8673 200.432 47.0582 199.274C47.0886 199.09 47.1121 198.904 47.1361 198.714C47.2313 197.962 47.3494 197.027 47.8725 196.056C48.1652 195.515 48.9396 194.293 49.7382 194.72C49.9537 194.832 50.0992 195.025 50.2003 195.229C50.2257 195.194 50.2516 195.158 50.2794 195.12C50.6244 194.657 50.8657 194.487 51.0982 194.323C51.2768 194.198 51.4613 194.068 51.7734 193.723C51.9104 193.572 52.02 193.436 52.1124 193.321C52.3926 192.976 52.7511 192.571 53.242 192.731C53.7625 192.928 53.9409 193.614 54.0593 194.068C54.2707 194.878 54.3359 195.435 54.3789 195.805C54.3945 195.94 54.4124 196.092 54.4261 196.141C54.54 196.538 55.97 196.641 56.508 196.684C57.7175 196.775 58.764 196.853 59.0157 197.998C59.1963 198.816 58.8199 199.71 57.8648 200.723C57.5673 201.038 57.2698 201.255 57.0107 201.418C57.1701 201.626 57.2971 201.909 57.3048 202.295C57.3223 203.209 56.6446 203.909 55.2906 204.382C54.9542 204.5 54.5016 204.657 53.9094 204.618C53.6305 204.599 53.3862 204.54 53.1779 204.485C53.1468 204.649 53.0898 204.819 52.9872 204.981C52.6858 205.458 52.1991 205.579 51.5385 205.31C50.8092 205.029 50.233 204.647 49.7245 204.312C49.2804 204.019 48.8975 203.769 48.5761 203.701C47.9785 203.585 47.4212 204.095 46.7542 204.774L45.083 206.507Z" fill="#F2F2F2"/>
<path d="M36.5481 276.577L36.0827 275.942L35.4359 275.847C35.439 275.763 35.4347 275.566 35.43 275.259C35.4051 273.577 35.3279 268.457 35.8437 260.59C36.2039 255.098 36.8058 249.524 37.6327 244.018C38.461 238.505 39.3206 234.402 40.0111 231.105C40.5321 228.618 41.0581 226.259 41.5715 223.961C42.9416 217.822 44.2353 212.023 45.0364 205.409C45.2158 203.933 45.5881 200.859 44.8258 197.231C44.3835 195.127 43.6262 193.147 42.5742 191.347L43.5924 190.21C44.7533 192.199 45.5907 194.393 46.0819 196.729C46.9271 200.751 46.5215 204.1 46.3266 205.709C45.5112 212.44 44.2046 218.295 42.821 224.493C42.3102 226.782 41.786 229.131 41.2672 231.608C40.583 234.875 39.7311 238.941 38.9136 244.384C38.096 249.824 37.5018 255.33 37.1456 260.752C36.6366 268.52 36.7131 273.564 36.7381 275.221C36.751 276.106 36.7538 276.291 36.5481 276.577Z" fill="#F2F2F2"/>
<path d="M39.7812 193.428C39.7288 193.412 39.6761 193.394 39.6234 193.372C38.5495 192.956 37.6881 191.747 37.0624 189.778C36.7695 188.852 36.7004 187.878 36.5625 185.934C36.5409 185.635 36.4453 184.119 36.5628 182.11C36.6393 180.797 36.7414 180.269 36.9999 179.855C37.287 179.394 37.6737 179.13 38.0824 178.997C38.0935 178.823 38.1346 178.653 38.2163 178.492C38.5525 177.824 39.1153 178.099 39.4206 178.241C39.5745 178.318 39.7662 178.415 39.9819 178.465C40.3208 178.546 40.5232 178.464 40.8295 178.341C41.1226 178.224 41.4871 178.077 41.9908 178.09C42.9848 178.109 43.7206 178.726 43.9633 178.929C45.2412 179.991 45.6824 181.684 46.193 183.644C46.2944 184.037 46.6311 185.457 46.7095 187.286C46.7661 188.606 46.641 189.146 46.4976 189.532C46.2046 190.326 45.7559 190.694 44.6424 191.469C43.479 192.28 42.8954 192.686 42.4168 192.895C41.3031 193.378 40.6038 193.682 39.7812 193.428Z" fill="#F2F2F2"/>
<path d="M338.414 40.355C338.414 40.355 345.638 46.2107 343.269 52.0016C340.899 57.7926 337.596 65.6805 339.837 68.1647C342.078 70.6489 345.778 81.6019 345.778 81.6019C345.778 81.6019 361.569 78.5536 360.086 95.5071C358.604 112.461 351.185 114.772 357.544 122.23C363.902 129.689 350.935 138.609 350.935 138.609C350.935 138.609 341.984 134.753 339.941 122.897C337.899 111.041 341.762 131.962 340.467 133.463C339.171 134.963 334.141 144.851 330.581 131.704C327.022 118.557 330.546 113.46 325.843 105.701C321.14 97.9418 317.942 85.3919 318.082 83.1981C318.222 81.0043 312.702 60.9857 321.199 53.1786C329.695 45.3715 338.414 40.355 338.414 40.355Z" fill="#2F2E41"/>
<path d="M409.573 224.302C413.768 229.1 418.959 229.997 421.168 226.308C423.377 222.618 421.767 215.738 417.57 210.94C415.913 208.991 413.942 207.619 411.823 206.939L393.865 186.92L387.248 198.768L405.653 217.245C406.533 219.996 407.878 222.416 409.573 224.302Z" fill="#FFB6B6"/>
<path d="M355.753 115.126C355.753 115.126 341.66 102.1 337.045 108.487C332.43 114.874 333.533 130.828 333.533 130.828L370.489 190.356L399.794 216.101L407.652 199.095L383.015 168.71L355.753 115.126Z" fill="#3F3D56"/>
<path d="M335.095 86.9092L340.209 112.029H312.144L321.386 81.0776L335.095 86.9092Z" fill="#FFB6B6"/>
<path opacity="0.1" d="M335.095 86.9092L340.209 112.029H312.144L321.386 81.0776L335.095 86.9092Z" fill="black"/>
<path d="M273.892 272.376C273.53 279.884 276.04 286.229 279.497 286.547C282.954 286.865 286.05 281.036 286.411 273.525C286.586 270.527 286.238 267.515 285.397 264.742L286.642 232.901L275.819 232.413L275.741 263.853C274.641 266.449 274.007 269.372 273.892 272.376Z" fill="#FFB6B6"/>
<path d="M306.482 148.183C306.482 148.183 305.884 124.766 299.436 123.328C292.989 121.891 284.271 132.458 284.271 132.458L270.953 208.706L272.985 256.616L287.561 255.478L290.982 210.087L306.482 148.183Z" fill="#3F3D56"/>
<path d="M368.995 428.026C368.995 428.026 379.6 455.248 378.843 454.201C378.085 453.154 365.207 459.436 365.207 459.436L357.632 432.214L368.995 428.026Z" fill="#FFB6B6"/>
<path d="M384.648 237.477C384.648 237.477 390.077 267.47 389.529 266.197C388.982 264.925 375.381 266.63 375.381 266.63L372.889 237.669L384.648 237.477Z" fill="#FFB6B6"/>
<path d="M342.481 103.653H316.004L287.182 130.875L278.849 226.152L283.394 244.998L291.727 266.985C291.727 266.985 283.394 218.823 303.847 237.669C324.301 256.515 325.816 259.656 325.816 259.656L353.087 240.81L363.313 162.808L355.738 119.881L342.481 103.653Z" fill="#3F3D56"/>
<path d="M290.212 232.434C314.179 237.087 335.827 233.03 353.465 213.915C353.465 213.915 366.343 273.594 342.86 279.876C319.377 286.158 293.242 275.361 290.212 264.891C287.182 254.421 290.212 232.434 290.212 232.434Z" fill="#2F2E41"/>
<path d="M334.906 251.28L361.041 336.414L373.161 434.831L357.253 440.066L328.798 349.501L290.212 262.797L334.906 251.28Z" fill="#2F2E41"/>
<path d="M278 247.726C278 247.726 284.06 182.812 295.423 178.624C300.963 176.582 306.142 176.78 309.996 177.519C313.88 178.264 316.977 182.366 317.656 187.704L327.982 268.862H313.38L308.68 246.875L296.181 277.042L278 247.726Z" fill="#2F2E41"/>
<path d="M375.434 258.412L389.872 256.318L392.1 267.835C392.1 267.835 415.583 297.151 403.462 299.245C391.342 301.339 379.979 289.822 379.979 289.822L363.306 276.603C363.306 276.603 369.752 252.85 374.298 252.85C378.843 252.85 375.434 258.412 375.434 258.412Z" fill="#2F2E41"/>
<path d="M367.858 454.724L382.296 452.63L384.524 464.147C384.524 464.147 408.007 493.463 395.887 495.557C383.767 497.651 372.404 486.134 372.404 486.134L355.73 472.915C355.73 472.915 356.874 448.115 361.419 448.115C365.965 448.115 367.858 454.724 367.858 454.724Z" fill="#2F2E41"/>
<path d="M328.428 92.3678C337.762 92.3678 345.329 81.9095 345.329 69.0086C345.329 56.1077 337.762 45.6494 328.428 45.6494C319.094 45.6494 311.527 56.1077 311.527 69.0086C311.527 81.9095 319.094 92.3678 328.428 92.3678Z" fill="#FFB6B6"/>
<path d="M334.906 42.9243C334.906 42.9243 337.723 53.8252 333.216 56.1611C328.709 58.4971 322.512 61.6116 323.076 65.5048C323.639 69.398 321.386 81.0776 321.386 81.0776C321.386 81.0776 334.906 92.7572 325.893 104.437C316.879 116.116 310.118 111.304 311.527 122.664C312.935 134.025 298.851 129.353 298.851 129.353C298.851 129.353 293.781 118.452 297.724 107.551C301.668 96.6504 294.907 116.116 293.217 116.116C291.527 116.116 283.077 119.231 286.457 105.994C289.837 92.7572 294.907 91.9786 294.907 81.8562C294.907 71.7339 298.288 59.2757 299.414 57.7184C300.541 56.1611 305.611 35.9165 315.752 37.4738C325.893 39.0311 334.906 42.9243 334.906 42.9243Z" fill="#2F2E41"/>
<path d="M187.188 428.026C187.188 428.026 176.582 455.248 177.34 454.201C178.097 453.154 190.975 459.436 190.975 459.436L198.551 432.214L187.188 428.026Z" fill="#A0616A"/>
<path d="M265.971 232.434C242.004 237.087 220.356 233.03 202.717 213.915C202.717 213.915 189.839 273.594 213.322 279.876C236.806 286.158 262.941 275.361 265.971 264.891C269.001 254.421 265.971 232.434 265.971 232.434Z" fill="#2F2E41"/>
<path d="M221.276 251.28L195.142 336.414L183.021 434.831L198.929 440.066L227.384 349.501L265.971 262.797L221.276 251.28Z" fill="#2F2E41"/>
<path d="M188.324 454.724L173.886 452.63L171.658 464.147C171.658 464.147 148.175 493.463 160.295 495.557C172.416 497.651 183.779 486.134 183.779 486.134L200.452 472.915C200.452 472.915 199.308 448.115 194.763 448.115C190.218 448.115 188.324 454.724 188.324 454.724Z" fill="#2F2E41"/>
<path d="M211.134 413.704C211.134 413.704 207.122 444.12 207.609 442.801C208.096 441.482 221.748 441.967 221.748 441.967L222.878 412.843L211.134 413.704Z" fill="#A0616A"/>
<path d="M204.109 231.043L198.252 323.169L208.69 421.954L224.991 420.15L231.843 321.87L249.194 222.941L204.109 231.043Z" fill="#2F2E41"/>
<path d="M218.175 438.616L203.974 442.78L204.425 454.685C204.425 454.685 188.631 492.584 200.628 489.408C212.624 486.232 220.862 470.431 220.862 470.431L233.771 450.748C233.771 450.748 227.148 427.645 222.824 429.583C218.501 431.521 218.175 438.616 218.175 438.616Z" fill="#2F2E41"/>
<path d="M217.769 40.355C217.769 40.355 210.544 46.2107 212.914 52.0016C215.283 57.7926 218.586 65.6805 216.345 68.1647C214.104 70.6489 210.405 81.6019 210.405 81.6019C210.405 81.6019 194.614 78.5536 196.096 95.5071C197.579 112.461 204.997 114.772 198.639 122.23C192.28 129.689 205.247 138.609 205.247 138.609C205.247 138.609 214.199 134.753 216.241 122.897C218.283 111.041 214.42 131.962 215.716 133.463C217.011 134.963 222.042 144.851 225.601 131.704C229.161 118.557 225.636 113.46 230.339 105.701C235.043 97.9418 238.241 85.3919 238.1 83.1981C237.96 81.0043 243.48 60.9857 234.984 53.1786C226.487 45.3715 217.769 40.355 217.769 40.355Z" fill="#2F2E41"/>
<path d="M221.087 86.9092L215.974 112.029H244.038L234.797 81.0776L221.087 86.9092Z" fill="#A0616A"/>
<path opacity="0.1" d="M221.087 86.9092L215.974 112.029H244.038L234.797 81.0776L221.087 86.9092Z" fill="black"/>
<path d="M282.29 272.376C282.652 279.884 280.143 286.229 276.686 286.547C273.228 286.865 270.133 281.036 269.771 273.525C269.597 270.527 269.945 267.515 270.785 264.742L269.541 232.901L280.364 232.413L280.442 263.853C281.541 266.449 282.175 269.372 282.29 272.376Z" fill="#A0616A"/>
<path d="M249.7 148.183C249.7 148.183 250.298 124.766 256.746 123.328C263.194 121.891 271.912 132.458 271.912 132.458L285.23 208.706L283.198 256.616L268.621 255.478L265.2 210.087L249.7 148.183Z" fill="#98A8F8"/>
<path d="M213.701 103.653H240.179L269.001 130.875L277.334 226.152L272.788 244.998L264.456 266.985C264.456 266.985 272.788 218.823 252.335 237.669C252.131 237.857 251.928 238.044 251.727 238.229C238.561 250.383 221.188 249.136 209.001 235.167L199.308 224.058L204.611 187.413L200.444 119.881L213.701 103.653Z" fill="#98A8F8"/>
<path d="M147.447 222.937C143.2 227.646 138 228.435 135.832 224.699C133.664 220.963 135.349 214.119 139.598 209.409C141.277 207.495 143.262 206.165 145.389 205.529L163.565 185.89L170.051 197.875L151.444 215.963C150.534 218.696 149.163 221.087 147.447 222.937Z" fill="#A0616A"/>
<path d="M202.462 114.904C202.462 114.904 216.696 102.176 221.24 108.659C225.784 115.143 224.507 131.071 224.507 131.071L186.9 189.816L157.316 214.943L149.646 197.774L174.614 167.91L202.462 114.904Z" fill="#98A8F8"/>
<path d="M227.755 92.3678C237.089 92.3678 244.656 81.9095 244.656 69.0086C244.656 56.1077 237.089 45.6494 227.755 45.6494C218.421 45.6494 210.854 56.1077 210.854 69.0086C210.854 81.9095 218.421 92.3678 227.755 92.3678Z" fill="#A0616A"/>
<path d="M219.341 53.3511C219.341 53.3511 216.851 41.8799 221.001 41.8799C225.151 41.8799 241.75 43.027 243.41 45.3212C245.07 47.6155 264.712 70.6409 253.093 88.9948C241.473 107.349 253.093 116.217 253.093 116.217C253.093 116.217 261.669 143.973 253.37 146.268C245.07 148.562 211.026 135.443 219.341 114.148C228.365 91.0387 232.564 54.5638 219.341 53.3511Z" fill="#2F2E41"/>
<path d="M495.9 223.886C495.632 222.751 493.598 223.25 493.403 222.235C493.208 221.224 495.16 220.376 496.656 217.526C496.926 217.012 498.627 213.773 497.974 212.411C496.738 209.829 488.136 216.26 486.071 212.651C485.617 211.859 485.431 210.499 484.081 207.969C483.544 206.962 483.199 206.476 482.788 206.491C482.204 206.511 481.995 207.521 481.076 209.351C479.7 212.094 479.203 211.75 478.296 213.998C477.622 215.667 477.542 216.733 477.057 216.796C476.37 216.885 476.086 214.807 475.246 214.727C474.389 214.645 473.532 216.698 473.107 218.302C472.31 221.312 472.803 223.613 472.913 225.906C473.032 228.398 472.753 232.046 470.794 236.727L452.316 277.416C456.284 269.121 467.549 246.502 472.087 238.206C473.397 235.811 474.805 233.406 476.972 232.953C479.058 232.518 481.597 233.944 485.14 233.861C485.554 233.852 486.705 233.804 486.985 232.961C487.217 232.263 486.642 231.657 486.851 231.001C487.132 230.122 488.394 230.499 490.114 229.915C491.328 229.503 492.152 228.823 492.86 228.238C493.074 228.061 496.257 225.396 495.9 223.886Z" fill="#F2F2F2"/>
<path d="M447.504 233.385C447.024 233.24 446.614 234.764 446.198 234.603C445.782 234.443 446.044 232.875 445.464 231.037C445.359 230.706 444.7 228.618 444.028 228.667C442.754 228.761 442.556 236.452 440.679 236.811C440.267 236.89 439.73 236.624 438.442 236.81C437.929 236.884 437.657 236.978 437.544 237.261C437.382 237.663 437.681 238.096 438.066 239.247C438.643 240.973 438.377 241.21 438.914 242.474C439.312 243.413 439.668 243.774 439.55 244.122C439.383 244.614 438.563 244.207 438.293 244.753C438.016 245.311 438.498 246.485 438.945 247.236C439.784 248.645 440.743 248.974 441.589 249.561C442.508 250.2 443.723 251.442 444.82 254.121L453.938 278.396C452.137 273.31 447.355 259.143 445.719 253.671C445.246 252.091 444.798 250.442 445.263 248.841C445.71 247.3 446.949 245.99 447.942 243.563C448.058 243.279 448.374 242.484 448.155 242.051C447.974 241.692 447.593 241.908 447.42 241.576C447.189 241.132 447.687 240.385 447.976 239.049C448.18 238.108 448.176 237.352 448.173 236.703C448.172 236.507 448.144 233.579 447.504 233.385Z" fill="#F2F2F2"/>
<path d="M456.6 239.308L456.887 235.651L457.063 235.421C457.876 234.359 458.385 233.234 458.575 232.075C458.606 231.891 458.629 231.705 458.653 231.515C458.749 230.763 458.867 229.828 459.39 228.858C459.683 228.317 460.457 227.094 461.256 227.521C461.471 227.633 461.617 227.826 461.718 228.031C461.743 227.995 461.769 227.96 461.797 227.921C462.142 227.458 462.383 227.288 462.616 227.125C462.794 226.999 462.979 226.87 463.291 226.525C463.428 226.373 463.537 226.237 463.63 226.123C463.91 225.777 464.268 225.372 464.759 225.532C465.28 225.729 465.458 226.415 465.577 226.869C465.788 227.68 465.853 228.237 465.896 228.606C465.912 228.741 465.93 228.893 465.943 228.943C466.057 229.34 467.487 229.442 468.025 229.485C469.235 229.576 470.281 229.654 470.533 230.799C470.714 231.618 470.337 232.511 469.382 233.524C469.085 233.839 468.787 234.057 468.528 234.219C468.687 234.427 468.814 234.711 468.822 235.097C468.84 236.01 468.162 236.711 466.808 237.183C466.472 237.302 466.019 237.459 465.427 237.419C465.148 237.4 464.903 237.341 464.695 237.286C464.664 237.45 464.607 237.62 464.505 237.782C464.203 238.259 463.716 238.38 463.056 238.111C462.327 237.831 461.75 237.449 461.242 237.113C460.798 236.82 460.415 236.57 460.093 236.502C459.496 236.386 458.939 236.896 458.272 237.575L456.6 239.308Z" fill="#F2F2F2"/>
<path d="M461.37 218.478L458.738 219.023L458.533 218.846C457.583 218.028 456.666 217.634 455.807 217.672C455.671 217.678 455.534 217.694 455.395 217.71C454.845 217.774 454.161 217.853 453.349 217.4C452.896 217.146 451.844 216.42 451.94 215.244C451.964 214.928 452.062 214.684 452.18 214.497C452.148 214.472 452.117 214.447 452.083 214.419C451.671 214.076 451.491 213.796 451.318 213.527C451.184 213.32 451.047 213.106 450.726 212.776C450.586 212.632 450.463 212.52 450.359 212.425C450.046 212.138 449.672 211.762 449.659 211.065C449.665 210.319 450.1 209.906 450.388 209.633C450.901 209.145 451.275 208.916 451.522 208.765C451.613 208.71 451.715 208.647 451.746 208.616C451.995 208.364 451.704 206.426 451.597 205.695C451.354 204.056 451.144 202.636 451.881 202.01C452.408 201.561 453.129 201.837 454.08 202.857C454.376 203.175 454.604 203.517 454.783 203.823C454.888 203.557 455.055 203.315 455.323 203.207C455.957 202.952 456.62 203.68 457.294 205.371C457.462 205.79 457.687 206.355 457.809 207.157C457.867 207.535 457.887 207.877 457.902 208.169C458.024 208.169 458.158 208.202 458.297 208.298C458.708 208.58 458.916 209.2 458.895 210.151C458.884 211.198 458.763 212.065 458.656 212.83C458.564 213.498 458.487 214.073 458.52 214.52C458.591 215.348 459.089 215.964 459.734 216.684L461.37 218.478Z" fill="#F2F2F2"/>
<path d="M461.725 207.554L462.011 203.897L462.187 203.667C463 202.605 463.509 201.479 463.7 200.321C463.73 200.137 463.754 199.95 463.778 199.761C463.873 199.009 463.991 198.074 464.514 197.103C464.807 196.562 465.581 195.34 466.38 195.767C466.595 195.878 466.741 196.072 466.842 196.276C466.867 196.241 466.893 196.205 466.921 196.167C467.266 195.704 467.507 195.534 467.74 195.37C467.918 195.245 468.103 195.115 468.415 194.77C468.552 194.619 468.662 194.483 468.754 194.368C469.034 194.022 469.393 193.617 469.884 193.778C470.404 193.974 470.583 194.661 470.701 195.115C470.912 195.925 470.977 196.482 471.021 196.852C471.036 196.987 471.054 197.139 471.068 197.188C471.182 197.585 472.612 197.688 473.15 197.731C474.359 197.821 475.406 197.9 475.657 199.044C475.838 199.863 475.462 200.756 474.506 201.77C474.209 202.085 473.911 202.302 473.652 202.465C473.812 202.673 473.939 202.956 473.946 203.342C473.964 204.255 473.286 204.956 471.932 205.429C471.596 205.547 471.143 205.704 470.551 205.665C470.272 205.646 470.028 205.587 469.819 205.531C469.788 205.695 469.731 205.866 469.629 206.028C469.327 206.505 468.841 206.626 468.18 206.357C467.451 206.076 466.875 205.694 466.366 205.358C465.922 205.066 465.539 204.816 465.218 204.748C464.62 204.632 464.063 205.142 463.396 205.821L461.725 207.554Z" fill="#F2F2F2"/>
<path d="M453.19 277.624L452.724 276.989L452.077 276.894C452.081 276.81 452.076 276.614 452.072 276.306C452.047 274.624 451.969 269.504 452.485 261.637C452.846 256.145 453.447 250.571 454.274 245.066C455.103 239.552 455.962 235.449 456.653 232.152C457.174 229.665 457.7 227.306 458.213 225.008C459.583 218.869 460.877 213.071 461.678 206.456C461.857 204.98 462.23 201.906 461.467 198.278C461.025 196.174 460.268 194.194 459.216 192.394L460.234 191.257C461.395 193.246 462.232 195.44 462.724 197.776C463.569 201.798 463.163 205.147 462.968 206.756C462.153 213.487 460.846 219.342 459.463 225.54C458.952 227.829 458.428 230.178 457.909 232.655C457.225 235.922 456.373 239.989 455.555 245.432C454.738 250.871 454.143 256.377 453.787 261.8C453.278 269.567 453.355 274.611 453.38 276.268C453.393 277.153 453.395 277.338 453.19 277.624Z" fill="#F2F2F2"/>
<path d="M456.423 194.475C456.37 194.459 456.317 194.441 456.265 194.419C455.191 194.003 454.329 192.794 453.704 190.825C453.411 189.899 453.342 188.925 453.204 186.981C453.182 186.682 453.087 185.166 453.204 183.156C453.281 181.844 453.383 181.316 453.641 180.902C453.928 180.441 454.315 180.177 454.724 180.044C454.735 179.87 454.776 179.7 454.858 179.539C455.194 178.871 455.757 179.145 456.062 179.288C456.216 179.365 456.408 179.462 456.623 179.512C456.962 179.593 457.165 179.511 457.471 179.388C457.764 179.27 458.128 179.124 458.632 179.137C459.626 179.155 460.362 179.773 460.605 179.976C461.883 181.037 462.324 182.731 462.834 184.691C462.936 185.084 463.273 186.504 463.351 188.333C463.408 189.653 463.282 190.193 463.139 190.579C462.846 191.373 462.397 191.741 461.284 192.516C460.12 193.327 459.537 193.733 459.058 193.942C457.945 194.425 457.245 194.729 456.423 194.475Z" fill="#F2F2F2"/>
<path d="M126.628 214.313L125.774 177.047C125.76 176.442 125.932 175.853 126.246 175.431C126.56 175.009 126.991 174.788 127.428 174.824L148.824 176.598C149.256 176.633 149.662 176.919 149.937 177.381C150.212 177.843 150.336 178.448 150.278 179.041L146.659 216.08C146.549 217.201 145.824 218.02 145.008 217.945L128.086 216.398C127.915 216.383 127.751 216.33 127.6 216.245C127.041 215.933 126.649 215.19 126.628 214.313Z" fill="#98A8F8"/>
<path d="M125.8 173.561C126.1 173.517 126.501 173.464 126.982 173.408C126.853 173.077 126.801 172.685 126.856 172.283L127.238 169.492C127.337 168.767 127.759 168.212 128.288 168.114C131.438 167.532 142.274 165.952 149.097 170.231C149.524 170.498 149.799 171.086 149.812 171.734L149.875 174.712C149.882 175.08 149.805 175.421 149.669 175.704C150.236 175.915 150.802 176.138 151.363 176.381C151.714 176.533 151.966 176.962 152.008 177.468L152.114 178.736C152.181 179.541 151.704 180.233 151.119 180.178L125.54 177.791C124.958 177.737 124.552 176.969 124.692 176.186L124.987 174.539C125.082 174.009 125.407 173.618 125.8 173.561Z" fill="#3F3D56"/>
<path d="M62.2383 108.566L61.3836 71.3003C61.3697 70.6954 61.5417 70.1065 61.8557 69.6846C62.1698 69.2624 62.6007 69.0411 63.0381 69.0773L84.4339 70.8509C84.8662 70.8864 85.2717 71.1721 85.5466 71.6344C85.8216 72.0964 85.9461 72.7014 85.8882 73.2943L82.2687 110.333C82.1592 111.454 81.4341 112.273 80.6178 112.198L63.6963 110.652C63.5246 110.636 63.3611 110.583 63.2097 110.498C62.6508 110.186 62.2585 109.443 62.2383 108.566Z" fill="#98A8F8"/>
<path d="M61.4101 67.8142C61.7095 67.7706 62.1105 67.717 62.5918 67.6611C62.4631 67.3299 62.4105 66.9383 62.4655 66.5363L62.8476 63.7449C62.9468 63.0205 63.3691 62.4651 63.8978 62.3674C67.0482 61.7851 77.8839 60.2055 84.7069 64.4838C85.1338 64.7515 85.4084 65.3393 85.422 65.9869L85.4844 68.9648C85.4921 69.333 85.4147 69.6743 85.279 69.9572C85.8463 70.168 86.4116 70.391 86.9725 70.634C87.3239 70.7863 87.5755 71.2151 87.6177 71.7208L87.7237 72.9892C87.791 73.7941 87.3136 74.4861 86.7287 74.4315L61.1497 72.044C60.5676 71.9897 60.1622 71.2219 60.3022 70.4392L60.5969 68.7924C60.6919 68.2618 61.0169 67.8714 61.4101 67.8142Z" fill="#3F3D56"/>
<path d="M397.824 223.736L396.97 186.47C396.956 185.865 397.128 185.276 397.442 184.854C397.756 184.432 398.187 184.211 398.624 184.247L420.02 186.021C420.452 186.056 420.858 186.342 421.133 186.804C421.408 187.266 421.532 187.871 421.474 188.464L417.855 225.503C417.745 226.624 417.02 227.443 416.204 227.368L399.282 225.821C399.111 225.805 398.947 225.753 398.796 225.668C398.237 225.356 397.844 224.613 397.824 223.736Z" fill="#98A8F8"/>
<path d="M396.996 182.984C397.295 182.94 397.696 182.887 398.178 182.831C398.049 182.5 397.996 182.108 398.051 181.706L398.434 178.915C398.533 178.19 398.955 177.635 399.484 177.537C402.634 176.955 413.47 175.375 420.293 179.654C420.72 179.921 420.994 180.509 421.008 181.157L421.07 184.134C421.078 184.503 421.001 184.844 420.865 185.127C421.432 185.338 421.998 185.561 422.558 185.804C422.91 185.956 423.161 186.385 423.204 186.89L423.31 188.159C423.377 188.964 422.899 189.656 422.315 189.601L396.736 187.214C396.153 187.159 395.748 186.392 395.888 185.609L396.183 183.962C396.278 183.432 396.603 183.041 396.996 182.984Z" fill="#3F3D56"/>
</g>
<defs>
<clipPath id="clip0_197_234">
<rect width="500" height="500" fill="white"/>
</clipPath>
</defs>
</svg>
