<svg width="401" height="125" viewBox="0 0 401 125" fill="none" xmlns="http://www.w3.org/2000/svg">
<mask id="mask0_60_22" style="mask-type:luminance" maskUnits="userSpaceOnUse" x="0" y="0" width="401" height="125">
<path d="M376 0H25C11.1929 0 0 11.1929 0 25V100C0 113.807 11.1929 125 25 125H376C389.807 125 401 113.807 401 100V25C401 11.1929 389.807 0 376 0Z" fill="white"/>
</mask>
<g mask="url(#mask0_60_22)">
<path d="M376 0H25C11.1929 0 0 11.1929 0 25V100C0 113.807 11.1929 125 25 125H376C389.807 125 401 113.807 401 100V25C401 11.1929 389.807 0 376 0Z" fill="#589BFF"/>
<path d="M-5.34058e-05 81.8078C23.2067 84.0009 46.695 92.1462 68.5297 85.4746C91.9782 78.3099 114.078 63.7261 121.807 44.5893C129.402 25.7844 114.742 6.57524 108.083 -12.4565C102.321 -28.927 96.9281 -44.9279 85.4436 -59.3457C72.3774 -75.7491 60.1667 -95.2277 37.1729 -101.478C14.0361 -107.767 -12.3745 -101.41 -33.5919 -91.702C-52.6636 -82.9752 -60.387 -65.1511 -73.3148 -50.9216C-84.9778 -38.0844 -101.447 -27.6841 -105.825 -12.196C-110.367 3.87502 -106.101 20.7261 -97.8296 35.8119C-89.4804 51.04 -76.7757 65.0181 -58.876 73.434C-41.3281 81.6844 -20.2038 79.8985 -5.34058e-05 81.8078Z" fill="#223255"/>
<path d="M401 235.362C431.878 239.652 462.931 246.895 492.954 239.691C528.237 231.225 565.712 217.684 583.111 191.664C600.702 165.359 599.379 131.023 583.73 103.941C569.183 78.7652 530.443 71.2143 503.467 53.8306C482.263 40.167 465.433 23.9627 442.137 12.6989C411.802 -1.96875 382.461 -24.9109 347.263 -21.6969C311.598 -18.4402 282.478 4.96161 262.88 29.0674C244.492 51.6853 247.448 80.0299 242.822 106.77C238.221 133.358 218.23 162.625 235.821 185.466C253.621 208.578 295.772 207.119 327.481 216.697C352.033 224.113 375.148 231.769 401 235.362Z" fill="#C1EFF2"/>
</g>
</svg>
