<svg width="262" height="191" viewBox="0 0 262 191" fill="none" xmlns="http://www.w3.org/2000/svg">
<g clip-path="url(#clip0_16_667)">
<path d="M262 105.16C262 105.345 261.851 105.496 261.667 105.496H0V104.824H261.667C261.851 104.824 262 104.974 262 105.16Z" fill="#E6E6E6"/>
<path d="M86.0373 23.5698C91.4986 23.5698 95.9259 19.109 95.9259 13.6063C95.9259 8.10357 91.4986 3.64273 86.0373 3.64273C80.576 3.64273 76.1487 8.10357 76.1487 13.6063C76.1487 19.109 80.576 23.5698 86.0373 23.5698Z" fill="#FFB6B6"/>
<path d="M91.2773 25.6722L78.2612 29.4192L76.4018 33.6347L72.2181 53.7751V85.6251C72.2181 85.6251 67.1046 96.8662 69.8938 106.702C72.8751 117.216 83.3747 104.807 91.2773 106.223C99.1799 107.639 111.731 109.044 111.731 109.044L104.293 74.8523L102.434 33.1663L91.2773 25.6722Z" fill="#E6E6E6"/>
<path d="M88.8211 16.8691L86.8106 15.8563C86.8106 15.8563 86.308 11.2985 85.3028 10.2856C84.2976 9.27278 84.2976 8.76636 84.2976 8.76636L85.8054 6.74067C85.8054 6.74067 78.2662 10.792 76.7584 8.25994C75.2505 5.72783 77.261 4.71499 77.261 4.71499L74.7479 2.6893C74.7479 2.6893 77.7636 4.71499 78.2662 3.19572C78.7688 1.67645 81.7845 0.645664 81.7845 0.645664C81.7845 0.645664 88.3699 2.14699 87.8416 0.645664C87.3133 -0.855657 89.3237 0.66361 89.8263 1.17003C90.3289 1.67645 94.8525 6.74067 95.3551 6.23425C95.8577 5.72783 98.3707 7.24709 97.8681 7.75352C97.3655 8.25994 97.3655 8.76636 97.8681 9.27278C98.3707 9.77921 101.386 15.3498 98.8734 17.3755C96.3603 19.4012 92.842 21.9333 93.3446 23.959C93.8472 25.9847 93.3446 17.3755 88.8211 16.8691Z" fill="#2F2E41"/>
<path d="M40.0748 41.9547C37.5368 39.7502 36.6084 36.6438 38.001 35.0166C39.3937 33.3893 42.5796 33.8576 45.1182 36.0632C46.1443 36.9302 46.9494 38.0322 47.4662 39.277L58.103 48.7544L53.5826 53.6889L43.5765 43.8221C42.278 43.4903 41.0773 42.85 40.0748 41.9547Z" fill="#FFB6B6"/>
<path d="M76.5134 33.7958L83.52 33.154L89.6645 62.681C90.8354 68.3072 87.175 73.8002 81.5634 74.8381L76.5134 75.7721L44.3265 47.2178L49.029 39.3191L72.7654 54.3215L76.5134 33.7958Z" fill="#E6E6E6"/>
<path d="M60.8711 165.106C60.8711 165.106 55.3139 175.505 55.7108 175.105C56.1078 174.705 62.8559 177.104 62.8559 177.104L66.8253 166.706L60.8711 165.106Z" fill="#FFB6B6"/>
<path d="M52.6688 92.316C52.6688 92.316 49.8241 103.773 50.111 103.287C50.398 102.801 57.5248 103.453 57.5248 103.453L58.8306 92.3892L52.6688 92.316Z" fill="#FFB6B6"/>
<path d="M102.153 90.3895C89.5947 92.1671 78.2512 90.6172 69.0084 83.3153C69.0084 83.3153 62.2604 106.113 74.5657 108.512C86.871 110.912 100.566 106.788 102.153 102.788C103.741 98.7885 102.153 90.3895 102.153 90.3895Z" fill="#2F2E41"/>
<path d="M78.7336 97.5886L65.039 130.11L58.6879 167.705L67.0237 169.705L81.9342 135.109L102.153 101.988L78.7336 97.5886Z" fill="#2F2E41"/>
<path d="M76.9474 88.3147C76.9474 88.3147 73.7719 63.5176 67.8177 61.9178C64.915 61.1379 62.201 61.2134 60.1815 61.4957C58.1461 61.7803 56.5236 63.3471 56.1677 65.3863L50.7568 96.3888H58.4082L60.8711 87.9898L67.4207 99.5134L76.9474 88.3147Z" fill="#2F2E41"/>
<path d="M57.4971 100.313L49.9317 99.5134L48.7643 103.913C48.7643 103.913 36.4589 115.112 42.8101 115.912C49.1612 116.711 55.1154 112.312 55.1154 112.312L63.8521 107.262C63.8521 107.262 60.4742 98.1886 58.0925 98.1886C55.7108 98.1886 57.4971 100.313 57.4971 100.313Z" fill="#2F2E41"/>
<path d="M61.4665 175.305L53.9011 174.505L52.7337 178.904C52.7337 178.904 40.4284 190.103 46.7796 190.903C53.1307 191.703 59.0849 187.303 59.0849 187.303L67.8216 182.253C67.8216 182.253 67.2223 172.78 64.8406 172.78C62.4589 172.78 61.4665 175.305 61.4665 175.305Z" fill="#2F2E41"/>
<path d="M99.7727 114.758C98.8605 117.91 96.5069 119.991 94.516 119.406C92.5251 118.821 91.6511 115.791 92.564 112.638C92.9115 111.373 93.5546 110.211 94.4394 109.248L98.4717 95.9413L104.629 97.981L100 110.883C100.232 112.174 100.155 113.503 99.7727 114.758Z" fill="#FFB6B6"/>
<path d="M104.034 33.2242L100.824 32.3119C97.7965 38.3809 96.4948 45.1756 97.0626 51.9439L98.6472 70.8299L93.4188 104.025L103.666 106.696L111.742 65.0378L104.034 33.2242Z" fill="#E6E6E6"/>
<path d="M41.5315 85.1244C41.3909 84.6909 40.3253 84.8817 40.223 84.494C40.121 84.1077 41.1435 83.7837 41.9277 82.695C42.0692 82.4987 42.9604 81.2614 42.6186 80.741C41.9707 79.7546 37.463 82.2113 36.381 80.8327C36.1435 80.5302 36.0458 80.0108 35.3384 79.0441C35.057 78.6596 34.8764 78.4739 34.6607 78.4794C34.3546 78.4872 34.2451 78.8731 33.764 79.572C33.0425 80.6201 32.7821 80.4885 32.3068 81.3473C31.954 81.9849 31.9122 82.3922 31.6577 82.4162C31.2977 82.4502 31.1489 81.6565 30.709 81.6257C30.26 81.5943 29.8108 82.3786 29.5881 82.9913C29.1701 84.1412 29.4289 85.0202 29.4863 85.8961C29.5487 86.848 29.4023 88.2414 28.3758 90.0299L18.6936 105.573C20.7729 102.404 26.6754 93.7639 29.0535 90.5946C29.74 89.6797 30.4777 88.761 31.6132 88.5882C32.7064 88.4218 34.0366 88.9667 35.8932 88.935C36.1101 88.9313 36.7135 88.9132 36.8603 88.591C36.9817 88.3246 36.6804 88.0929 36.79 87.8425C36.937 87.5065 37.5985 87.6507 38.4999 87.4276C39.1356 87.2702 39.5674 87.0103 39.9388 86.7868C40.0507 86.7194 41.7186 85.7014 41.5315 85.1244Z" fill="#F2F2F2"/>
<path d="M16.1721 88.7533C15.9204 88.6977 15.7059 89.2798 15.4875 89.2185C15.2699 89.1574 15.4071 88.5583 15.1031 87.8563C15.0482 87.7298 14.7027 86.932 14.3506 86.9509C13.6832 86.9867 13.5792 89.9247 12.5955 90.062C12.3796 90.0922 12.0984 89.9906 11.4234 90.0616C11.1549 90.0898 11.0124 90.1255 10.9528 90.2338C10.8683 90.3874 11.0246 90.5529 11.2263 90.9924C11.5287 91.6517 11.3894 91.7425 11.6706 92.2253C11.8794 92.5837 12.0658 92.7219 12.004 92.8547C11.9167 93.0425 11.4871 92.8871 11.3452 93.0958C11.2004 93.3087 11.4528 93.7572 11.687 94.0441C12.1266 94.5826 12.6294 94.7082 13.0726 94.9326C13.5543 95.1764 14.1908 95.6508 14.7658 96.6745L19.5434 105.947C18.5999 104.005 16.0941 98.5928 15.2364 96.5023C14.9888 95.8988 14.7542 95.2689 14.9976 94.6575C15.232 94.0689 15.8813 93.5683 16.4015 92.641C16.4623 92.5327 16.6276 92.2291 16.513 92.0635C16.4182 91.9266 16.2184 92.0088 16.1281 91.8823C16.0069 91.7127 16.2679 91.4271 16.4193 90.917C16.5261 90.5572 16.5241 90.2687 16.5224 90.0205C16.5218 89.9457 16.5072 88.8272 16.1721 88.7533Z" fill="#F2F2F2"/>
<path d="M20.9385 91.0157L21.0886 89.6187L21.1808 89.531C21.6069 89.1252 21.8735 88.6953 21.9735 88.2528C21.9894 88.1825 22.0017 88.1113 22.0143 88.0389C22.0642 87.7516 22.1261 87.3946 22.4002 87.0237C22.5536 86.8171 22.9593 86.35 23.3778 86.5132C23.4907 86.5558 23.567 86.6296 23.6199 86.7078C23.6332 86.6942 23.6468 86.6807 23.6614 86.666C23.8422 86.489 23.9686 86.4242 24.0904 86.3617C24.184 86.3137 24.2807 86.2643 24.4443 86.1324C24.516 86.0747 24.5735 86.0226 24.6219 85.9789C24.7687 85.8468 24.9565 85.6921 25.2138 85.7534C25.4865 85.8285 25.58 86.0906 25.6421 86.2642C25.7528 86.5737 25.787 86.7865 25.8095 86.9277C25.8177 86.9793 25.8271 87.0373 25.8342 87.0562C25.8939 87.2078 26.6432 87.247 26.9252 87.2634C27.5589 87.298 28.1073 87.328 28.2392 87.7653C28.3338 88.0781 28.1366 88.4192 27.6361 88.8062C27.4802 88.9266 27.3244 89.0097 27.1886 89.0718C27.2721 89.1514 27.3386 89.2596 27.3427 89.407C27.3519 89.7558 26.9968 90.0235 26.2873 90.204C26.111 90.2493 25.8738 90.3093 25.5635 90.2942C25.4173 90.2869 25.2893 90.2643 25.1802 90.2433C25.1639 90.3059 25.1341 90.3711 25.0803 90.4329C24.9224 90.615 24.6673 90.6613 24.3212 90.5587C23.939 90.4514 23.6371 90.3055 23.3706 90.1772C23.1379 90.0655 22.9372 89.9699 22.7689 89.9438C22.4557 89.8997 22.1637 90.0945 21.8142 90.3538L20.9385 91.0157Z" fill="#F2F2F2"/>
<path d="M23.4378 83.0588L22.0585 83.2668L21.9509 83.1993C21.4533 82.8869 20.9729 82.7361 20.5228 82.7509C20.4512 82.7532 20.3798 82.7592 20.307 82.7653C20.0186 82.7896 19.6601 82.8198 19.2346 82.6468C18.9973 82.5497 18.446 82.2727 18.4965 81.8234C18.5088 81.7026 18.5603 81.6095 18.6219 81.5381C18.6055 81.5286 18.5891 81.5187 18.5713 81.5083C18.3555 81.377 18.2612 81.2702 18.1703 81.1673C18.1005 81.0882 18.0285 81.0066 17.8605 80.8806C17.7868 80.8253 17.7223 80.7825 17.668 80.7464C17.504 80.6368 17.3078 80.493 17.3014 80.2267C17.3043 79.9419 17.5322 79.7843 17.6831 79.6798C17.9521 79.4933 18.1478 79.406 18.2776 79.3482C18.3251 79.3272 18.3784 79.3033 18.3947 79.2916C18.5251 79.195 18.3727 78.4547 18.3169 78.1758C18.1894 77.5493 18.0791 77.0072 18.4654 76.7678C18.7417 76.5962 19.1193 76.7019 19.6178 77.0915C19.7729 77.2129 19.8922 77.3438 19.9862 77.4604C20.0414 77.3588 20.1284 77.2665 20.2689 77.2251C20.6015 77.1277 20.9486 77.4059 21.3018 78.0516C21.39 78.2119 21.5078 78.4279 21.5719 78.7342C21.602 78.8784 21.6128 79.0089 21.6203 79.1207C21.6846 79.1206 21.7547 79.1332 21.8277 79.1699C22.0426 79.2777 22.1517 79.5145 22.141 79.8779C22.1349 80.2775 22.0714 80.6088 22.0158 80.9011C21.9676 81.1562 21.9268 81.376 21.9445 81.5467C21.9816 81.8631 22.2427 82.0983 22.5802 82.3732L23.4378 83.0588Z" fill="#F2F2F2"/>
<path d="M23.6237 78.8856L23.7738 77.4886L23.8659 77.4008C24.2921 76.995 24.5586 76.5651 24.6586 76.1226C24.6746 76.0523 24.6869 75.9811 24.6995 75.9087C24.7494 75.6214 24.8113 75.2644 25.0854 74.8935C25.2387 74.6869 25.6445 74.2198 26.063 74.383C26.1759 74.4256 26.2521 74.4994 26.3051 74.5776C26.3184 74.564 26.332 74.5505 26.3466 74.5358C26.5274 74.3588 26.6538 74.294 26.7756 74.2316C26.8692 74.1835 26.9659 74.1341 27.1294 74.0023C27.2012 73.9445 27.2586 73.8924 27.3071 73.8487C27.4539 73.7166 27.6417 73.5619 27.899 73.6232C28.1717 73.6983 28.2652 73.9604 28.3272 74.134C28.438 74.4435 28.4722 74.6563 28.4947 74.7975C28.5029 74.8491 28.5123 74.9072 28.5194 74.926C28.5791 75.0776 29.3284 75.1168 29.6104 75.1332C30.2441 75.1678 30.7925 75.1978 30.9244 75.6351C31.019 75.9479 30.8218 76.289 30.3213 76.676C30.1654 76.7965 30.0095 76.8796 29.8738 76.9416C29.9573 77.0212 30.0238 77.1294 30.0279 77.2768C30.0371 77.6256 29.6819 77.8933 28.9725 78.0738C28.7962 78.1191 28.559 78.1791 28.2487 78.164C28.1025 78.1567 27.9745 78.1341 27.8654 78.1131C27.8491 78.1757 27.8192 78.2409 27.7654 78.3027C27.6075 78.4848 27.3525 78.5311 27.0064 78.4285C26.6242 78.3212 26.3223 78.1753 26.0558 78.047C25.8231 77.9353 25.6224 77.8398 25.454 77.8137C25.1409 77.7695 24.8489 77.9644 24.4994 78.2236L23.6237 78.8856Z" fill="#F2F2F2"/>
<path d="M19.1513 105.652L18.9075 105.41L18.5685 105.374C18.5701 105.341 18.5679 105.266 18.5654 105.149C18.5524 104.506 18.5119 102.551 18.7822 99.5453C18.971 97.4475 19.2864 95.318 19.7197 93.2151C20.1537 91.1088 20.6041 89.5417 20.9659 88.282C21.239 87.332 21.5145 86.4309 21.7836 85.5532C22.5015 83.2081 23.1794 80.993 23.5992 78.4662C23.6932 77.9022 23.8883 76.7281 23.4888 75.3423C23.2571 74.5386 22.8603 73.7821 22.309 73.0945L22.8425 72.6603C23.4508 73.4201 23.8897 74.258 24.147 75.1504C24.5899 76.6868 24.3774 77.9662 24.2752 78.5809C23.848 81.1522 23.1633 83.3887 22.4383 85.7563C22.1707 86.6309 21.896 87.528 21.6241 88.4742C21.2656 89.7221 20.8192 91.2757 20.3908 93.3549C19.9624 95.4327 19.6511 97.5361 19.4644 99.6074C19.1977 102.575 19.2378 104.502 19.2509 105.135C19.2577 105.473 19.2591 105.543 19.1513 105.652Z" fill="#F2F2F2"/>
<path d="M20.8454 73.8895C20.818 73.8834 20.7904 73.8765 20.7627 73.8682C20.2 73.7093 19.7487 73.2472 19.4208 72.4951C19.2673 72.1415 19.2311 71.7692 19.1589 71.0269C19.1475 70.9125 19.0974 70.3333 19.159 69.5658C19.1991 69.0643 19.2526 68.8629 19.388 68.7047C19.5385 68.5285 19.7411 68.4276 19.9553 68.3769C19.9611 68.3105 19.9826 68.2456 20.0254 68.184C20.2016 67.9286 20.4965 68.0336 20.6565 68.0882C20.7371 68.1174 20.8376 68.1545 20.9506 68.1736C21.1282 68.2046 21.2342 68.1731 21.3947 68.1263C21.5483 68.0814 21.7393 68.0255 22.0033 68.0302C22.5241 68.0374 22.9097 68.2733 23.0369 68.3509C23.7065 68.7563 23.9377 69.4031 24.2052 70.152C24.2584 70.3021 24.4348 70.8447 24.4759 71.5434C24.5056 72.0475 24.44 72.2538 24.3648 72.4013C24.2113 72.7047 23.9762 72.8453 23.3927 73.1411C22.7831 73.4511 22.4773 73.6062 22.2265 73.6859C21.6429 73.8705 21.2765 73.9864 20.8454 73.8895Z" fill="#F2F2F2"/>
<path d="M177.329 15.4156C177.329 15.4156 181.114 17.6525 179.873 19.8646C178.631 22.0767 176.901 25.0899 178.075 26.0389C179.249 26.9879 181.187 31.1719 181.187 31.1719C181.187 31.1719 189.462 30.0075 188.685 36.4837C187.908 42.96 184.021 43.8429 187.353 46.692C190.685 49.541 183.89 52.9485 183.89 52.9485C183.89 52.9485 179.199 51.4757 178.129 46.9466C177.059 42.4175 179.083 50.4097 178.404 50.9827C177.726 51.5558 175.09 55.333 173.224 50.3109C171.359 45.2889 173.206 43.3417 170.742 40.3777C168.277 37.4138 166.602 32.6197 166.675 31.7817C166.748 30.9436 163.856 23.2965 168.308 20.3142C172.76 17.3319 177.329 15.4156 177.329 15.4156Z" fill="#2F2E41"/>
<path d="M214.616 85.6832C216.814 87.516 219.534 87.859 220.692 86.4495C221.849 85.0399 221.006 82.412 218.807 80.5789C217.938 79.8345 216.906 79.3104 215.795 79.0506L206.385 71.4035L202.918 75.9292L212.562 82.9874C213.023 84.0384 213.728 84.9628 214.616 85.6832Z" fill="#FFB6B6"/>
<path d="M186.414 43.978C186.414 43.978 179.03 39.002 176.612 41.442C174.194 43.8819 174.771 49.9762 174.771 49.9762L194.136 72.716L209.492 82.5507L213.61 76.0543L200.7 64.4473L186.414 43.978Z" fill="#3F3D56"/>
<path d="M175.59 33.1993L178.269 42.795H163.564L168.406 30.9716L175.59 33.1993Z" fill="#FFB6B6"/>
<path opacity="0.1" d="M175.59 33.1993L178.269 42.795H163.564L168.406 30.9716L175.59 33.1993Z" fill="black"/>
<path d="M143.52 104.048C143.33 106.916 144.645 109.339 146.456 109.461C148.268 109.582 149.89 107.356 150.08 104.486C150.171 103.341 149.989 102.191 149.548 101.131L150.2 88.9683L144.529 88.7816L144.488 100.792C143.912 101.784 143.58 102.9 143.52 104.048Z" fill="#FFB6B6"/>
<path d="M160.597 56.6059C160.597 56.6059 160.283 47.6605 156.905 47.1114C153.526 46.5622 148.958 50.5988 148.958 50.5988L141.979 79.7256L143.044 98.0274L150.682 97.5927L152.475 80.2532L160.597 56.6059Z" fill="#3F3D56"/>
<path d="M193.353 163.506C193.353 163.506 198.91 173.905 198.514 173.505C198.117 173.105 191.369 175.505 191.369 175.505L187.399 165.106L193.353 163.506Z" fill="#FFB6B6"/>
<path d="M201.556 90.7162C201.556 90.7162 204.4 102.174 204.113 101.687C203.826 101.201 196.7 101.853 196.7 101.853L195.394 90.7894L201.556 90.7162Z" fill="#FFB6B6"/>
<path d="M179.46 39.5954H165.586L150.483 49.9942L146.117 86.3899L148.498 93.5891L152.865 101.988C152.865 101.988 148.498 83.5903 159.216 90.7894C169.933 97.9886 170.727 99.1885 170.727 99.1885L185.017 91.9893L190.376 62.1928L186.407 45.7947L179.46 39.5954Z" fill="#3F3D56"/>
<path d="M152.071 88.7897C164.63 90.5673 175.973 89.0174 185.216 81.7155C185.216 81.7155 191.964 104.513 179.659 106.913C167.353 109.312 153.659 105.188 152.071 101.188C150.483 97.1887 152.071 88.7897 152.071 88.7897Z" fill="#2F2E41"/>
<path d="M175.491 95.9888L189.185 128.51L195.536 166.106L187.201 168.105L172.29 133.509L152.071 100.388L175.491 95.9888Z" fill="#2F2E41"/>
<path d="M177.277 86.7149C177.277 86.7149 180.453 61.9178 186.407 60.318C189.309 59.5381 192.023 59.6136 194.043 59.8959C196.078 60.1804 197.701 61.7473 198.057 63.7865L203.468 94.789H195.816L193.353 86.3899L186.804 97.9136L177.277 86.7149Z" fill="#2F2E41"/>
<path d="M196.727 98.7135L204.293 97.9136L205.46 102.313C205.46 102.313 217.765 113.512 211.414 114.312C205.063 115.112 199.109 110.712 199.109 110.712L190.372 105.662C190.372 105.662 193.75 96.5888 196.132 96.5888C198.514 96.5888 196.727 98.7135 196.727 98.7135Z" fill="#2F2E41"/>
<path d="M192.758 173.705L200.323 172.905L201.491 177.304C201.491 177.304 213.796 188.503 207.445 189.303C201.094 190.103 195.14 185.703 195.14 185.703L186.403 180.654C186.403 180.654 187.002 171.18 189.384 171.18C191.765 171.18 192.758 173.705 192.758 173.705Z" fill="#2F2E41"/>
<path d="M172.096 35.2845C176.987 35.2845 180.952 31.2894 180.952 26.3613C180.952 21.4331 176.987 17.4381 172.096 17.4381C167.205 17.4381 163.24 21.4331 163.24 26.3613C163.24 31.2894 167.205 35.2845 172.096 35.2845Z" fill="#FFB6B6"/>
<path d="M175.491 16.397C175.491 16.397 176.967 20.5612 174.605 21.4535C172.244 22.3459 168.996 23.5356 169.292 25.0228C169.587 26.51 168.406 30.9716 168.406 30.9716C168.406 30.9716 175.491 35.4332 170.768 39.8948C166.044 44.3564 162.502 42.5179 163.24 46.8577C163.978 51.1976 156.598 49.4129 156.598 49.4129C156.598 49.4129 153.941 45.2488 156.007 41.0846C158.074 36.9204 154.531 44.3564 153.646 44.3564C152.76 44.3564 148.332 45.5462 150.103 40.4897C151.875 35.4332 154.531 35.1358 154.531 31.2691C154.531 27.4023 156.303 22.6433 156.893 22.0484C157.484 21.4535 160.14 13.7201 165.454 14.315C170.768 14.9098 175.491 16.397 175.491 16.397Z" fill="#2F2E41"/>
<path d="M98.0863 163.506C98.0863 163.506 92.5291 173.905 92.9261 173.505C93.323 173.105 100.071 175.505 100.071 175.505L104.041 165.106L98.0863 163.506Z" fill="#A0616A"/>
<path d="M139.369 88.7897C126.81 90.5673 115.467 89.0174 106.224 81.7155C106.224 81.7155 99.4757 104.513 111.781 106.913C124.086 109.312 137.781 105.188 139.369 101.188C140.957 97.1887 139.369 88.7897 139.369 88.7897Z" fill="#2F2E41"/>
<path d="M115.949 95.9888L102.254 128.51L95.9031 166.106L104.239 168.105L119.149 133.509L139.369 100.388L115.949 95.9888Z" fill="#2F2E41"/>
<path d="M98.6818 173.705L91.1163 172.905L89.949 177.304C89.949 177.304 77.6436 188.503 83.9948 189.303C90.3459 190.103 96.3001 185.703 96.3001 185.703L105.037 180.654C105.037 180.654 104.437 171.18 102.056 171.18C99.6741 171.18 98.6818 173.705 98.6818 173.705Z" fill="#2F2E41"/>
<path d="M110.634 158.035C110.634 158.035 108.532 169.654 108.787 169.15C109.042 168.646 116.196 168.831 116.196 168.831L116.788 157.706L110.634 158.035Z" fill="#A0616A"/>
<path d="M106.953 88.2586L103.884 123.45L109.354 161.186L117.895 160.497L121.486 122.954L130.578 85.1636L106.953 88.2586Z" fill="#2F2E41"/>
<path d="M114.324 167.551L106.882 169.142L107.119 173.69C107.119 173.69 98.8426 188.167 105.129 186.954C111.415 185.741 115.732 179.705 115.732 179.705L122.496 172.186C122.496 172.186 119.025 163.36 116.76 164.101C114.495 164.841 114.324 167.551 114.324 167.551Z" fill="#2F2E41"/>
<path d="M114.111 15.4156C114.111 15.4156 110.325 17.6525 111.567 19.8646C112.808 22.0767 114.539 25.0899 113.365 26.0389C112.191 26.9879 110.252 31.1719 110.252 31.1719C110.252 31.1719 101.978 30.0075 102.754 36.4837C103.531 42.96 107.418 43.8429 104.087 46.692C100.755 49.541 107.549 52.9485 107.549 52.9485C107.549 52.9485 112.24 51.4757 113.31 46.9466C114.38 42.4175 112.356 50.4097 113.035 50.9827C113.714 51.5558 116.35 55.333 118.215 50.3109C120.08 45.2889 118.233 43.3417 120.698 40.3777C123.162 37.4138 124.838 32.6197 124.765 31.7817C124.691 30.9436 127.584 23.2965 123.132 20.3142C118.679 17.3319 114.111 15.4156 114.111 15.4156Z" fill="#2F2E41"/>
<path d="M115.85 33.1993L113.17 42.795H127.876L123.034 30.9716L115.85 33.1993Z" fill="#A0616A"/>
<path opacity="0.1" d="M115.85 33.1993L113.17 42.795H127.876L123.034 30.9716L115.85 33.1993Z" fill="black"/>
<path d="M147.92 104.048C148.11 106.916 146.795 109.339 144.983 109.461C143.172 109.582 141.55 107.356 141.36 104.486C141.269 103.341 141.451 102.191 141.891 101.131L141.239 88.9683L146.911 88.7816L146.951 100.792C147.528 101.784 147.86 102.9 147.92 104.048Z" fill="#A0616A"/>
<path d="M130.843 56.6059C130.843 56.6059 131.156 47.6605 134.535 47.1114C137.914 46.5622 142.482 50.5988 142.482 50.5988L149.46 79.7256L148.396 98.0274L140.758 97.5927L138.965 80.2532L130.843 56.6059Z" fill="#98A8F8"/>
<path d="M111.979 39.5954H125.854L140.956 49.9942L145.323 86.39L142.941 93.5891L138.575 101.988C138.575 101.988 142.941 83.5903 132.224 90.7894C132.117 90.8614 132.01 90.9328 131.905 91.0036C125.006 95.6465 115.903 95.1698 109.516 89.8338L104.438 85.59L107.216 71.5917L105.033 45.7947L111.979 39.5954Z" fill="#98A8F8"/>
<path d="M77.2622 85.1619C75.037 86.9608 72.312 87.2621 71.176 85.835C70.04 84.4079 70.9232 81.7933 73.1495 79.994C74.029 79.263 75.0695 78.7548 76.1839 78.512L85.708 71.0099L89.1068 75.5882L79.3569 82.4979C78.8798 83.5417 78.1616 84.4552 77.2622 85.1619Z" fill="#A0616A"/>
<path d="M106.09 43.8934C106.09 43.8934 113.549 39.0311 115.93 41.5078C118.311 43.9844 117.642 50.0692 117.642 50.0692L97.9357 72.5098L82.4334 82.1082L78.4143 75.5495L91.4977 64.1416L106.09 43.8934Z" fill="#98A8F8"/>
<path d="M119.344 35.2845C124.235 35.2845 128.2 31.2894 128.2 26.3613C128.2 21.4331 124.235 17.4381 119.344 17.4381C114.452 17.4381 110.487 21.4331 110.487 26.3613C110.487 31.2894 114.452 35.2845 119.344 35.2845Z" fill="#A0616A"/>
<path d="M114.935 20.3801C114.935 20.3801 113.63 15.9981 115.804 15.9981C117.979 15.9981 126.677 16.4363 127.547 17.3127C128.417 18.1891 138.709 26.9849 132.621 33.996C126.532 41.0072 132.621 44.3948 132.621 44.3948C132.621 44.3948 137.115 54.9979 132.766 55.8743C128.417 56.7507 110.577 51.7394 114.935 43.6047C119.663 34.7768 121.863 20.8434 114.935 20.3801Z" fill="#2F2E41"/>
<path d="M259.851 85.5243C259.711 85.0908 258.645 85.2817 258.543 84.8939C258.441 84.5076 259.463 84.1837 260.248 83.0949C260.389 82.8986 261.28 81.6613 260.939 81.141C260.291 80.1546 255.783 82.6113 254.701 81.2326C254.463 80.9301 254.366 80.4107 253.658 79.4441C253.377 79.0595 253.196 78.8739 252.981 78.8794C252.675 78.8872 252.565 79.273 252.084 79.9719C251.362 81.0201 251.102 80.8885 250.627 81.7473C250.274 82.3848 250.232 82.7922 249.978 82.8162C249.618 82.8502 249.469 82.0564 249.029 82.0256C248.58 81.9942 248.131 82.7785 247.908 83.3913C247.49 84.5412 247.749 85.4201 247.806 86.296C247.869 87.2479 247.722 88.6414 246.696 90.4299L237.014 105.973C239.093 102.804 244.995 94.1639 247.373 90.9946C248.06 90.0796 248.798 89.1609 249.933 88.9881C251.026 88.8217 252.357 89.3667 254.213 89.3349C254.43 89.3312 255.033 89.3132 255.18 88.9909C255.302 88.7245 255 88.4928 255.11 88.2424C255.257 87.9065 255.918 88.0506 256.82 87.8275C257.456 87.6702 257.887 87.4103 258.259 87.1867C258.371 87.1193 260.039 86.1014 259.851 85.5243Z" fill="#F2F2F2"/>
<path d="M234.492 89.1532C234.24 89.0977 234.026 89.6797 233.808 89.6184C233.59 89.5574 233.727 88.9582 233.423 88.2563C233.368 88.1297 233.023 87.332 232.671 87.3509C232.003 87.3867 231.899 90.3247 230.916 90.462C230.7 90.4921 230.418 90.3906 229.743 90.4615C229.475 90.4897 229.332 90.5254 229.273 90.6337C229.188 90.7873 229.345 90.9528 229.546 91.3924C229.849 92.0516 229.709 92.1424 229.991 92.6252C230.199 92.9837 230.386 93.1219 230.324 93.2546C230.237 93.4425 229.807 93.287 229.665 93.4957C229.52 93.7087 229.773 94.1571 230.007 94.4441C230.447 94.9825 230.949 95.1081 231.393 95.3325C231.874 95.5763 232.511 96.0508 233.086 97.0744L237.863 106.347C236.92 104.405 234.414 98.9927 233.556 96.9022C233.309 96.2988 233.074 95.6688 233.318 95.0574C233.552 94.4688 234.201 93.9682 234.722 93.0409C234.782 92.9326 234.948 92.629 234.833 92.4634C234.738 92.3265 234.538 92.4087 234.448 92.2822C234.327 92.1126 234.588 91.8271 234.739 91.3169C234.846 90.9572 234.844 90.6686 234.842 90.4205C234.842 90.3457 234.827 89.2272 234.492 89.1532Z" fill="#F2F2F2"/>
<path d="M239.259 91.4157L239.409 90.0187L239.501 89.9309C239.927 89.5251 240.194 89.0952 240.294 88.6528C240.309 88.5824 240.322 88.5113 240.334 88.4388C240.384 88.1516 240.446 87.7945 240.72 87.4236C240.874 87.217 241.279 86.75 241.698 86.9131C241.811 86.9557 241.887 87.0295 241.94 87.1077C241.953 87.0942 241.967 87.0806 241.981 87.0659C242.162 86.889 242.289 86.8241 242.411 86.7617C242.504 86.7136 242.601 86.6642 242.764 86.5324C242.836 86.4746 242.894 86.4226 242.942 86.3789C243.089 86.2468 243.277 86.0921 243.534 86.1533C243.807 86.2284 243.9 86.4906 243.962 86.6641C244.073 86.9736 244.107 87.1865 244.13 87.3276C244.138 87.3792 244.147 87.4373 244.154 87.4561C244.214 87.6077 244.963 87.6469 245.245 87.6633C245.879 87.698 246.427 87.728 246.559 88.1652C246.654 88.478 246.457 88.8192 245.956 89.2062C245.8 89.3266 245.644 89.4097 245.509 89.4717C245.592 89.5513 245.659 89.6595 245.663 89.8069C245.672 90.1557 245.317 90.4234 244.607 90.6039C244.431 90.6493 244.194 90.7093 243.884 90.6941C243.737 90.6868 243.609 90.6643 243.5 90.6432C243.484 90.7059 243.454 90.771 243.4 90.8328C243.242 91.015 242.987 91.0613 242.641 90.9586C242.259 90.8513 241.957 90.7054 241.691 90.5771C241.458 90.4654 241.257 90.3699 241.089 90.3438C240.776 90.2997 240.484 90.4945 240.134 90.7538L239.259 91.4157Z" fill="#F2F2F2"/>
<path d="M241.758 83.4587L240.378 83.6667L240.271 83.5992C239.773 83.2868 239.293 83.136 238.843 83.1508C238.771 83.1531 238.7 83.1592 238.627 83.1653C238.339 83.1895 237.98 83.2197 237.555 83.0467C237.317 82.9496 236.766 82.6726 236.816 82.2234C236.829 82.1025 236.88 82.0095 236.942 81.938C236.925 81.9285 236.909 81.9187 236.891 81.9082C236.675 81.7769 236.581 81.6701 236.49 81.5672C236.42 81.4882 236.348 81.4065 236.18 81.2805C236.107 81.2253 236.042 81.1825 235.988 81.1464C235.824 81.0368 235.628 80.8929 235.621 80.6267C235.624 80.3418 235.852 80.1842 236.003 80.0797C236.272 79.8932 236.468 79.806 236.598 79.7482C236.645 79.7272 236.698 79.7032 236.715 79.6915C236.845 79.5949 236.693 78.8546 236.637 78.5757C236.509 77.9492 236.399 77.4072 236.785 77.1677C237.062 76.9962 237.439 77.1018 237.938 77.4915C238.093 77.6129 238.212 77.7437 238.306 77.8603C238.361 77.7587 238.448 77.6664 238.589 77.6251C238.921 77.5276 239.269 77.8058 239.622 78.4516C239.71 78.6119 239.828 78.8278 239.892 79.1341C239.922 79.2784 239.933 79.4089 239.94 79.5206C240.005 79.5206 240.075 79.5331 240.148 79.5699C240.363 79.6776 240.472 79.9144 240.461 80.2778C240.455 80.6775 240.391 81.0088 240.336 81.301C240.288 81.5561 240.247 81.7759 240.264 81.9467C240.301 82.2631 240.563 82.4983 240.9 82.7731L241.758 83.4587Z" fill="#F2F2F2"/>
<path d="M241.944 79.2855L242.094 77.8885L242.186 77.8007C242.612 77.3949 242.879 76.965 242.979 76.5226C242.994 76.4522 243.007 76.3811 243.019 76.3086C243.069 76.0214 243.131 75.6643 243.405 75.2934C243.559 75.0868 243.964 74.6198 244.383 74.7829C244.496 74.8256 244.572 74.8993 244.625 74.9776C244.638 74.964 244.652 74.9505 244.667 74.9358C244.847 74.7588 244.974 74.6939 245.096 74.6315C245.189 74.5834 245.286 74.534 245.449 74.4022C245.521 74.3444 245.579 74.2924 245.627 74.2487C245.774 74.1166 245.962 73.9619 246.219 74.0232C246.492 74.0983 246.585 74.3604 246.647 74.5339C246.758 74.8434 246.792 75.0563 246.815 75.1974C246.823 75.249 246.832 75.3071 246.839 75.326C246.899 75.4776 247.648 75.5168 247.93 75.5331C248.564 75.5678 249.112 75.5978 249.244 76.035C249.339 76.3478 249.142 76.689 248.641 77.076C248.485 77.1964 248.329 77.2795 248.194 77.3415C248.277 77.4211 248.344 77.5293 248.348 77.6767C248.357 78.0256 248.002 78.2933 247.292 78.4737C247.116 78.5191 246.879 78.5791 246.569 78.5639C246.422 78.5566 246.294 78.5341 246.185 78.513C246.169 78.5757 246.139 78.6408 246.085 78.7026C245.927 78.8848 245.672 78.9311 245.326 78.8284C244.944 78.7211 244.642 78.5752 244.376 78.4469C244.143 78.3352 243.942 78.2397 243.774 78.2136C243.461 78.1695 243.169 78.3643 242.819 78.6236L241.944 79.2855Z" fill="#F2F2F2"/>
<path d="M237.471 106.052L237.228 105.81L236.889 105.774C236.89 105.741 236.888 105.666 236.886 105.549C236.872 104.906 236.832 102.95 237.102 99.9452C237.291 97.8474 237.606 95.718 238.04 93.615C238.474 91.5088 238.924 89.9416 239.286 88.682C239.559 87.7319 239.835 86.8308 240.104 85.9531C240.822 83.6081 241.499 81.3929 241.919 78.8662C242.013 78.3022 242.208 77.128 241.809 75.7423C241.577 74.9385 241.18 74.182 240.629 73.4944L241.163 73.0602C241.771 73.8201 242.21 74.6579 242.467 75.5503C242.91 77.0868 242.697 78.3661 242.595 78.9808C242.168 81.5521 241.483 83.7886 240.758 86.1562C240.491 87.0308 240.216 87.9279 239.944 88.8741C239.586 90.122 239.139 91.6756 238.711 93.7548C238.282 95.8326 237.971 97.936 237.784 100.007C237.518 102.975 237.558 104.901 237.571 105.534C237.578 105.872 237.579 105.943 237.471 106.052Z" fill="#F2F2F2"/>
<path d="M239.165 74.2895C239.138 74.2833 239.11 74.2764 239.083 74.2681C238.52 74.1092 238.069 73.6471 237.741 72.895C237.587 72.5414 237.551 72.1692 237.479 71.4269C237.467 71.3124 237.417 70.7333 237.479 69.9658C237.519 69.4642 237.573 69.2628 237.708 69.1046C237.858 68.9284 238.061 68.8275 238.275 68.7768C238.281 68.7104 238.303 68.6455 238.345 68.584C238.522 68.3286 238.816 68.4335 238.976 68.4881C239.057 68.5173 239.158 68.5544 239.271 68.5736C239.448 68.6045 239.554 68.573 239.715 68.5262C239.868 68.4813 240.059 68.4254 240.323 68.4302C240.844 68.4374 241.23 68.6732 241.357 68.7509C242.026 69.1563 242.258 69.803 242.525 70.5519C242.578 70.7021 242.755 71.2446 242.796 71.9433C242.826 72.4474 242.76 72.6537 242.685 72.8013C242.531 73.1046 242.296 73.2452 241.713 73.541C241.103 73.851 240.797 74.0061 240.546 74.0858C239.963 74.2704 239.596 74.3863 239.165 74.2895Z" fill="#F2F2F2"/>
<path d="M66.3533 81.8675L65.9054 67.632C65.8982 67.4009 65.9883 67.176 66.1528 67.0148C66.3174 66.8535 66.5432 66.769 66.7724 66.7828L77.9838 67.4603C78.2103 67.4739 78.4228 67.583 78.5669 67.7596C78.711 67.9361 78.7762 68.1672 78.7458 68.3937L76.8492 82.5426C76.7918 82.9707 76.4119 83.2836 75.9842 83.2549L67.1173 82.6642C67.0273 82.6581 66.9416 82.638 66.8623 82.6056C66.5695 82.4863 66.3639 82.2027 66.3533 81.8675Z" fill="#98A8F8"/>
<path d="M65.9193 66.3003C66.0762 66.2836 66.2863 66.2632 66.5385 66.2418C66.4711 66.1153 66.4435 65.9657 66.4723 65.8121L66.6726 64.7458C66.7245 64.4691 66.9458 64.2569 67.2229 64.2196C68.8737 63.9972 74.5516 63.3938 78.1268 65.0281C78.3505 65.1303 78.4944 65.3549 78.5015 65.6023L78.5343 66.7398C78.5383 66.8805 78.4977 67.0109 78.4266 67.1189C78.7239 67.1995 79.0201 67.2846 79.314 67.3775C79.4982 67.4357 79.63 67.5994 79.6521 67.7926L79.7077 68.2771C79.7429 68.5846 79.4927 68.849 79.1862 68.8281L65.7828 67.9161C65.4778 67.8953 65.2654 67.602 65.3388 67.303L65.4932 66.674C65.543 66.4713 65.7133 66.3221 65.9193 66.3003Z" fill="#3F3D56"/>
<path d="M32.6129 41.4722L32.1651 27.2367C32.1578 27.0056 32.2479 26.7807 32.4125 26.6195C32.577 26.4582 32.8029 26.3737 33.0321 26.3875L44.2434 27.065C44.4699 27.0786 44.6825 27.1877 44.8265 27.3643C44.9706 27.5408 45.0358 27.7719 45.0055 27.9984L43.1089 42.1473C43.0515 42.5754 42.6715 42.8883 42.2438 42.8596L33.3769 42.2689C33.287 42.2628 33.2013 42.2427 33.122 42.2103C32.8291 42.091 32.6235 41.8074 32.6129 41.4722Z" fill="#98A8F8"/>
<path d="M32.179 25.905C32.3358 25.8883 32.5459 25.8679 32.7982 25.8465C32.7308 25.72 32.7032 25.5704 32.732 25.4168L32.9322 24.3505C32.9842 24.0738 33.2055 23.8616 33.4825 23.8243C35.1333 23.6019 40.8112 22.9985 44.3865 24.6328C44.6102 24.7351 44.7541 24.9596 44.7612 25.207L44.7939 26.3445C44.7979 26.4852 44.7574 26.6156 44.6863 26.7236C44.9835 26.8042 45.2798 26.8893 45.5736 26.9822C45.7578 27.0404 45.8896 27.2041 45.9118 27.3973L45.9673 27.8819C46.0025 28.1893 45.7524 28.4537 45.4459 28.4328L32.0425 27.5208C31.7375 27.5 31.525 27.2067 31.5984 26.9077L31.7529 26.2787C31.8026 26.076 31.9729 25.9268 32.179 25.905Z" fill="#3F3D56"/>
<path d="M208.46 85.467L208.012 71.2316C208.005 71.0005 208.095 70.7755 208.259 70.6144C208.424 70.4531 208.65 70.3685 208.879 70.3824L220.09 71.0599C220.317 71.0735 220.529 71.1826 220.673 71.3592C220.818 71.5357 220.883 71.7668 220.852 71.9933L218.956 86.1421C218.898 86.5702 218.518 86.8831 218.091 86.8545L209.224 86.2637C209.134 86.2577 209.048 86.2375 208.969 86.2052C208.676 86.0859 208.47 85.8022 208.46 85.467Z" fill="#98A8F8"/>
<path d="M208.026 69.8999C208.183 69.8832 208.393 69.8628 208.645 69.8414C208.578 69.7149 208.55 69.5653 208.579 69.4117L208.779 68.3454C208.831 68.0687 209.052 67.8565 209.329 67.8192C210.98 67.5968 216.658 66.9933 220.233 68.6277C220.457 68.7299 220.601 68.9545 220.608 69.2018L220.641 70.3394C220.645 70.4801 220.604 70.6104 220.533 70.7185C220.83 70.799 221.127 70.8842 221.421 70.977C221.605 71.0352 221.737 71.199 221.759 71.3922L221.814 71.8767C221.849 72.1842 221.599 72.4486 221.293 72.4277L207.889 71.5157C207.584 71.4949 207.372 71.2016 207.445 70.9026L207.6 70.2735C207.65 70.0709 207.82 69.9217 208.026 69.8999Z" fill="#3F3D56"/>
</g>
<defs>
<clipPath id="clip0_16_667">
<rect width="262" height="191" fill="white"/>
</clipPath>
</defs>
</svg>
